<svg width="84" height="81" viewBox="0 0 84 81" fill="none" xmlns="http://www.w3.org/2000/svg">
<path d="M44.4402 73.3212C62.6813 73.3212 77.4686 58.5339 77.4686 40.2928C77.4686 22.0517 62.6813 7.2644 44.4402 7.2644C26.1992 7.2644 11.4119 22.0517 11.4119 40.2928C11.4119 58.5339 26.1992 73.3212 44.4402 73.3212Z" fill="url(#paint0_linear_1_2438)"/>
<path d="M50.9282 19.6697C50.8943 19.8734 51.064 20.5189 51.1659 20.9265C51.2679 21.3341 51.1659 22.2173 50.9282 22.3533C50.6904 22.4892 51.2679 22.7948 51.7095 22.5232C52.1511 22.2515 52.253 22.5911 52.5929 22.2175C52.9325 21.8439 53.3061 21.4023 53.3061 21.1304C53.3061 20.8587 53.1024 20.8247 52.8645 20.4171C52.6267 20.0095 52.0153 19.2622 52.0153 18.9904C52.0153 18.7187 51.8859 17.5297 51.6788 17.6316C51.4718 17.7336 50.9284 17.6316 50.9284 17.6316C50.5886 17.9373 50.5886 17.8725 50.5886 18.2105C50.5886 18.5486 50.2829 18.6845 50.3169 18.9224C50.3505 19.1601 50.962 19.4658 50.9282 19.6697ZM28.4066 13.7171C27.999 14.1587 26.6742 15.4835 26.6742 16.2987C26.6742 17.1139 27.2024 17.2159 27.5836 16.9102C27.9648 16.6046 27.9988 15.9931 28.2707 15.7552C28.5425 15.5175 29.5275 14.3964 30.173 14.4983C30.8183 14.6003 32.6867 16.2647 33.5359 16.163C34.3851 16.061 34.8946 15.5515 34.8946 15.3477C34.8946 15.144 33.7058 14.8382 33.6378 14.3966C33.5698 13.955 33.1962 13.0718 32.7886 13.0378C32.381 13.0038 30.9203 13.0378 30.7845 12.7321C30.6486 12.4265 29.1541 11.5771 29.0861 11.3056C29.0688 11.2367 29.0692 11.1503 29.0697 11.0543C28.4434 11.3843 27.8284 11.7326 27.2269 12.1006C27.3188 12.1647 27.4174 12.2194 27.5238 12.2617C27.699 12.3309 28.8144 13.2755 28.4066 13.7171ZM47.0387 15.4326C46.7993 15.6344 46.2235 15.7045 46.1724 15.7045C46.1216 15.7045 45.9008 16.1292 46.0025 16.4177C46.1045 16.7065 46.648 17.1821 47.1405 17.0801C47.6332 16.9782 48.2785 16.9585 48.5164 16.2635C48.7542 15.5685 48.4484 15.9592 48.2617 15.6025C48.0748 15.2458 47.3615 15.1607 47.0387 15.4326ZM49.926 21.9715C50.0959 21.9205 50.3676 21.7507 50.4014 21.6658C50.4354 21.581 50.4863 21.462 50.5882 21.3091C50.6902 21.1563 50.6053 20.7656 50.5882 20.6976C50.5712 20.6296 50.0315 20.4706 49.9258 20.4939C49.8264 20.5157 49.4842 20.6298 49.4842 20.8844C49.4842 21.1392 49.3483 20.9524 49.4842 21.428C49.6203 21.9036 49.7561 22.0224 49.926 21.9715ZM35.744 49.9055C34.4305 49.0447 32.8 47.9578 32.6189 47.5049C32.4377 47.052 31.8489 46.1916 31.1243 46.1009C30.3996 46.0102 29.5391 45.6478 29.4485 44.2891C29.358 42.9303 28.5427 43.3832 28.1351 43.3832C27.7275 43.3832 26.5499 43.8814 25.7347 43.1115C24.9194 42.3415 24.1945 41.7527 23.47 42.7039C22.7454 43.655 21.93 44.2891 21.1601 43.972C20.3901 43.655 19.4844 43.4738 19.6201 42.5227C19.756 41.5717 19.5294 40.6656 18.8954 40.7563C18.2613 40.8471 17.6725 40.6205 18.0802 39.7601C18.4878 38.8994 19.3482 38.4015 18.8501 38.0842C18.3518 37.7671 17.1742 37.5406 16.9932 38.1747C16.8121 38.8089 15.9062 39.6241 15.3174 39.2618C14.7286 38.8994 14.4567 38.356 14.5021 37.9484C14.5474 37.5408 14.0947 35.5932 15.6799 34.8233C17.2651 34.0533 17.8991 34.8685 18.2163 34.5968C18.5332 34.3251 18.4879 33.6004 19.1674 33.7816C19.8467 33.9628 21.115 35.7293 21.7943 35.5027C22.4736 35.2763 21.3414 32.6947 22.066 32.5135C22.7905 32.3323 24.24 31.2452 24.5117 30.7019C24.7835 30.1583 24.9193 28.9355 25.2816 28.7995C25.6442 28.6636 26.9575 28.4824 27.184 28.2107C27.4106 27.9389 27.7275 26.7613 28.1804 26.7613C28.6334 26.7613 30.3996 26.9879 30.8527 26.1272C31.3055 25.2668 31.7133 24.7232 30.9433 24.4514C30.1734 24.1797 28.4975 24.0439 30.1281 23.6814C31.7586 23.319 32.9816 23.6814 33.6156 22.9567C34.2497 22.2319 33.4344 21.2357 33.1173 21.1903C32.8004 21.145 32.438 20.8279 32.5285 20.4203C32.619 20.0127 32.6643 18.6992 32.2569 18.5632C31.8492 18.4275 30.7622 18.9708 30.7622 18.5632C30.7622 18.1556 29.2674 16.8423 28.7693 16.978C28.2712 17.1138 27.7277 18.3368 27.3201 18.8803C26.9124 19.4239 27.3653 20.2844 27.3653 20.2844C27.3653 20.2844 26.4594 20.7827 26.1425 20.7827C25.8254 20.7827 25.1461 22.6395 25.0556 22.2772C24.9649 21.9148 24.9196 21.0996 24.4213 20.8279C23.923 20.5562 22.7456 20.2391 22.5644 19.5596C22.3833 18.8803 22.9268 18.1556 24.0139 17.8387C25.101 17.5216 26.4598 15.8459 26.5503 15.2571C26.6409 14.6683 26.2786 14.6683 26.8219 14.3059C27.3655 13.9435 27.1843 13.2641 26.0067 13.2188C25.843 13.2125 25.6676 13.2232 25.4855 13.2436C17.2669 19.0136 11.7987 28.4333 11.4338 39.1491C12.1288 40.1457 13.1964 41.2431 14.6384 41.7978C16.9936 42.7037 17.1748 42.3413 17.8993 43.4284C18.6241 44.5153 19.3486 44.5609 19.711 44.9231C20.0733 45.2855 21.8851 45.0587 21.7945 45.6929C21.7038 46.3271 20.9791 48.9088 20.3903 49.1806C19.8015 49.4523 20.5262 50.1318 20.1638 50.5848C19.8015 51.0375 19.711 52.5775 20.4809 53.4834C21.2507 54.3895 21.2057 56.699 23.4702 57.6956C25.7347 58.692 25.4177 60.3227 25.4177 61.4096C25.4177 62.4967 25.9613 64.5346 25.7801 65.2593C25.6762 65.6752 25.4533 66.4636 25.2904 67.2058C26.7642 68.2563 28.3284 69.1877 29.9682 69.9885C30.0121 69.908 30.0374 69.8124 30.0374 69.6981C30.0374 68.8377 30.581 68.7473 30.8981 68.4301C31.2152 68.1129 30.9433 67.524 32.619 67.0259C34.2948 66.5277 33.8873 64.58 34.159 63.7649C34.4307 62.9497 33.5702 62.1345 34.5666 61.6364C35.563 61.1381 36.4235 61.455 36.8311 60.7755C37.2387 60.0962 37.873 58.9641 37.6463 58.3753C37.4199 57.7863 37.1526 55.703 37.6939 55.386C38.2351 55.0689 39.141 53.71 39.0051 51.989C38.8692 50.2675 37.0574 50.766 35.744 49.9055ZM45.6289 14.1085C46.6818 12.9698 47.6332 10.6259 47.7009 10.2183C47.7689 9.8107 45.1533 8.65582 45.1193 8.01033C45.1065 7.76629 44.9959 7.51221 44.7906 7.26905C44.6737 7.26782 44.5571 7.26465 44.44 7.26465C40.3568 7.26465 36.4478 8.00751 32.8379 9.36241C32.8583 9.48232 32.8768 9.59923 32.8906 9.7091C32.9212 9.95437 34.2153 11.4075 35.3702 11.5435C36.5251 11.6794 37.4423 12.2228 37.5102 12.8682C37.5782 13.5136 38.2237 14.363 37.3065 14.5329C36.3893 14.7026 36.5593 15.9596 36.797 16.1973C37.0348 16.4352 37.4423 18.575 38.0198 18.5072C38.5973 18.4393 39.8881 17.4203 40.1598 16.8428C40.4315 16.2653 40.8391 15.8577 41.4846 15.8577C42.1301 15.8577 44.5758 15.2472 45.6289 14.1085ZM31.7017 16.0498C31.2261 15.9478 31.1724 15.6421 30.5199 16.0498C29.8673 16.4574 29.9691 16.5253 30.241 16.729C30.5127 16.9329 30.8185 17.9179 31.7017 17.5783C32.5849 17.2386 32.5116 16.7194 32.381 16.2875C32.2505 15.8555 31.7017 16.0498 31.7017 16.0498ZM65.7073 15.0248C65.0586 16.101 64.271 17.5027 63.8023 17.0687C63.1908 16.5026 62.5795 15.9267 63.123 15.6712C63.6391 15.4286 64.7045 15.231 64.8694 14.3395C64.5873 14.1172 64.3008 13.9008 64.0117 13.6875C63.2158 13.6912 62.1076 13.9495 61.6965 13.7851C61.0172 13.5134 58.775 13.3172 58.1637 13.687C57.5522 14.0568 55.8539 14.8098 55.9219 15.3164C55.9899 15.8231 55.4463 16.5824 54.4272 16.7463C53.4083 16.9102 53.8838 18.4049 54.0198 18.8803C54.1555 19.3559 55.2426 19.9672 55.4463 19.2879C55.65 18.6087 56.6014 19.757 57.2807 19.5905C57.96 19.4239 58.1639 17.6348 58.0959 17.0687C58.0279 16.5026 58.7752 15.9321 58.9111 15.8437C59.0471 15.7554 60.3122 14.7093 60.0193 15.8437C59.7265 16.9782 59.463 18.0653 60.0193 18.0311C60.5757 17.9971 61.8326 17.6946 60.8816 18.5083C59.9304 19.3219 59.6246 19.9334 59.5908 20.1711C59.5568 20.409 57.8582 21.462 57.3828 21.2581C56.9072 21.0543 56.024 21.1901 55.99 20.8844C55.9561 20.5788 55.8543 19.7635 55.6164 20.0012C55.3785 20.2389 54.7672 20.6467 54.9371 20.8504C55.107 21.0543 55.2088 21.4958 54.8352 21.428C54.4615 21.36 53.7983 21.2721 53.7902 21.435C53.7821 21.5979 53.5783 23.0244 52.5932 23.3981C51.6081 23.7717 50.7927 23.568 50.8268 23.8397C50.8606 24.1114 51.3704 24.5192 51.5061 24.8248C51.6419 25.1305 51.9477 25.9799 51.3702 25.9799C50.7927 25.9799 49.7057 26.1156 49.196 26.6254C48.6864 27.1349 48.5845 27.3047 48.6187 27.7464C48.6526 28.188 48.6866 29.6488 49.1622 29.5806C49.6378 29.5126 50.2831 29.9882 50.385 30.2261C50.4868 30.464 51.0643 30.1921 51.6079 29.9204C52.1513 29.6488 52.4569 29.1732 52.593 28.7995C52.7288 28.4259 52.9667 27.5087 53.5782 27.4747C54.1897 27.4408 53.7819 26.8632 54.6651 26.7615C55.5484 26.6595 55.7184 26.15 56.2277 26.6595C56.7373 27.1691 57.4506 27.8824 57.8582 27.8824C58.2658 27.8824 57.5466 28.4939 57.4307 28.8675C57.3147 29.2411 57.6543 29.5468 57.9602 29.2411C58.2658 28.9355 58.181 28.6807 58.4188 28.5618C58.6567 28.443 58.7076 28.5789 58.7585 28.6469C58.8095 28.7148 59.0642 28.2222 58.9795 28.1033C58.8946 27.9845 58.1811 27.1182 58.1471 26.8805C58.1132 26.6428 57.6716 26.32 57.9093 26.2521C58.1472 26.1841 58.7583 26.354 58.9962 26.6428C59.2341 26.9316 59.5226 27.1013 59.4888 27.5598C59.4549 28.0183 59.5397 28.4601 59.7436 28.7318C59.9473 29.0034 60.5249 30.2773 60.9325 30.1414C61.3399 30.0055 61.0513 29.3771 61.0344 28.9864C61.0173 28.5956 61.0004 27.9672 61.391 27.9334C61.7817 27.8994 62.1212 28.0014 62.2062 28.409C62.2913 28.8166 62.7327 29.6149 63.0214 29.8866C63.3104 30.1583 64.2274 30.1074 64.4822 30.1245C64.7369 30.1416 66.1975 30.1416 66.2486 30.7869C66.2994 31.4322 65.5184 32.3494 64.669 32.3834C63.8198 32.4174 62.2911 32.2645 61.7475 31.9078C61.204 31.5511 60.253 31.2794 59.7434 31.8229C59.2337 32.3665 58.962 33.1571 58.5373 32.3881C58.1128 31.6192 56.3464 30.651 56.1936 30.4642C56.0408 30.2773 54.6311 30.2263 54.0027 30.2094C53.3743 30.1923 51.1437 30.0224 49.8982 31.7435C48.6528 33.4647 47.2486 34.2121 46.9542 34.6195C46.6598 35.0271 45.7764 37.3142 45.6407 37.6994C45.5049 38.0845 45.8897 38.7865 46.0483 38.9677C46.2068 39.1487 45.5954 40.0094 45.3236 40.2585C45.0519 40.5075 45.1651 40.9378 45.437 41.7983C45.7087 42.6588 46.0937 43.6779 46.4786 43.9723C46.8639 44.2669 47.724 45.1724 48.1093 45.7839C48.4943 46.3955 49.1282 47.392 49.6038 47.392C50.0794 47.392 50.759 45.8973 51.0758 46.0106C51.3929 46.1238 51.5739 46.5312 51.7324 46.5312C51.8908 46.5312 52.4342 46.6671 52.593 46.3049C52.7515 45.9424 53.3403 45.8519 53.8159 46.2595C54.2913 46.6671 56.0239 46.0216 56.0577 46.3615C56.0916 46.7011 56.9409 47.2447 56.7032 47.6861C56.4653 48.1277 55.6161 48.7732 55.8539 49.2148C56.0918 49.6564 57.0768 50.9134 57.0768 51.3548C57.0768 51.7964 57.5184 53.6307 57.4164 54.446C57.3145 55.2614 58.2656 54.8876 57.3826 56.9258C56.4993 58.9639 57.3826 60.2207 57.5863 60.5264C57.7901 60.832 58.7072 63.0742 58.7072 64.0592C58.7072 65.0443 58.4016 67.4898 59.5225 67.2861C60.6435 67.0824 60.0322 67.1841 61.119 66.6068C62.206 66.0294 63.1232 66.3689 63.4289 65.9953C63.7345 65.6216 65.365 64.5346 65.365 64.2289C65.365 63.9234 65.399 63.074 65.5349 62.6664C65.6707 62.2588 67.1994 61.6813 67.2333 61.2057C67.2672 60.7303 65.7388 59.8469 66.0105 59.4053C66.2822 58.9637 68.3544 57.8428 68.9657 57.6729C69.5773 57.503 69.4073 56.2801 69.2714 55.9405C69.1357 55.6007 68.2523 51.9999 68.7958 51.5583C69.3394 51.1167 69.781 49.6902 70.2224 49.1806C70.6642 48.6709 72.0567 47.3463 72.1927 46.8707C72.3284 46.3951 72.9399 44.391 72.9739 43.6436C73.0079 42.8963 72.906 42.6246 72.2946 42.6926C71.6831 42.7606 69.815 44.5269 69.3734 42.8625C68.9318 41.1981 68.3204 41.1639 68.2863 40.6205C68.2523 40.077 67.6748 37.903 66.9955 37.6313C66.3162 37.3594 66.0103 36.3405 66.0103 35.9329C66.0103 35.5253 65.5008 34.5401 65.7724 34.5061C66.0443 34.4722 67.1992 35.5253 67.3011 35.797C67.4031 36.0686 67.7427 35.8989 67.9804 36.952C68.2183 38.0049 68.524 37.7672 69.0334 38.8202C69.5431 39.8731 70.1543 40.7903 70.0185 41.1301C69.8827 41.4697 70.3583 42.9643 70.596 42.8283C70.8337 42.6926 71.7169 41.6055 72.0906 41.5715C72.4642 41.5375 74.5364 39.9409 74.9101 39.5334C75.2837 39.1258 75.4874 38.1067 75.4874 37.6991C75.4874 37.2915 74.9101 36.1026 74.6042 36.0685C74.2985 36.0345 73.8907 36.9856 73.5513 36.9518C73.2114 36.9178 72.7021 35.8987 72.3962 35.8308C72.0906 35.7628 71.6828 35.0493 71.6828 34.7777C71.6828 34.506 71.4449 33.5548 71.7507 33.5548C72.0564 33.5548 72.5322 34.8456 72.8037 34.9476C73.0755 35.0495 74.1964 34.5399 74.5362 34.8456C74.8759 35.1513 76.0308 36.578 76.4044 36.578C76.6226 36.578 76.8985 36.253 77.1647 35.8144C76.0383 27.5036 71.8208 20.1757 65.7073 15.0248ZM18.3223 36.0084C18.1055 35.9181 17.794 36.2139 17.7354 36.3604C17.6768 36.5072 18.4397 36.5365 18.6452 36.5953C18.8507 36.6541 19.4375 36.9474 19.6722 37.1823C19.9069 37.4168 20.4352 37.7986 20.6993 37.7986C20.9634 37.7986 21.3448 37.6811 21.022 37.3584C20.6993 37.0355 20.0536 36.7125 19.8775 36.5953C19.7015 36.478 18.6744 36.1551 18.3223 36.0084Z" fill="#E5F1FF"/>
<path d="M43.2072 80.0853C65.1841 80.0853 82.9999 62.2696 82.9999 40.2927C82.9999 18.3158 65.1841 0.5 43.2072 0.5C21.2303 0.5 3.41455 18.3158 3.41455 40.2927C3.41455 62.2696 21.2303 80.0853 43.2072 80.0853Z" stroke="#C0C0C0" stroke-miterlimit="10" stroke-dasharray="3 3"/>
<path d="M76.7572 48.9585C79.3032 43.1101 69.3124 32.1935 59.4294 34.1303" stroke="white" stroke-width="3" stroke-miterlimit="10" stroke-dasharray="14 14"/>
<path d="M8.82223 26.1755C7.11254 40.2931 17.1488 66.9014 59.4296 59.4321" stroke="white" stroke-miterlimit="10" stroke-dasharray="3 3"/>
<path d="M75.7372 29.3453C68.2943 17.4541 26.4601 11.5041 16.2708 33.0735" stroke="white" stroke-width="3" stroke-miterlimit="10" stroke-dasharray="14 14"/>
<path d="M28.7094 61.7666C28.8712 61.0786 28.4447 60.3895 27.7566 60.2277C27.0685 60.0658 26.3795 60.4924 26.2177 61.1804C26.0558 61.8685 26.4823 62.5575 27.1704 62.7194C27.8585 62.8812 28.5475 62.4547 28.7094 61.7666Z" fill="#323E48"/>
<path d="M20.9601 6.83762C20.4381 6.23914 19.5299 6.17735 18.9312 6.69941C18.3329 7.22147 18.2711 8.12967 18.7932 8.72832L20.6835 10.8953C21.2058 11.4938 22.1141 11.5557 22.7124 11.0337C23.3107 10.5114 23.3727 9.60307 22.8505 9.00476L20.9601 6.83762Z" fill="#677FB0"/>
<path d="M26.5948 4.72564C26.0727 4.12716 25.1645 4.06518 24.5661 4.58742C23.9678 5.10948 23.9058 6.01786 24.428 6.61616L26.3184 8.78312C26.8406 9.38142 27.749 9.4434 28.3473 8.92134C28.9456 8.39928 29.0076 7.49108 28.4853 6.8926L26.5948 4.72564Z" fill="#677FB0"/>
<path d="M14.6899 10.6326C14.6899 10.6326 28.3923 5.06685 30.0937 4.51715C31.7951 3.96761 33.9128 4.45428 34.8002 5.47147L18.0206 17.3071L14.6899 10.6326Z" fill="#052362"/>
<path d="M33.6982 4.70703L17.3899 16.0422L18.0209 17.3068L34.8006 5.4712C34.5315 5.16271 34.1477 4.90388 33.6982 4.70703Z" fill="#98B0D8"/>
<path d="M4.02079 21.6162C3.49855 21.0177 3.56052 20.1092 4.15883 19.5873C4.75713 19.0652 5.66568 19.1272 6.18774 19.7255L8.07809 21.8925C8.60015 22.4908 8.53835 23.3995 7.94005 23.9214C7.34157 24.4434 6.43319 24.3815 5.91131 23.7832L4.02079 21.6162Z" fill="#677FB0"/>
<path d="M1.16506 26.9125C0.642816 26.314 0.704795 25.4057 1.30328 24.8836C1.90158 24.3615 2.80995 24.4237 3.33184 25.022L5.22236 27.1889C5.7446 27.7873 5.68262 28.6956 5.08432 29.2175C4.48601 29.7398 3.57746 29.6779 3.0554 29.0795L1.16506 26.9125Z" fill="#677FB0"/>
<path d="M8.63143 15.9185C8.63143 15.9185 1.25916 28.7396 0.483903 30.3508C-0.29118 31.9617 -0.0962673 34.1261 0.791328 35.1434L14.7928 20.1237L8.63143 15.9185Z" fill="#052362"/>
<path d="M0.183594 33.9473L13.6255 19.3269L14.7927 20.1236L0.79123 35.1434C0.522011 34.8347 0.317411 34.4194 0.183594 33.9473Z" fill="#98B0D8"/>
<path d="M29.005 33.1549C28.0102 34.0232 25.7307 39.0881 26.4797 40.3041C26.4797 40.3041 29.0576 37.1598 31.0114 35.4548C32.9654 33.7501 36.4303 31.6227 36.4303 31.6227C35.3273 30.7156 29.9998 32.2867 29.005 33.1549Z" fill="#052362"/>
<path d="M2.28462 2.52894C0.900144 3.73664 0.900321 9.11116 4.2572 12.9586C15.4855 25.8283 29.4316 37.7289 31.4548 35.9635C33.4781 34.1984 23.5788 18.7673 12.3505 5.89761C8.99327 2.05019 3.66875 1.32124 2.28462 2.52894Z" fill="#B2C3F1"/>
<path d="M21.2568 29.9061C26.4243 34.2956 30.4395 36.8494 31.4546 35.9638C32.4697 35.0783 30.4839 30.7537 26.8356 25.0388L21.2568 29.9061Z" fill="#18376B"/>
<path d="M29.3473 32.4666C29.0893 32.1708 28.6405 32.1403 28.3447 32.3984C28.0491 32.6564 28.0185 33.1052 28.2764 33.4008L29.9206 35.285C30.1785 35.581 30.6274 35.6115 30.923 35.3535C31.2188 35.0956 31.2494 34.6467 30.9915 34.3509L29.3473 32.4666Z" fill="white"/>
<path d="M7.89172 4.26861C7.89172 4.26861 7.85685 4.26597 7.79118 4.26104C7.72726 4.25628 7.62848 4.24097 7.51245 4.23551C7.39642 4.22794 7.26048 4.22389 7.10061 4.22283C7.02208 4.22001 6.93827 4.21966 6.85023 4.22354C6.76254 4.22494 6.67204 4.22371 6.57608 4.23181C6.48083 4.23674 6.38328 4.23762 6.28133 4.24906C6.17991 4.25664 6.0762 4.26174 5.9695 4.27583C5.7568 4.29379 5.53512 4.32847 5.31045 4.3621C5.08807 4.40331 4.85829 4.44644 4.64665 4.5079C4.54276 4.53818 4.4387 4.5748 4.35384 4.61019C4.2614 4.64365 4.20382 4.68872 4.18093 4.70211C4.25735 4.62921 4.20082 4.68327 4.21738 4.66742L4.21509 4.66989L4.21086 4.67429L4.20223 4.68327L4.18498 4.70122L4.15047 4.73697L4.11613 4.77253L4.11103 4.7868C4.10416 4.80511 4.0936 4.80705 4.06631 4.86128C4.01965 4.94051 3.96946 5.03858 3.92544 5.13754C3.83565 5.33862 3.76169 5.56047 3.69091 5.77511C3.627 5.99309 3.56238 6.20808 3.51607 6.41655C3.48737 6.52044 3.46835 6.62256 3.44705 6.72187C3.42204 6.82135 3.40778 6.91784 3.39 7.01151C3.36905 7.10553 3.35795 7.19551 3.34457 7.28196C3.32908 7.36877 3.31816 7.4517 3.30988 7.5297C3.28893 7.68729 3.27555 7.82639 3.26763 7.94348C3.25794 8.06074 3.25759 8.15318 3.25425 8.21886C3.25037 8.28488 3.24808 8.3201 3.24808 8.3201C3.24808 8.3201 3.22678 8.29264 3.18998 8.23823C3.15723 8.18294 3.09049 8.10476 3.04031 7.99366C2.98467 7.88396 2.91477 7.74715 2.86072 7.5834C2.82797 7.50153 2.80472 7.41332 2.77919 7.31929C2.75243 7.22544 2.72972 7.12525 2.71123 7.02049C2.67144 6.81061 2.64414 6.57995 2.63763 6.33468C2.62724 6.08905 2.6415 5.82987 2.67355 5.56083C2.69186 5.42595 2.71281 5.28985 2.74574 5.1511C2.76229 5.08173 2.77884 5.01165 2.79522 4.94139C2.81775 4.87114 2.84029 4.80036 2.86301 4.7294C2.91565 4.5866 2.96636 4.44116 3.05158 4.29168C3.08169 4.22706 3.15071 4.12282 3.2185 4.03196L3.26974 3.96453L3.30337 3.92772L3.33682 3.8911L3.35355 3.87297L3.362 3.86381L3.36605 3.85906L3.36834 3.85695L3.40884 3.81768C3.59565 3.66977 3.77138 3.58455 3.92668 3.52786C4.0862 3.46359 4.23745 3.43331 4.38606 3.40038C4.45948 3.38753 4.53255 3.37468 4.60527 3.362C4.67693 3.35513 4.74877 3.34826 4.81973 3.3414C4.96182 3.32749 5.09969 3.3252 5.23545 3.3252C5.50642 3.32995 5.76508 3.35091 6.00718 3.39475C6.24893 3.43437 6.47378 3.49282 6.67644 3.56043C6.77786 3.59318 6.87382 3.62928 6.96345 3.66837C7.05307 3.70622 7.13741 3.74126 7.21383 3.78458C7.36772 3.86029 7.49748 3.94903 7.59961 4.01946C7.70437 4.08514 7.76582 4.15909 7.81759 4.19924C7.86601 4.24466 7.89172 4.26861 7.89172 4.26861Z" fill="white"/>
<defs>
<linearGradient id="paint0_linear_1_2438" x1="44.4402" y1="7.2644" x2="46.1207" y2="73.2843" gradientUnits="userSpaceOnUse">
<stop stop-color="#B8C8F6"/>
<stop offset="1" stop-color="#18376B"/>
</linearGradient>
</defs>
</svg>
