<svg width="100" height="101" viewBox="0 0 100 101" fill="none" xmlns="http://www.w3.org/2000/svg">
<path d="M87.9329 84.8489C85.9148 86.9734 84.0054 88.3434 82.4967 89.4259C64.7631 102.15 43.7794 98.441 39.3198 97.5352C32.7344 96.1977 20.0048 93.6122 10.8016 82.7894C-3.12211 66.4154 -0.953985 40.6186 9.84618 23.5898C11.8217 20.475 22.257 3.18679 43.4666 0.41429C56.3024 -1.26359 71.2649 2.12048 82.1003 11.1984C104.845 30.2538 103.226 68.7491 87.9329 84.8489Z" fill="url(#paint0_linear_38_3909)" fill-opacity="0.57"/>
<path d="M99.653 60.0325C99.9864 59.7846 99.7991 59.2529 99.3838 59.2623C95.1665 59.3575 83.892 60.8581 75.1685 73.3345C64.2235 88.9881 56.6631 91.4988 50.1855 91.3558C50.1855 91.3558 56.5358 94.3885 64.3862 92.0012C83.6607 86.1399 93.7252 64.4389 99.653 60.0325Z" fill="#E6E8EA"/>
<path d="M93.9559 62.8769C92.2597 64.1908 90.5904 65.5375 88.9727 66.9433C87.348 68.3403 85.7662 69.7859 84.2318 71.2788C82.7033 72.7774 81.2031 74.3045 79.7701 75.893C78.33 77.475 76.9594 79.1171 75.589 80.7706C74.2103 82.4155 72.8307 84.0804 71.2764 85.6091C69.7268 87.1361 67.9701 88.5026 66.0157 89.5076C65.5282 89.7576 65.0342 89.9998 64.5309 90.2104C64.0312 90.4305 63.5217 90.6285 63.0089 90.8173C61.9811 91.1899 60.9269 91.4948 59.8547 91.7202C57.709 92.1656 55.4972 92.2838 53.3275 92.1167C53.0991 92.0991 52.9283 91.8997 52.9458 91.6713C52.9631 91.4471 53.1557 91.2783 53.3789 91.2889L53.3805 91.289C53.9093 91.3147 54.4378 91.3344 54.9654 91.3304C55.2293 91.3326 55.4927 91.3231 55.7562 91.3186C56.0192 91.3041 56.2828 91.2998 56.5451 91.2772C57.5954 91.2045 58.6393 91.0581 59.6671 90.8353C61.7229 90.4002 63.7243 89.6557 65.593 88.6989C66.5222 88.2098 67.4138 87.6531 68.2595 87.0297C69.1047 86.4056 69.9033 85.7156 70.6632 84.9794C72.1839 83.5064 73.563 81.8698 74.9535 80.235C76.3464 78.6015 77.7574 76.9697 79.2333 75.3984C79.9691 74.6108 80.7189 73.8366 81.4822 73.0763C81.8616 72.6939 82.2484 72.3189 82.6344 71.9433C83.0241 71.5714 83.4157 71.2017 83.8103 70.8353C85.3915 69.3725 87.0165 67.9586 88.6838 66.598C90.3577 65.2455 92.067 63.9377 93.8237 62.6981C93.8739 62.6627 93.9433 62.6747 93.9787 62.7249C94.013 62.7736 94.0025 62.8407 93.9559 62.8769Z" fill="url(#paint1_linear_38_3909)"/>
<path d="M70.8114 82.7489C70.9363 83.7116 72.0038 84.234 72.8469 83.7528C77.4991 81.0976 89.9736 72.401 92.9891 54.1569C95.5355 38.7505 98.3803 30.6386 99.927 27.0455C100.254 26.2857 99.421 25.5501 98.7067 25.9671C90.8254 30.5683 66.2878 47.8638 70.8114 82.7489Z" fill="#E6E8EA"/>
<path d="M72.0933 83.0412C72.11 83.0585 72.1285 83.0745 72.149 83.0888C72.3204 83.209 72.5568 83.1675 72.677 82.9961C72.8132 82.8018 86.3516 63.3233 90.8599 42.0618C90.9032 41.8572 90.7725 41.6559 90.5677 41.6123C90.3629 41.569 90.1617 41.6997 90.1182 41.9045C85.6428 63.0113 72.1916 82.3679 72.0563 82.5609C71.9504 82.7118 71.97 82.9132 72.0933 83.0412Z" fill="#BDD0FB"/>
<path d="M89.596 53.6654C88.5902 76.577 67.7265 94.2704 42.9957 93.1847C18.2648 92.099 -0.968112 72.6454 0.0377205 49.7337C1.04355 26.8221 21.9072 9.1287 46.6381 10.2144C71.3689 11.3001 90.6018 30.7537 89.596 53.6654Z" fill="#F0F2F8"/>
<path opacity="0.22" d="M42.3911 81.9294C61.8158 81.9294 77.5627 67.0537 77.5627 48.7035C77.5627 30.3533 61.8158 15.4775 42.3911 15.4775C22.9663 15.4775 7.21948 30.3533 7.21948 48.7035C7.21948 67.0537 22.9663 81.9294 42.3911 81.9294Z" fill="#91B3FA" fill-opacity="0.57"/>
<g opacity="0.68">
<path d="M56.2675 51.9007C56.2568 59.2246 55.7545 66.5634 54.4638 73.7836C54.1371 75.5871 53.7583 77.3821 53.3069 79.1599C52.8542 80.9371 52.3315 82.6989 51.6915 84.4213C51.0462 86.1393 50.2972 87.8326 49.2816 89.3802C48.7698 90.1483 48.1893 90.8843 47.4729 91.4898C47.1148 91.7906 46.7215 92.0574 46.289 92.2528C45.8573 92.4469 45.3855 92.5699 44.9067 92.5784C44.4285 92.5924 43.9496 92.4988 43.5094 92.3215C43.0675 92.146 42.6647 91.8912 42.2979 91.6003C41.5644 91.0137 40.9711 90.2858 40.4501 89.5237C39.4165 87.9872 38.6573 86.2973 38.0053 84.582C37.3572 82.8625 36.8294 81.1021 36.3727 79.326C35.9169 77.5494 35.5343 75.7552 35.2048 73.9523C34.5473 70.3455 34.0989 66.7041 33.7963 63.0527C33.4958 59.4007 33.3452 55.737 33.3267 52.0728C33.3177 50.2409 33.3677 48.4093 33.4328 46.5788C33.5014 44.7484 33.6022 42.9192 33.737 41.0924C34.008 37.4394 34.4126 33.7945 35.0143 30.1795C35.3162 28.3724 35.6681 26.573 36.0915 24.7895C36.516 23.0066 37.0093 21.2378 37.6211 19.5074C37.9287 18.643 38.2649 17.7879 38.6484 16.9528C39.0313 16.1179 39.4598 15.3013 39.9634 14.5292C40.4681 13.7605 41.0483 13.0267 41.7709 12.4393C42.1321 12.1482 42.53 11.8949 42.966 11.7233C43.4003 11.5495 43.8714 11.4615 44.3401 11.4793C44.8091 11.4927 45.2714 11.6096 45.698 11.7975C46.1251 11.9862 46.5176 12.2429 46.878 12.5339C47.5987 13.1196 48.1952 13.8357 48.7245 14.5876C49.7766 16.102 50.5698 17.7722 51.2568 19.4715C51.9389 21.1755 52.502 22.9236 52.9925 24.6898C53.4813 26.4568 53.8952 28.2435 54.2533 30.0407C55.6706 37.2358 56.2464 44.5755 56.2675 51.9007ZM55.7254 51.9007C55.7321 48.2514 55.5934 44.6012 55.2901 40.9645C54.9911 37.328 54.5382 33.702 53.8633 30.1161C53.5264 28.3234 53.1339 26.5408 52.6669 24.778C52.1983 23.0161 51.6574 21.2721 50.9988 19.5733C50.3356 17.8793 49.5663 16.215 48.5456 14.7114C48.0326 13.9648 47.4538 13.2558 46.7593 12.679C46.4122 12.3923 46.0353 12.1404 45.6274 11.9548C45.22 11.7715 44.7812 11.6514 44.335 11.6397C43.889 11.6256 43.4436 11.7153 43.0311 11.8851C42.6171 12.0531 42.237 12.3004 41.8905 12.586C41.1973 13.1619 40.6356 13.8864 40.1475 14.6482C39.6602 15.4134 39.2454 16.2249 38.8754 17.0555C38.5048 17.8863 38.1806 18.7381 37.8847 19.5994C37.2961 21.3237 36.8248 23.0877 36.4219 24.8661C36.02 26.6452 35.6892 28.4404 35.4083 30.2431C34.8485 33.8495 34.4849 37.4854 34.2548 41.1279C34.0223 44.771 33.942 48.4223 33.9486 52.072C33.939 55.7211 34.0609 59.3713 34.3321 63.0106C34.6055 66.6492 35.0242 70.2787 35.6508 73.8725C35.9648 75.6691 36.3316 77.4564 36.7711 79.2253C37.2112 80.9936 37.722 82.7454 38.3507 84.4531C38.9827 86.1563 39.7219 87.832 40.7208 89.3412C41.2236 90.0895 41.7956 90.7993 42.4888 91.362C42.8352 91.6411 43.2122 91.8827 43.6198 92.0481C44.0261 92.214 44.4621 92.3061 44.8988 92.2914C45.3355 92.2801 45.7657 92.1648 46.1651 91.9816C46.5651 91.7971 46.9341 91.5434 47.273 91.2541C47.9512 90.672 48.511 89.9533 49.0049 89.1985C49.9864 87.6774 50.7149 85.9979 51.3398 84.2919C51.96 82.581 52.4652 80.8278 52.9009 79.0584C53.3354 77.2883 53.6978 75.5001 54.0087 73.7031C54.6311 70.1086 55.0446 66.4787 55.3196 62.8401C55.5982 59.2013 55.7269 55.5507 55.7254 51.9007Z" fill="white"/>
<path d="M74.7431 51.9008C74.7178 56.6172 74.1116 61.3356 72.849 65.8839C71.5644 70.4217 69.6279 74.7871 66.9989 78.7064C65.6842 80.6639 64.1948 82.5065 62.5305 84.1783C60.867 85.8495 59.0272 87.3493 57.0302 88.6063C55.0313 89.8583 52.8724 90.8607 50.6124 91.5407C48.3538 92.2223 45.9959 92.5779 43.6359 92.5802C41.2759 92.58 38.9173 92.2266 36.6575 91.5468C34.3963 90.8687 32.2356 89.868 30.2347 88.6171C28.2356 87.3615 26.3931 85.863 24.7269 84.1924C23.0599 82.5214 21.5675 80.6793 20.2499 78.7217C17.6155 74.8019 15.6749 70.4345 14.3843 65.8945C13.749 63.6203 13.277 61.3012 12.9642 58.9615C12.6531 56.6214 12.4968 54.2615 12.4861 51.9008C12.4983 49.54 12.656 47.1804 12.9686 44.8406C13.2828 42.5013 13.7567 40.1828 14.3935 37.9096C15.6874 33.3714 17.6309 29.007 20.267 25.0912C21.5852 23.1355 23.0777 21.2953 24.7445 19.6265C26.4107 17.9585 28.2519 16.4614 30.2507 15.2097C32.251 13.9621 34.4112 12.9689 36.6685 12.291C38.9242 11.6102 41.279 11.2552 43.6359 11.2529C45.9928 11.2572 48.3469 11.6142 50.6016 12.2966C52.8577 12.9764 55.016 13.9716 57.0142 15.2205C59.0108 16.4736 60.8494 17.9719 62.5129 19.6407C64.1769 21.3102 65.6665 23.1507 66.9817 25.1065C69.6125 29.0218 71.5521 33.3842 72.8398 37.9202C74.1052 42.4667 74.7146 47.1844 74.7431 51.9008ZM74.1217 51.9008C74.1149 47.238 73.534 42.5701 72.3037 38.069C71.0666 33.5748 69.2039 29.2361 66.6394 25.3343C65.3579 23.3853 63.9024 21.5483 62.2722 19.8785C60.6413 18.2113 58.84 16.7029 56.8699 15.4491C54.8974 14.2024 52.7674 13.1989 50.5339 12.5202C48.3016 11.8409 45.9709 11.4839 43.6359 11.4761C41.3009 11.4858 38.9708 11.8449 36.7396 12.5258C34.5073 13.2064 32.3791 14.2119 30.4087 15.4599C28.4408 16.715 26.6421 18.2247 25.014 19.8927C23.3865 21.5633 21.9339 23.4006 20.6554 25.3496C18.0963 29.2509 16.2375 33.5877 15.0065 38.0796C14.3932 40.3282 13.9492 42.6209 13.6483 44.9307C13.3467 47.2409 13.1979 49.5705 13.1927 51.9008C13.1994 54.231 13.3496 56.5605 13.6527 58.8702C13.955 61.1796 14.4009 63.4717 15.0157 65.7193C16.2499 70.2094 18.1117 74.5433 20.6725 78.4405C21.9516 80.3877 23.4044 82.223 25.0317 83.8914C26.6597 85.5568 28.4571 87.065 30.4247 88.3162C32.3945 89.5611 34.5222 90.5591 36.7506 91.2394C38.9777 91.9213 41.304 92.2819 43.6359 92.2938C45.9678 92.2841 48.2947 91.9256 50.5231 91.2456C52.7527 90.5671 54.8821 89.5707 56.8539 88.3271C58.8236 87.0772 60.6237 85.5703 62.2545 83.9056C63.8846 82.2379 65.3403 80.403 66.6223 78.4559C69.1884 74.5581 71.0543 70.2223 72.2945 65.73C73.5276 61.2306 74.1117 56.5636 74.1217 51.9008Z" fill="white"/>
<path d="M7.33669 35.8036L16.6786 35.7282L26.0205 35.6854L44.7043 35.6509L63.3881 35.6888L72.7299 35.7356L82.0718 35.817C82.087 35.8172 82.0991 35.8295 82.099 35.8447C82.0989 35.8597 82.0867 35.8718 82.0718 35.8719L72.7299 35.9534L63.3881 36.0001L44.7043 36.0381L26.0205 36.0036L16.6786 35.9608L7.33669 35.8853C7.31413 35.8851 7.296 35.8667 7.29614 35.8441C7.29636 35.8218 7.31446 35.8038 7.33669 35.8036Z" fill="white"/>
<path d="M18.1743 20.1572C20.3851 20.1221 22.5959 20.1071 24.8067 20.0817L31.4392 20.0389C33.65 20.0207 35.8608 20.0226 38.0717 20.017L44.7041 20.0044L57.9691 20.0424L64.6015 20.0891C66.8124 20.1168 69.0232 20.133 71.234 20.1706C71.2492 20.1708 71.2612 20.1833 71.261 20.1985C71.2607 20.2133 71.2487 20.2252 71.234 20.2254C69.0232 20.263 66.8124 20.2792 64.6015 20.3069L57.9691 20.3536L44.7041 20.3916L38.0717 20.379C35.8608 20.3734 33.65 20.3753 31.4392 20.3571L24.8067 20.3143C22.5959 20.2889 20.3851 20.2739 18.1743 20.2389C18.1517 20.2385 18.1337 20.2199 18.134 20.1973C18.1344 20.1753 18.1523 20.1575 18.1743 20.1572Z" fill="white"/>
<path d="M4.08986 51.4506L14.2434 51.3754L24.3969 51.3324L44.7038 51.2979L65.0108 51.3358L75.1644 51.3826L85.3178 51.464C85.333 51.4642 85.3452 51.4765 85.3451 51.4917C85.345 51.5067 85.3328 51.5187 85.3178 51.5189L75.1644 51.6003L65.0108 51.647L44.7038 51.685L24.3969 51.6505L14.2434 51.6075L4.08986 51.5323C4.06731 51.5321 4.04917 51.5137 4.04932 51.4912C4.0495 51.4688 4.06759 51.4508 4.08986 51.4506Z" fill="white"/>
<path d="M7.33669 67.0975L16.6786 67.0221L26.0205 66.9793L44.7043 66.9448L63.3881 66.9828L72.7299 67.0295L82.0718 67.111C82.087 67.1111 82.0991 67.1235 82.099 67.1387C82.0989 67.1536 82.0867 67.1657 82.0718 67.1659L72.7299 67.2473L63.3881 67.2941L44.7043 67.3321L26.0205 67.2976L16.6786 67.2548L7.33669 67.1793C7.31413 67.1791 7.296 67.1607 7.29614 67.1381C7.29636 67.1158 7.31446 67.0977 7.33669 67.0975Z" fill="white"/>
<path d="M72.5708 82.9285H19.5111C19.432 82.9285 19.3679 82.8644 19.3679 82.7853C19.3679 82.7062 19.432 82.6421 19.5111 82.6421H72.5708C72.65 82.6421 72.7141 82.7062 72.7141 82.7853C72.7141 82.8644 72.65 82.9285 72.5708 82.9285Z" fill="white"/>
</g>
<path d="M49.4801 19.6409L51.1483 19.0935C51.1826 19.0822 51.22 19.0845 51.2527 19.0999L53.0455 19.944C53.0938 19.9667 53.1252 20.0147 53.1267 20.0681C53.1281 20.1215 53.0994 20.1711 53.0524 20.1965L51.6757 20.9386L49.4801 19.6409Z" fill="url(#paint2_linear_38_3909)"/>
<path d="M61.6392 24.3588C61.6392 24.3588 44.8199 16.947 44.0806 17.0003C43.3413 17.0535 41.9385 17.4841 41.5766 17.3978C41.2148 17.3116 39.8965 17.2269 40.0065 18.2092C40.1166 19.1915 54.0273 25.4894 55.866 25.3158C57.7048 25.1421 62.2697 25.0827 62.2697 25.0827C62.2697 25.0827 62.8144 24.5624 61.6392 24.3588Z" fill="url(#paint3_linear_38_3909)"/>
<path d="M56.755 22.2783L59.6252 21.484C59.8052 21.4342 59.9676 21.3349 60.0939 21.1974L61.5644 19.5967C61.6809 19.4698 61.8668 19.4337 62.0222 19.508C62.5197 19.7457 63.5484 20.2535 63.5237 20.3783C63.4912 20.5426 61.9715 24.4983 61.9715 24.4983L56.755 22.2783Z" fill="url(#paint4_linear_38_3909)"/>
<path d="M61.3334 24.9036L61.3354 25.8157C61.3358 25.9696 61.2669 26.1094 61.1463 26.2049C61.0256 26.3004 60.8692 26.3296 60.7195 26.294L59.825 26.0808C59.6837 26.0471 59.5626 25.9597 59.4952 25.8311L58.3388 23.6289L61.3334 24.9036Z" fill="url(#paint5_linear_38_3909)"/>
<path d="M51.4266 25.5548C51.4266 25.5548 50.7254 26.0903 49.8433 25.8801C48.9613 25.6699 47.9339 25.1669 47.8047 24.8063C47.6755 24.4457 47.7908 22.0367 49.503 22.7953C51.2151 23.554 53.0559 25.0969 51.4266 25.5548Z" fill="url(#paint6_linear_38_3909)"/>
<path d="M52.9982 23.413L48.995 21.6768L51.4246 27.0267C51.4586 27.1017 51.5225 27.159 51.6007 27.1848L54.0541 27.9937C54.1603 28.0288 54.2772 28.0007 54.3559 27.9213C54.4347 27.8419 54.4617 27.7248 54.4257 27.6189L52.9982 23.413Z" fill="url(#paint7_linear_38_3909)"/>
<path d="M48.0194 24.9245C48.0081 24.9242 47.9976 24.9222 47.9877 24.9184C47.9336 24.8976 47.8914 24.8262 47.8624 24.7061C47.7691 24.3202 47.8341 23.5574 48.2704 23.0699C48.3997 22.9255 48.5906 22.8588 48.7816 22.8906C48.9384 22.9171 49.1243 23.0103 49.1198 23.3039C49.1127 23.7641 48.4521 24.6701 48.1524 24.8727C48.0997 24.9084 48.0558 24.9255 48.0194 24.9245ZM48.7034 22.9616C48.5627 22.9577 48.4237 23.0162 48.3288 23.1222C47.916 23.5834 47.8519 24.329 47.9386 24.6877C47.9637 24.7917 47.9959 24.8376 48.0158 24.8452C48.0183 24.8462 48.0417 24.853 48.1085 24.8078C48.4202 24.597 49.0352 23.7092 49.0414 23.3026C49.0444 23.1089 48.9551 22.9994 48.7686 22.9679C48.7469 22.9642 48.7251 22.9622 48.7034 22.9616Z" fill="url(#paint8_linear_38_3909)"/>
<path d="M63.1902 21.3227L62.756 21.2192L61.6882 23.8943L62.1192 24.1097L63.1902 21.3227Z" fill="url(#paint9_linear_38_3909)"/>
<path d="M55.2583 22.956C55.2924 22.8132 55.2042 22.6698 55.0613 22.6357L55.0449 22.6318C54.902 22.5978 54.7586 22.686 54.7246 22.8288L54.6843 22.9978C54.6503 23.1406 54.7385 23.284 54.8813 23.3181L54.8978 23.322C55.0406 23.356 55.184 23.2678 55.2181 23.125L55.2583 22.956Z" fill="#EDEDF0"/>
<path d="M54.2852 22.643C54.3192 22.5002 54.231 22.3568 54.0882 22.3228L54.0717 22.3188C53.9289 22.2848 53.7855 22.373 53.7514 22.5159L53.7112 22.6848C53.6771 22.8276 53.7653 22.971 53.9082 23.0051L53.9246 23.009C54.0675 23.0431 54.2109 22.9548 54.2449 22.812L54.2852 22.643Z" fill="#EDEDF0"/>
<path d="M53.3484 22.1787C53.3825 22.0358 53.2942 21.8924 53.1514 21.8584L53.1349 21.8545C52.9921 21.8204 52.8487 21.9086 52.8147 22.0515L52.7744 22.2204C52.7404 22.3633 52.8286 22.5067 52.9714 22.5407L52.9879 22.5447C53.1307 22.5787 53.2741 22.4905 53.3081 22.3476L53.3484 22.1787Z" fill="#EDEDF0"/>
<path d="M52.4697 21.8081C52.5038 21.6652 52.4156 21.5218 52.2727 21.4878L52.2563 21.4839C52.1134 21.4498 51.97 21.538 51.936 21.6809L51.8957 21.8498C51.8617 21.9927 51.9499 22.1361 52.0928 22.1701L52.1092 22.174C52.252 22.2081 52.3954 22.1199 52.4295 21.977L52.4697 21.8081Z" fill="#EDEDF0"/>
<path d="M51.4385 21.4009C51.4725 21.258 51.3843 21.1146 51.2415 21.0806L51.225 21.0766C51.0822 21.0426 50.9388 21.1308 50.9047 21.2737L50.8645 21.4426C50.8304 21.5855 50.9187 21.7289 51.0615 21.7629L51.078 21.7668C51.2208 21.8009 51.3642 21.7127 51.3982 21.5698L51.4385 21.4009Z" fill="#EDEDF0"/>
<path d="M50.4837 21.0122C50.5177 20.8693 50.4295 20.7259 50.2866 20.6919L50.2702 20.688C50.1274 20.6539 49.984 20.7421 49.9499 20.885L49.9097 21.0539C49.8756 21.1968 49.9638 21.3402 50.1067 21.3742L50.1231 21.3782C50.266 21.4122 50.4094 21.324 50.4434 21.1811L50.4837 21.0122Z" fill="#EDEDF0"/>
<path d="M49.5467 20.5473C49.5807 20.4045 49.4925 20.2611 49.3496 20.227L49.3332 20.2231C49.1903 20.1891 49.0469 20.2773 49.0129 20.4201L48.9726 20.5891C48.9386 20.7319 49.0268 20.8753 49.1697 20.9094L49.1861 20.9133C49.3289 20.9474 49.4723 20.8591 49.5064 20.7163L49.5467 20.5473Z" fill="#EDEDF0"/>
<path d="M48.6502 20.2529C48.6842 20.11 48.596 19.9666 48.4531 19.9326L48.4367 19.9287C48.2939 19.8946 48.1505 19.9829 48.1164 20.1257L48.0762 20.2947C48.0421 20.4375 48.1303 20.5809 48.2732 20.6149L48.2896 20.6189C48.4325 20.6529 48.5759 20.5647 48.6099 20.4218L48.6502 20.2529Z" fill="#EDEDF0"/>
<path d="M47.6953 19.8637C47.7294 19.7209 47.6412 19.5775 47.4983 19.5435L47.4819 19.5395C47.339 19.5055 47.1956 19.5937 47.1616 19.7366L47.1213 19.9055C47.0873 20.0483 47.1755 20.1917 47.3183 20.2258L47.3348 20.2297C47.4776 20.2638 47.621 20.1755 47.6551 20.0327L47.6953 19.8637Z" fill="#EDEDF0"/>
<path d="M46.7583 19.3994C46.7924 19.2565 46.7042 19.1131 46.5613 19.0791L46.5449 19.0752C46.402 19.0411 46.2586 19.1293 46.2246 19.2722L46.1843 19.4411C46.1503 19.584 46.2385 19.7274 46.3813 19.7614L46.3978 19.7654C46.5406 19.7994 46.684 19.7112 46.7181 19.5683L46.7583 19.3994Z" fill="#EDEDF0"/>
<path d="M45.8616 19.105C45.8956 18.9621 45.8074 18.8187 45.6646 18.7847L45.6481 18.7807C45.5053 18.7467 45.3619 18.8349 45.3278 18.9778L45.2876 19.1467C45.2535 19.2896 45.3418 19.433 45.4846 19.467L45.501 19.4709C45.6439 19.505 45.7873 19.4168 45.8213 19.2739L45.8616 19.105Z" fill="#EDEDF0"/>
<path d="M42.7224 17.2515L44.3465 18.1489C44.4684 18.2164 44.5251 18.3614 44.4809 18.4936C44.4284 18.6508 44.3609 18.8264 44.3287 18.8025C44.2719 18.7603 41.7104 17.418 41.7104 17.418L42.7224 17.2515Z" fill="#EDEDF0"/>
<path d="M35.5988 60.7346C35.4247 60.7695 36.9303 86.3883 38.0843 92.1582L40.481 91.9806L41.0136 66.0606H41.9012L43.2327 91.5368H45.1856L47.0497 60.4683C47.0497 60.4683 39.5933 59.9357 35.5988 60.7346Z" fill="#474545"/>
<path d="M38.0843 93.8452C38.0843 93.8452 40.0371 94.1115 41.1911 93.8452C41.1911 93.8452 41.5461 92.8688 40.481 91.9812C39.4157 91.0935 38.0842 92.1587 38.0842 92.1587L38.0843 93.8452Z" fill="#383838"/>
<path d="M43.2328 91.5371C43.2328 91.5371 43.1441 92.9574 43.2328 93.6675C43.2328 93.6675 46.9611 93.7918 49.0108 93.7804C49.3872 93.7783 49.4929 93.2655 49.1485 93.1132C48.4893 92.8218 47.3068 91.8514 45.1857 91.5371L43.2328 91.5371Z" fill="#383838"/>
<path d="M36.3976 40.0522C36.3976 40.0522 41.5461 38.3656 45.6294 39.8747L47.671 61.2675C47.671 61.2675 38.528 61.0012 35.4211 61.7113L36.3976 40.0522Z" fill="url(#paint10_linear_38_3909)"/>
<path d="M36.3976 40.0522C36.3976 40.0522 41.5461 38.3656 45.6294 39.8747L47.671 61.2675C47.671 61.2675 38.528 61.0012 35.4211 61.7113L36.3976 40.0522Z" fill="url(#paint11_linear_38_3909)"/>
<path d="M31.8706 41.8272C31.8706 41.8272 34.8887 40.1407 37.7292 39.6968L36.8777 61.4109C36.8565 61.9515 36.4678 62.4071 35.9373 62.5132L35.6348 62.5737C35.3439 62.6319 35.0745 62.4044 35.083 62.1079L35.3487 52.9421C35.3966 51.291 35.0958 49.6483 34.4661 48.1213L31.8706 41.8272Z" fill="#270937"/>
<path d="M44.2092 39.519C44.2092 39.519 48.6476 39.8741 51.2218 42.182L49.221 47.8315C48.5478 49.7324 48.2037 51.7341 48.2037 53.7506L47.7825 61.8945C47.7698 62.1398 47.5672 62.3322 47.3217 62.3322C46.7154 62.3322 46.2095 61.8694 46.1554 61.2656L44.2092 39.519Z" fill="#270937"/>
<path d="M39.2383 36.8565L39.1616 39.3853C39.1541 39.6354 39.3091 39.8607 39.5451 39.944C40.1917 40.172 41.5303 40.5188 42.7988 40.0646C43.0547 39.973 43.2087 39.711 43.1692 39.442L42.789 36.8564L39.2383 36.8565Z" fill="url(#paint12_linear_38_3909)"/>
<path d="M38.1729 32.2405C38.1729 32.2405 38.6168 36.7676 39.5932 37.9216C39.5932 37.9216 42.5226 38.1879 43.5877 37.5665C43.5877 37.5665 44.3423 35.3029 44.2535 32.2849C44.2535 32.2849 44.3989 29.5384 41.3686 29.3112C37.8179 29.0448 38.1729 32.2405 38.1729 32.2405Z" fill="url(#paint13_linear_38_3909)"/>
<path d="M43.9429 33.6602C43.9429 33.6602 44.2092 32.8613 44.653 32.8613C45.0968 32.8613 44.5642 34.9918 43.9429 34.9918V33.6602Z" fill="url(#paint14_linear_38_3909)"/>
<path d="M38.5769 33.8701C38.5769 33.8701 38.2053 33.1144 37.7656 33.1743C37.3258 33.2341 38.1408 35.2733 38.7565 35.1895L38.5769 33.8701Z" fill="url(#paint15_linear_38_3909)"/>
<path d="M38.4795 34.6283C38.4795 34.6283 38.579 37.3325 39.7684 38.704C39.8775 38.8299 40.0354 38.9031 40.2018 38.9111C40.8089 38.9403 42.3608 38.9925 43.2359 38.8181C43.4537 38.7747 43.633 38.6212 43.7047 38.411C43.9198 37.7803 44.2933 36.7857 44.1648 34.5034L43.4509 36.2045C42.9221 37.6102 42.635 35.9038 42.3895 35.9237H40.7917C40.6233 35.9373 40.4366 36.9889 39.8126 36.6808L38.4795 34.6283Z" fill="#270937"/>
<path d="M43.0551 31.1752C43.0551 31.1752 40.7935 33.5013 38.3293 33.4922C38.3293 33.4922 36.9302 29.755 39.682 29.1336C42.4338 28.5122 42.5225 29.3111 42.5225 29.3111C42.5225 29.3111 45.7403 28.5208 44.3089 33.088L43.0551 31.1752Z" fill="#270937"/>
<path d="M27.3656 67.5815H26.3567V73.383H27.3656V67.5815Z" fill="#434242"/>
<path d="M32.4103 67.5815H31.4014V73.383H32.4103V67.5815Z" fill="#434242"/>
<path d="M32.8674 68.0859C30.4794 68.4596 28.0913 68.4596 25.7033 68.0859C25.3101 67.7441 25.3351 67.3897 25.7033 67.0249C28.2097 67.2491 30.5921 67.2385 32.8674 67.0249C33.2356 67.3897 33.2606 67.7441 32.8674 68.0859Z" fill="#434242"/>
<path d="M26.6508 100.608C26.9862 100.608 27.2582 99.9712 27.2582 99.186C27.2582 98.4007 26.9862 97.7642 26.6508 97.7642C26.3154 97.7642 26.0435 98.4007 26.0435 99.186C26.0435 99.9712 26.3154 100.608 26.6508 100.608Z" fill="#434242"/>
<path d="M32.7045 100.734C33.04 100.734 33.3119 100.097 33.3119 99.312C33.3119 98.5267 33.04 97.8901 32.7045 97.8901C32.3691 97.8901 32.0972 98.5267 32.0972 99.312C32.0972 100.097 32.3691 100.734 32.7045 100.734Z" fill="#434242"/>
<path d="M35.2307 98.5476C32.1832 99.6452 28.415 99.5169 24.0927 98.4455C23.4589 98.2884 22.9931 97.748 22.9274 97.0983L20.8269 76.3261C20.6945 75.0172 21.6112 73.8351 22.9115 73.6349C27.2534 72.9664 31.7146 72.9527 36.3054 73.6509C37.5896 73.8462 38.4928 75.0185 38.3621 76.3109L36.2451 97.2462C36.1851 97.8389 35.7912 98.3458 35.2307 98.5476Z" fill="#270937"/>
<g opacity="0.58">
<path d="M35.6702 96.4852C35.6683 96.4852 35.6665 96.4851 35.6644 96.4849C35.6311 96.4818 35.6065 96.4522 35.6096 96.4188C35.9142 93.1662 36.3233 89.912 36.6844 87.0409C37.1728 83.1552 37.5948 79.7995 37.692 77.1938C37.7466 75.7315 36.6485 74.4513 35.1924 74.2793C32.6919 73.984 30.2984 74.045 28.1868 74.0988C27.6746 74.1118 27.1746 74.1246 26.6877 74.1321C26.6553 74.1314 26.6265 74.1058 26.626 74.0723C26.6255 74.0387 26.6522 74.0111 26.6858 74.0106C27.1724 74.0031 27.672 73.9904 28.1837 73.9773C30.2993 73.9236 32.6974 73.8625 35.2066 74.1587C36.7253 74.338 37.8703 75.6732 37.8135 77.1983C37.7161 79.8094 37.2938 83.1676 36.8049 87.0561C36.444 89.9263 36.035 93.1795 35.7306 96.4301C35.7277 96.4616 35.7012 96.4852 35.6702 96.4852Z" fill="#FDFDFF"/>
<path d="M29.264 67.6407C28.0715 67.6407 26.879 67.5358 25.695 67.3261C25.6619 67.3203 25.6399 67.2887 25.6457 67.2557C25.6516 67.2227 25.6833 67.2007 25.7161 67.2065C28.0703 67.6235 30.4575 67.6235 32.812 67.2065C32.8443 67.2007 32.8766 67.2226 32.8824 67.2557C32.8882 67.2887 32.8663 67.3203 32.8331 67.3261C31.649 67.5359 30.4566 67.6407 29.264 67.6407Z" fill="#FDFDFF"/>
</g>
<path d="M38.502 55.9386L44.5885 56.4213C44.6775 56.4283 44.7574 56.3669 44.7734 56.2791L45.5868 51.8128C45.5941 51.7728 45.5825 51.7318 45.5554 51.7015L45.0167 51.1006L38.502 55.9386Z" fill="#270937"/>
<path d="M37.5992 51.1006H45.0167L44.1206 55.7592C44.1005 55.8633 44.0094 55.9386 43.9033 55.9386H38.502L37.5153 51.2038C37.5042 51.1506 37.5448 51.1006 37.5992 51.1006Z" fill="#270937"/>
<path d="M41.5847 55.1513C42.1736 55.1513 42.6511 54.6739 42.6511 54.0849C42.6511 53.496 42.1736 53.0186 41.5847 53.0186C40.9957 53.0186 40.5183 53.496 40.5183 54.0849C40.5183 54.6739 40.9957 55.1513 41.5847 55.1513Z" fill="url(#paint16_linear_38_3909)"/>
<path d="M41.5846 55.2128C40.9631 55.2128 40.4575 54.7071 40.4575 54.0856C40.4575 53.4641 40.9631 52.9585 41.5846 52.9585C42.2062 52.9585 42.7117 53.4641 42.7117 54.0856C42.7117 54.7071 42.2062 55.2128 41.5846 55.2128ZM41.5846 53.08C41.0302 53.08 40.579 53.5312 40.579 54.0856C40.579 54.6402 41.0301 55.0913 41.5846 55.0913C42.1391 55.0913 42.5902 54.6402 42.5902 54.0856C42.5902 53.5312 42.1391 53.08 41.5846 53.08Z" fill="#91B3FA"/>
<path d="M39.2385 51.8594H38.3079V52.3988H39.2385V51.8594Z" fill="url(#paint17_linear_38_3909)"/>
<path d="M39.2385 52.4593H38.3078C38.2743 52.4593 38.2471 52.4322 38.2471 52.3986V51.8591C38.2471 51.8255 38.2742 51.7983 38.3078 51.7983H39.2385C39.2721 51.7983 39.2993 51.8255 39.2993 51.8591V52.3986C39.2993 52.4322 39.2721 52.4593 39.2385 52.4593ZM38.3686 52.3378H39.1778V51.9199H38.3686V52.3378Z" fill="white"/>
<path d="M43.3493 51.749H40.2083V52.0237H43.3493V51.749Z" fill="url(#paint18_linear_38_3909)"/>
<path d="M43.349 52.0852H40.208C40.1744 52.0852 40.1472 52.058 40.1472 52.0244V51.7497C40.1472 51.7162 40.1744 51.689 40.208 51.689H43.349C43.3826 51.689 43.4098 51.7161 43.4098 51.7497V52.0244C43.4098 52.058 43.3826 52.0852 43.349 52.0852ZM40.2687 51.9637H43.2883V51.8105H40.2687V51.9637Z" fill="#F6F9FF"/>
<path d="M37.4937 51.1008L39.1614 39.3853L37.9735 51.1895L37.4937 51.1008Z" fill="#270937"/>
<path d="M43.1401 39.2466L45.5982 51.7494L45.0165 51.1005L43.1401 39.2466Z" fill="#270937"/>
<path d="M43.3213 55.941C43.3213 55.941 48.381 58.7816 49.6238 55.1421C50.8665 51.5027 48.5585 49.1948 48.5585 49.1948L51.2216 42.1821C51.2216 42.1821 56.2813 51.5027 52.7306 57.1838C49.4039 62.5065 43.4989 57.6276 43.4989 57.6276L43.3213 55.941Z" fill="#270937"/>
<path d="M43.8541 55.9412C43.8541 55.9412 41.5461 54.5209 40.1259 55.4086C40.1259 55.4086 39.8596 56.4738 40.6585 56.9176C40.6585 56.9176 42.0788 57.8941 43.2327 57.3614C44.3867 56.8288 43.8541 55.9412 43.8541 55.9412Z" fill="url(#paint19_linear_38_3909)"/>
<path d="M29.2068 60.2406C29.1646 56.293 29.184 51.1841 29.5094 49.0235C30.0747 45.2698 31.8704 41.8276 31.8704 41.8276C37.5134 42.3838 33.2411 54.3103 33.2411 54.3103L31.7577 60.552C31.1783 60.3219 30.3185 60.1208 29.2068 60.2406Z" fill="#270937"/>
<path d="M29.2067 60.2403C30.3185 60.1205 31.1782 60.3217 31.7577 60.5518L30.5536 65.6187C30.5536 65.6187 30.9322 68.3335 30.7237 68.6448C30.5153 68.956 28.7251 68.9362 28.7013 68.4404C28.6776 67.9447 29.3023 65.4303 29.3023 65.4303C29.3023 65.4303 29.2378 63.1509 29.2067 60.2403Z" fill="url(#paint20_linear_38_3909)"/>
<path fill-rule="evenodd" clip-rule="evenodd" d="M59.2298 91.6606L59.3897 92.0532L59.3248 93.4665C59.3157 93.6652 59.1555 93.8319 58.9395 93.8652C58.6446 93.9107 58.2158 93.9567 57.8124 93.9255C57.4965 93.9011 57.2986 93.6044 57.4223 93.3395L57.898 92.3201C57.9692 92.1676 58.0992 92.0505 58.2583 91.9957L59.2298 91.6606Z" fill="#383838"/>
<path fill-rule="evenodd" clip-rule="evenodd" d="M59.7278 78.8457C59.7278 78.8457 59.7278 89.0943 59.2454 91.981C59.2207 92.1292 59.1077 92.2483 58.9596 92.2734C58.8244 92.2963 58.6396 92.2911 58.4189 92.1933C58.3079 92.1441 58.2341 92.0354 58.2192 91.9149L56.8562 79.0252L59.7278 78.8457Z" fill="url(#paint21_linear_38_3909)"/>
<path fill-rule="evenodd" clip-rule="evenodd" d="M60.9435 91.6606L60.7836 92.0532L60.6689 93.4665C60.678 93.6652 60.8383 93.8319 61.0543 93.8652C61.3492 93.9107 61.9574 93.9567 62.3609 93.9255C62.6767 93.9011 62.8746 93.6044 62.751 93.3395L62.2752 92.3201C62.2041 92.1676 62.074 92.0505 61.9149 91.9957L60.9435 91.6606Z" fill="#383838"/>
<path fill-rule="evenodd" clip-rule="evenodd" d="M60.4458 78.8457C60.4458 78.8457 60.4458 89.2295 60.9399 92.0496C60.9561 92.1421 61.0211 92.2198 61.1107 92.2484C61.2544 92.2942 61.496 92.3219 61.8019 92.1712C61.8814 92.1321 61.937 92.0552 61.9479 91.9672L63.3174 79.0252L60.4458 78.8457Z" fill="url(#paint22_linear_38_3909)"/>
<path d="M55.6037 58.562C54.1834 61.8464 54.3086 71.1082 56.3138 80.3987C56.3138 80.3987 61.2848 80.8426 63.6815 80.3987C63.6815 80.3987 66.9659 61.225 63.504 58.562H55.6037Z" fill="#474545"/>
<path d="M65.9005 46.2234C65.9005 46.2234 64.0364 43.1165 60.1307 42.2289L58.0891 42.1401C58.0891 42.1401 55.1597 43.5604 53.917 46.2234L55.5148 53.0585L55.6035 58.562C55.6035 58.562 60.3082 59.6272 63.5038 58.562L64.214 51.8157L65.9005 46.2234Z" fill="url(#paint23_linear_38_3909)"/>
<path d="M65.9008 46.2236C66.9177 49.3507 67.8517 52.3936 67.839 54.4771L69.8236 48.6621L71.1225 48.1052L68.0491 59.0357C66.4294 56.7038 65.2436 53.9201 64.5844 50.588C64.4599 48.957 64.8823 47.4971 65.9008 46.2236Z" fill="url(#paint24_linear_38_3909)"/>
<path d="M53.9173 46.2236L44.6165 56.7404L45.8289 56.7247L54.9254 50.5364C54.9333 48.9572 54.6847 47.4836 53.9173 46.2236Z" fill="url(#paint25_linear_38_3909)"/>
<path d="M57.9119 39.6548V43.0187C57.9119 43.2908 58.11 43.5224 58.3791 43.5629C58.8249 43.63 59.5142 43.6819 60.1059 43.504C60.3785 43.422 60.5466 43.1492 60.492 42.8698L59.8647 39.6548L57.9119 39.6548Z" fill="url(#paint26_linear_38_3909)"/>
<path d="M56.6689 34.7282C56.6689 34.7282 54.5384 40.4093 57.2458 41.0992C60.4322 41.9111 61.5067 37.702 61.5067 37.702C61.5067 37.702 58.7105 29.6685 56.6689 34.7282Z" fill="url(#paint27_linear_38_3909)"/>
<path d="M56.6689 34.7282C56.6689 34.7282 54.5384 40.4093 57.2458 41.0992C60.4322 41.9111 61.5067 37.702 61.5067 37.702C61.5067 37.702 58.7105 29.6685 56.6689 34.7282Z" fill="#FCE4CC" fill-opacity="0.2"/>
<path d="M62.3609 35.0457C62.3609 35.0457 61.2103 32.8289 62.1364 31.9153C63.0626 31.0016 64.7888 31.4044 65.0338 33.2254C65.2788 35.0464 62.9225 37.0271 62.3609 35.0457Z" fill="#270937"/>
<path d="M55.8054 34.2577C55.6771 34.7244 56.0963 35.158 56.5681 35.0495C57.043 34.9402 57.6274 34.8417 58.1335 34.8614C61.551 34.9945 60.2195 37.2137 60.2195 37.5687C60.2195 38.2949 60.9332 37.1907 60.974 37.4356C61.0628 37.9682 60.6473 39.5841 60.6473 39.5841C60.6473 39.5841 62.8381 39.1222 63.5483 38.0569C64.2584 36.9918 63.4595 34.595 63.1932 33.7074C62.9269 32.8197 61.1516 31.932 60.1751 32.0208C59.3021 32.1002 56.5135 31.6829 55.8054 34.2577Z" fill="#270937"/>
<path d="M60.53 38.0569C60.53 38.0569 60.7963 36.7255 61.5065 36.9918C62.2166 37.2581 60.9739 38.7671 60.53 39.0334V38.0569Z" fill="url(#paint28_linear_38_3909)"/>
<path d="M73.822 68.774L67.1679 65.4118L60.069 68.0844L52.1437 65.7417L45.4053 68.5098L44.8745 49.4853L51.5884 45.3459L59.6082 49.4525L67.1679 44.2354L74.5064 49.3338L73.822 68.774Z" fill="white"/>
<path d="M51.5053 45.7938L59.4396 49.9061L67.0681 44.8115L74.2168 49.3174L73.507 68.345L67.1679 64.7905L60.13 67.694L52.1437 65.2434L45.7283 68.0843L45.4053 49.4649L51.5053 45.7938Z" fill="#BDD0FB"/>
<path d="M59.4392 49.9061L60.1296 67.694L67.1675 64.7905L67.0677 44.8115L59.4392 49.9061Z" fill="#91B3FA"/>
<path d="M61.7775 59.3824C61.7408 59.6599 61.7109 59.9383 61.6879 60.2173C61.6824 60.2839 61.6958 60.3744 61.7623 60.3809C61.8023 60.3848 61.8356 60.3523 61.8626 60.3225C61.9771 60.1958 62.1002 60.0325 62.0447 59.871C62.0241 59.8108 61.9802 59.7603 61.9633 59.699C61.9379 59.6069 61.9777 59.5088 61.9675 59.4138C61.9572 59.3188 61.8392 59.2253 61.773 59.2943L61.7775 59.3824Z" fill="#7D97F4"/>
<path d="M54.4186 55.046C54.4305 54.9622 54.4203 54.8775 54.381 54.8004C54.3146 54.6701 54.1789 54.5863 54.0375 54.5488C53.8962 54.5112 53.7478 54.514 53.6016 54.517C53.4659 54.5197 53.3302 54.5225 53.1945 54.5253C53.1544 54.5261 53.1131 54.5272 53.0764 54.5432C53.0244 54.5659 52.9892 54.6149 52.961 54.6641C52.8703 54.8226 52.8255 55.0071 52.8336 55.1896C52.6547 55.2504 52.4811 55.0856 52.3835 54.9239C52.2709 54.7371 52.1899 54.5314 52.1451 54.318C52.1278 54.2356 52.1172 54.1443 52.1599 54.0717C52.1834 54.0316 52.2208 54.0018 52.2584 53.9747C52.4104 53.8653 52.5856 53.7826 52.7718 53.7629C53.0897 53.7293 53.3987 53.881 53.6594 54.0668C53.9097 54.2453 54.3179 54.4589 54.5988 54.2024C54.7438 54.0699 54.7464 53.8289 54.6454 53.6605C54.4813 53.387 54.0629 53.2439 53.7902 53.1058C53.6626 53.0411 53.5807 52.908 53.5445 52.7697C53.5082 52.6313 53.5116 52.486 53.5153 52.343C53.8927 52.194 54.3361 52.2231 54.6907 52.4203C54.741 52.4483 54.7947 52.4872 54.8006 52.5445C54.8067 52.6033 54.7602 52.6524 54.7235 52.6989C54.1937 53.3689 55.2968 53.8296 55.7702 53.9913C55.9631 54.0572 56.1472 54.1656 56.3534 54.1251C56.5448 54.0874 56.7169 53.8786 56.9152 53.8254C57.0589 53.7868 57.2123 53.8071 57.358 53.7778C57.5038 53.7485 57.6559 53.6392 57.6498 53.4907C57.6449 53.3697 57.5385 53.2786 57.4327 53.2197C57.4327 53.2313 57.2494 53.0863 57.232 53.0549C57.072 52.7449 57.3046 52.4719 57.3937 52.2044C57.5225 51.817 57.3317 51.5892 57.7281 51.3747C57.8124 51.3291 57.8787 51.2157 57.8203 51.1396C57.7678 51.0711 57.6634 51.0884 57.5771 51.0889C57.3013 51.0907 57.0822 50.8582 56.8171 50.7822C56.6782 50.7423 56.5311 50.7468 56.3866 50.7447C55.7014 50.7346 55.0191 50.5651 54.4088 50.2533C53.9584 50.0232 53.675 49.992 53.19 50.0431C52.7326 50.0912 52.4235 50.3133 52.1094 50.6299C52.0379 50.702 51.9685 50.7808 51.8759 50.8221C51.4877 50.9953 50.9955 50.9604 50.5991 51.1314C50.1273 51.3349 49.9942 51.9679 49.5632 52.2478C49.3138 52.4098 48.9995 52.4303 48.7256 52.5462C48.3201 52.7178 48.1331 53.0743 47.9028 53.4213C47.7612 53.6346 47.2397 54.0002 47.2693 54.2497C47.2747 54.2951 47.2944 54.3378 47.3191 54.3763C47.4627 54.6001 47.6771 54.6236 47.9034 54.6876C48.2024 54.772 48.3827 54.9017 48.6473 55.0825C48.9232 55.2712 49.2985 55.4361 49.3224 55.7694C49.3334 55.9241 49.2587 56.0703 49.2222 56.221C49.0575 56.9007 49.6688 57.5113 50.2639 57.8789C50.8589 58.2465 51.561 58.6097 51.7502 59.283C51.7675 59.3443 51.782 59.4109 51.8282 59.4548C52.0019 59.62 52.1319 59.2464 52.1846 59.1276C52.2185 59.0511 52.1878 58.9593 52.1348 58.8945C52.0819 58.8297 52.0096 58.7843 51.9445 58.7318C51.7247 58.5546 51.5822 58.2849 51.5597 58.0035C51.5568 57.9677 51.5565 57.929 51.5768 57.8994C51.6799 57.7484 51.937 57.6865 52.0631 57.5036C52.2435 57.242 52.2847 56.9938 52.3154 56.6833C52.4282 55.5426 53.5026 55.9464 54.177 55.4405C54.3027 55.3464 54.397 55.1978 54.4186 55.046Z" fill="#7D97F4"/>
<path d="M52.4635 60.9499C52.5326 61.0904 52.5892 61.2231 52.6042 61.3361C52.6697 61.8275 52.2465 62.4321 52.0666 62.8808C52.0166 63.0055 51.9656 63.1383 51.9881 63.2708C51.9976 63.3266 52.0199 63.3793 52.042 63.4315C52.2054 63.8162 52.5263 64.1644 52.8115 64.4611C52.909 64.2068 52.9018 63.5959 52.875 63.3249C52.8662 63.2356 52.8508 63.142 52.8837 63.0584C52.9893 62.7905 53.3329 62.4217 53.5699 62.2619C53.8022 62.1052 54.1074 61.9794 54.1676 61.7058C54.1908 61.6006 54.1713 61.4879 54.2054 61.3857C54.2258 61.3244 54.2642 61.2711 54.2948 61.2142C54.4451 60.9349 54.5303 60.3958 54.2295 60.1975C53.8932 59.9757 53.4172 60.3005 53.1287 59.9388C53.0852 59.8842 53.0528 59.8207 53.0032 59.7715C52.9113 59.6802 52.7701 59.6513 52.6423 59.6727C51.7918 59.8151 52.2107 60.4351 52.4635 60.9499Z" fill="#7D97F4"/>
<path d="M57.8044 56.8906C58.0729 57.0623 58.5366 56.6855 58.707 56.245C58.7284 56.1898 58.7481 56.1322 58.7872 56.0879C58.8668 55.9975 59.0036 55.9859 59.1228 56.0026C59.2421 56.0192 59.3609 56.0575 59.4803 56.0422C59.6517 56.0202 59.7932 55.8887 59.8732 55.7356C59.9532 55.5825 59.982 55.4086 60.0097 55.2381C60.1364 55.2069 60.2735 55.2189 60.3928 55.2718C60.485 55.3126 60.576 55.4026 60.5503 55.5001C60.5385 55.5449 60.5043 55.5796 60.4721 55.6129C60.3716 55.7169 60.2779 55.8275 60.1919 55.9438C60.1389 56.0155 60.0868 56.1091 60.1267 56.1889C60.2351 56.4065 60.4335 56.2934 60.3765 56.6045C60.3048 56.9943 59.7752 57.1537 60.0777 57.6193C60.1884 57.7897 60.3898 57.8916 60.5928 57.9009C60.7384 57.9074 60.9178 57.832 60.9197 57.6862C60.9202 57.643 60.9043 57.5985 60.9178 57.5575C60.9354 57.5041 60.9959 57.478 61.0515 57.4695C61.2334 57.4418 61.4092 57.5331 61.5771 57.6085C61.6277 57.6312 61.6883 57.6524 61.7364 57.6248C61.8934 57.5348 61.8202 57.4606 62.0336 57.4407C62.2155 57.4237 62.4284 57.564 62.5315 57.7027C62.5563 57.736 62.5787 57.779 62.563 57.8175C62.5494 57.8509 62.5116 57.8681 62.4926 57.8988C62.4612 57.9493 62.4928 58.0192 62.5423 58.0522C62.5918 58.0852 62.6533 58.0925 62.7116 58.1045C62.985 58.1607 62.9914 58.4214 63.1846 58.5515C63.3415 58.657 63.741 58.6779 63.7057 58.3741C63.6928 58.2631 63.5813 58.1718 63.5997 58.0615C63.6157 57.9644 63.7248 57.9128 63.8224 57.9004C63.92 57.888 64.0242 57.8973 64.1115 57.8518C64.1696 57.8215 64.2135 57.77 64.2666 57.7314C64.5929 57.4939 65.3658 57.6957 65.6161 57.962C65.8501 58.2108 65.8763 58.6396 66.1773 58.8008C66.1422 58.4702 65.9753 58.1554 65.7214 57.9407C65.6747 57.9012 65.6234 57.8626 65.5989 57.8066C65.5783 57.7595 65.5795 57.7062 65.5821 57.6549C65.5955 57.393 65.6468 57.1492 65.7183 56.9047C65.7098 56.9339 65.9094 56.4028 65.7658 56.5033C66.0227 56.3235 66.5834 56.0281 66.9053 56.0473C67.0729 56.0573 67.2384 56.1543 67.3088 56.3068C67.3791 56.4593 67.3367 56.662 67.1981 56.7569C67.0655 56.8477 66.8814 56.8303 66.7466 56.9179C66.6169 57.0024 66.5614 57.1846 66.6222 57.327C66.7067 57.2105 66.8343 57.1262 66.9745 57.0941C67.1627 57.0511 67.3765 57.0964 67.539 56.9922C67.6589 56.9153 67.7218 56.7684 67.7233 56.626C67.7248 56.4835 67.672 56.3454 67.6015 56.2216C67.5505 56.1321 67.489 56.0464 67.4617 55.9471C67.4179 55.7878 67.4698 55.6144 67.562 55.4773C67.9047 54.9676 68.5391 54.7473 69.126 54.9347C69.1651 54.9472 69.2068 54.9639 69.2271 54.9996C69.2566 55.0512 69.2282 55.1172 69.2407 55.1754C69.2604 55.267 69.4002 55.3017 69.4604 55.2299C69.5021 55.1803 69.4995 55.1086 69.5153 55.0458C69.5562 54.8824 69.7228 54.7824 69.8847 54.7358C70.0826 54.6788 70.6145 54.4158 70.6691 54.7635C70.6739 54.794 70.6729 54.8261 70.6861 54.8539C70.7232 54.9323 70.8475 54.9211 70.9066 54.8576C71.0285 54.7268 71.0499 54.5118 71.168 54.3656C71.2725 54.2362 71.4268 54.1587 71.5142 54.0143C71.7309 53.6564 71.5659 53.1886 71.1889 53.0153C70.8277 52.8492 70.4074 52.9229 70.0162 52.9932C69.7468 53.0416 68.8217 53.2273 68.7558 52.7909C68.7504 52.7552 68.7516 52.7171 68.7342 52.6853C68.7128 52.646 68.6679 52.6254 68.6406 52.5899C68.6057 52.5446 68.6043 52.4827 68.5855 52.4287C68.5173 52.2327 68.2601 52.1967 68.0524 52.1943C68.0734 52.0727 68.0848 51.9246 67.987 51.8493C67.9317 51.8068 67.8571 51.8021 67.7874 51.7991C67.6064 51.7914 67.1698 51.8564 67.0197 51.7504C66.8209 51.6101 66.9578 51.3711 66.8712 51.1776C66.7791 50.9721 66.4366 50.9436 66.3985 50.7216C66.3903 50.6736 66.3992 50.6241 66.3935 50.5757C66.3795 50.4578 66.2834 50.3689 66.1935 50.2912C66.0306 50.1504 65.846 50.0015 65.6308 50.007C65.5903 50.039 65.6266 50.1061 65.6723 50.1301C65.7179 50.1542 65.7762 50.1666 65.7993 50.2127C65.8436 50.3012 65.7166 50.3738 65.6194 50.3923C65.6147 50.5216 65.7446 50.6072 65.845 50.6887C66.0146 50.8265 66.1351 51.0234 66.1805 51.2371C65.8383 51.2986 65.4878 51.313 65.1418 51.2798C64.7249 51.2398 64.4571 51.9015 63.963 51.7181C63.89 51.691 63.8247 51.6424 63.7482 51.6279C63.5559 51.5915 63.4009 51.7737 63.2281 51.8656C62.9649 52.0055 62.6421 51.933 62.3601 51.8366C62.023 51.7216 61.6132 51.5563 61.2735 51.7548C61.1465 51.8291 61.045 51.9445 60.9106 52.0042C60.6285 52.1295 60.3083 51.9757 60.0011 51.9462C59.2429 51.8735 58.7867 52.6153 58.5404 53.2331C58.503 53.3269 58.4695 53.4254 58.4744 53.5262C58.4793 53.627 58.5305 53.7314 58.6225 53.7729C58.7588 53.8344 58.9172 53.7367 59.0062 53.6165C59.0953 53.4963 59.1493 53.3493 59.2582 53.2468C59.3671 53.1443 59.5672 53.1113 59.6532 53.2336C59.6955 53.2939 59.6972 53.3727 59.6974 53.4463C59.6977 53.586 59.698 53.7258 59.6983 53.8655C59.6984 53.9424 59.6981 54.0219 59.6668 54.0922C59.6147 54.2094 59.4903 54.2742 59.3748 54.3301C59.1239 54.4516 58.873 54.573 58.6221 54.6944C58.5374 54.7355 58.4517 54.7771 58.3798 54.8378C58.052 55.1144 58.2722 55.4973 58.0194 55.7636C57.9173 55.8712 57.748 55.9035 57.6643 56.0259C57.6024 56.1163 57.6027 56.234 57.6053 56.3435C57.6124 56.6479 57.6911 56.8181 57.8044 56.8906Z" fill="#7D97F4"/>
<path d="M66.5523 59.2152C66.4507 59.3989 66.4647 59.639 66.2351 59.7404C66.0824 59.8078 65.8869 59.777 65.7625 59.8884C65.6206 60.0155 65.6577 60.2408 65.6851 60.4293C65.69 60.4631 65.694 60.499 65.6802 60.5302C65.6436 60.613 65.5125 60.6108 65.4676 60.6892C65.429 60.7566 65.4768 60.8414 65.5343 60.8935C65.7097 61.0522 65.9947 61.073 66.1912 60.9414C66.2435 60.9064 66.3002 60.8596 66.3613 60.8747C66.4326 60.8921 66.4565 60.9787 66.4758 61.0495C66.5171 61.2003 66.5984 61.3452 66.7271 61.4341C67.1317 61.7138 67.7008 61.3734 68.1502 61.7681C68.2054 61.8165 68.2579 61.8741 68.274 61.9458C68.2914 62.0233 68.2654 62.1122 68.3089 62.1786C68.3634 62.2617 68.4976 62.2504 68.571 62.1834C68.6443 62.1163 68.6738 62.0153 68.7044 61.9207C68.7351 61.8262 68.7753 61.7262 68.8595 61.6734C69.0014 61.5844 69.1632 61.6184 69.2418 61.4374C69.3397 61.2066 69.0474 61.0153 69.1402 60.805C69.1816 60.711 69.2479 60.6085 69.2063 60.5147C69.1852 60.467 69.1404 60.4351 69.1034 60.3982C68.9302 60.2251 68.9007 60.0622 68.67 59.9566C68.5228 59.8892 68.2178 59.9764 68.1573 59.7308C68.1416 59.6668 68.1641 59.5865 68.1148 59.5429C68.0868 59.5181 68.0459 59.5164 68.0085 59.5166C67.7504 59.5175 67.4433 59.5214 67.2962 59.3092C67.1336 59.0747 67.1145 58.9057 66.7843 59.0221C66.6641 59.0644 66.597 59.1343 66.5523 59.2152Z" fill="#7D97F4"/>
<path d="M58.8564 57.9249C58.8026 57.9995 58.7723 58.0895 58.7155 58.1619C58.5559 58.3657 58.4866 58.1855 58.3061 58.2541C58.2438 58.2779 58.1887 58.3201 58.1237 58.335C57.9923 58.3653 57.8619 58.2776 57.7271 58.277C57.2079 58.275 57.4804 59.1096 57.7318 59.2697C57.7783 59.2993 57.837 59.2997 57.8921 59.2992C58.0633 59.2975 58.2345 59.2959 58.4057 59.2942C58.4545 59.2937 58.5068 59.2942 58.547 59.3219C58.6708 59.407 58.5529 59.6175 58.6273 59.748C58.6784 59.8376 58.7972 59.8542 58.8987 59.8726C59.1133 59.9116 59.1603 60.1451 59.2916 60.2892C59.4605 60.4744 59.6216 60.5491 59.7168 60.8179C59.7733 60.9776 59.7929 61.1503 59.8675 61.3024C60.0208 61.6151 60.4185 61.7836 60.7498 61.6762C61.0811 61.5689 61.3044 61.1992 61.2452 60.8559C61.2106 60.6554 61.0951 60.4798 61.015 60.2928C60.8528 59.9146 60.9625 59.454 61.4118 59.3818C61.5252 59.3636 61.6692 59.3572 61.7116 59.2505C61.7725 59.0966 61.5373 58.9167 61.6348 58.7829C61.6699 58.7348 61.7379 58.7176 61.7688 58.6666C61.8102 58.5981 61.763 58.5095 61.7053 58.454C61.6475 58.3986 61.5746 58.3506 61.5507 58.2741C61.4164 57.8435 60.9752 58.1126 60.6807 58.1694C60.4181 58.22 60.2684 58.1871 60.0498 58.0608C59.7114 57.8652 59.1988 57.45 58.8564 57.9249Z" fill="#7D97F4"/>
<path d="M59.9753 51.1912C60.0141 51.1187 60.109 51.1018 60.191 51.0962C60.4735 51.077 60.7586 51.0955 61.0364 51.1508C60.8064 51.3316 60.5497 51.5217 60.2574 51.5119C60.1248 51.5074 59.9872 51.4617 59.8631 51.5087C59.8341 51.4213 59.8501 51.3202 59.9048 51.2461L59.9753 51.1912Z" fill="#7D97F4"/>
<path d="M56.7083 54.5156C56.9967 54.7438 58.0139 54.4393 57.5393 54.1447C57.4627 54.0971 57.3707 54.0825 57.2815 54.0689C57.1616 54.0505 57.0386 54.0322 56.9198 54.0568C56.801 54.0814 56.6854 54.1583 56.6498 54.2743C56.6154 54.3858 56.6434 54.4642 56.7083 54.5156Z" fill="#7D97F4"/>
<path d="M69.2711 52.5081C69.4495 52.6645 69.6993 52.703 69.9343 52.735C70.0516 52.751 70.2052 52.7467 70.2457 52.6354C70.2884 52.5181 70.1505 52.4097 70.0264 52.3961C69.9023 52.3825 69.7705 52.4154 69.6555 52.3667C69.5535 52.3235 69.4732 52.2193 69.3624 52.2202C69.2335 52.2213 69.1555 52.4095 69.2458 52.5015L69.2711 52.5081Z" fill="#7D97F4"/>
<path d="M45.7283 68.0839L45.4053 49.4645L51.5053 45.7935L52.1437 65.2431L45.7283 68.0839Z" fill="#91B3FA"/>
<path d="M51.5683 45.7948L51.4468 45.7988L52.0851 65.2492L52.2066 65.2452L51.5683 45.7948Z" fill="white"/>
<path d="M67.13 44.8114L67.0085 44.812L67.1084 64.7912L67.2299 64.7906L67.13 44.8114Z" fill="white"/>
<path d="M44.275 57.1508C44.275 57.1508 43.6043 58.6778 44.9406 59.2505C46.277 59.8232 46.2964 58.9493 45.9365 58.5151C45.5767 58.0809 45.5307 57.9914 45.3583 57.3157C45.186 56.6399 45.0555 56.283 45.0555 56.283C45.0555 56.283 44.9384 56.0032 44.275 57.1508Z" fill="url(#paint29_linear_38_3909)"/>
<path d="M72.4353 46.8198C72.4353 46.8198 73.5557 47.6328 72.8477 49.0252C72.1397 50.4176 71.6106 50.3857 71.6085 49.7798C71.6064 49.1739 71.6098 49.1637 71.2868 48.4876C70.9637 47.8116 70.8 46.6801 70.8 46.6801C70.8 46.6801 71.2528 46.2228 72.4353 46.8198Z" fill="url(#paint30_linear_38_3909)"/>
<defs>
<linearGradient id="paint0_linear_38_3909" x1="112.103" y1="127.879" x2="24.2454" y2="18.7657" gradientUnits="userSpaceOnUse">
<stop stop-color="#DAE3FE"/>
<stop offset="1" stop-color="#E9EFFD"/>
</linearGradient>
<linearGradient id="paint1_linear_38_3909" x1="52.9445" y1="77.4334" x2="93.9989" y2="77.4334" gradientUnits="userSpaceOnUse">
<stop stop-color="#DAE3FE"/>
<stop offset="1" stop-color="#E9EFFD"/>
</linearGradient>
<linearGradient id="paint2_linear_38_3909" x1="51.3034" y1="19.0864" x2="51.3034" y2="20.9386" gradientUnits="userSpaceOnUse">
<stop stop-color="#18376B"/>
<stop offset="1" stop-color="#7FA0F0"/>
</linearGradient>
<linearGradient id="paint3_linear_38_3909" x1="51.1979" y1="17" x2="51.1979" y2="25.3193" gradientUnits="userSpaceOnUse">
<stop stop-color="#18376B"/>
<stop offset="1" stop-color="#7FA0F0"/>
</linearGradient>
<linearGradient id="paint4_linear_38_3909" x1="60.1396" y1="19.4697" x2="60.1396" y2="24.4983" gradientUnits="userSpaceOnUse">
<stop stop-color="#18376B"/>
<stop offset="1" stop-color="#7FA0F0"/>
</linearGradient>
<linearGradient id="paint5_linear_38_3909" x1="59.8371" y1="23.6289" x2="59.8371" y2="26.3087" gradientUnits="userSpaceOnUse">
<stop stop-color="#18376B"/>
<stop offset="1" stop-color="#7FA0F0"/>
</linearGradient>
<linearGradient id="paint6_linear_38_3909" x1="49.9125" y1="22.6484" x2="49.9125" y2="25.929" gradientUnits="userSpaceOnUse">
<stop stop-color="#18376B"/>
<stop offset="1" stop-color="#7FA0F0"/>
</linearGradient>
<linearGradient id="paint7_linear_38_3909" x1="51.7182" y1="21.6768" x2="51.7182" y2="28.0086" gradientUnits="userSpaceOnUse">
<stop stop-color="#18376B"/>
<stop offset="1" stop-color="#7FA0F0"/>
</linearGradient>
<linearGradient id="paint8_linear_38_3909" x1="48.4727" y1="22.8828" x2="48.4727" y2="24.9246" gradientUnits="userSpaceOnUse">
<stop stop-color="#18376B"/>
<stop offset="1" stop-color="#7FA0F0"/>
</linearGradient>
<linearGradient id="paint9_linear_38_3909" x1="62.4392" y1="21.2192" x2="62.4392" y2="24.1097" gradientUnits="userSpaceOnUse">
<stop stop-color="#18376B"/>
<stop offset="1" stop-color="#7FA0F0"/>
</linearGradient>
<linearGradient id="paint10_linear_38_3909" x1="80.4235" y1="6.43947" x2="37.2314" y2="56.1923" gradientUnits="userSpaceOnUse">
<stop stop-color="#FF928E"/>
<stop offset="1" stop-color="#FE7062"/>
</linearGradient>
<linearGradient id="paint11_linear_38_3909" x1="41.5461" y1="39.2471" x2="41.5461" y2="61.7113" gradientUnits="userSpaceOnUse">
<stop stop-color="#FCE4CC"/>
<stop offset="1" stop-color="#C68F34"/>
</linearGradient>
<linearGradient id="paint12_linear_38_3909" x1="40.6106" y1="43.3084" x2="41.2105" y2="38.1766" gradientUnits="userSpaceOnUse">
<stop stop-color="#FEBBBA"/>
<stop offset="1" stop-color="#FF928E"/>
</linearGradient>
<linearGradient id="paint13_linear_38_3909" x1="41.3977" y1="37.5641" x2="41.1682" y2="30.9523" gradientUnits="userSpaceOnUse">
<stop stop-color="#FEBBBA"/>
<stop offset="1" stop-color="#FF928E"/>
</linearGradient>
<linearGradient id="paint14_linear_38_3909" x1="44.4966" y1="37.4561" x2="44.2671" y2="30.8442" gradientUnits="userSpaceOnUse">
<stop stop-color="#FEBBBA"/>
<stop offset="1" stop-color="#FF928E"/>
</linearGradient>
<linearGradient id="paint15_linear_38_3909" x1="38.3153" y1="37.6706" x2="38.0858" y2="31.0588" gradientUnits="userSpaceOnUse">
<stop stop-color="#FEBBBA"/>
<stop offset="1" stop-color="#FF928E"/>
</linearGradient>
<linearGradient id="paint16_linear_38_3909" x1="40.5183" y1="54.0849" x2="42.6511" y2="54.0849" gradientUnits="userSpaceOnUse">
<stop stop-color="#42639A"/>
<stop offset="1" stop-color="#18376B"/>
</linearGradient>
<linearGradient id="paint17_linear_38_3909" x1="38.3079" y1="52.1291" x2="39.2385" y2="52.1291" gradientUnits="userSpaceOnUse">
<stop stop-color="#42639A"/>
<stop offset="1" stop-color="#18376B"/>
</linearGradient>
<linearGradient id="paint18_linear_38_3909" x1="40.2083" y1="51.8864" x2="43.3493" y2="51.8864" gradientUnits="userSpaceOnUse">
<stop stop-color="#42639A"/>
<stop offset="1" stop-color="#18376B"/>
</linearGradient>
<linearGradient id="paint19_linear_38_3909" x1="43.4079" y1="55.5169" x2="38.9839" y2="57.7289" gradientUnits="userSpaceOnUse">
<stop stop-color="#FEBBBA"/>
<stop offset="1" stop-color="#FF928E"/>
</linearGradient>
<linearGradient id="paint20_linear_38_3909" x1="27.5292" y1="46.5951" x2="35.3447" y2="98.4153" gradientUnits="userSpaceOnUse">
<stop stop-color="#FEBBBA"/>
<stop offset="1" stop-color="#FF928E"/>
</linearGradient>
<linearGradient id="paint21_linear_38_3909" x1="63.6073" y1="91.2638" x2="52.8745" y2="77.7364" gradientUnits="userSpaceOnUse">
<stop stop-color="#FEBBBA"/>
<stop offset="1" stop-color="#FF928E"/>
</linearGradient>
<linearGradient id="paint22_linear_38_3909" x1="58.4887" y1="87.9312" x2="69.181" y2="78.13" gradientUnits="userSpaceOnUse">
<stop stop-color="#FEBBBA"/>
<stop offset="1" stop-color="#FF928E"/>
</linearGradient>
<linearGradient id="paint23_linear_38_3909" x1="59.9088" y1="42.1401" x2="59.9088" y2="59.0355" gradientUnits="userSpaceOnUse">
<stop stop-color="#FCE4CC"/>
<stop offset="1" stop-color="#C68F34"/>
</linearGradient>
<linearGradient id="paint24_linear_38_3909" x1="69.1464" y1="26.9998" x2="68.5794" y2="36.558" gradientUnits="userSpaceOnUse">
<stop stop-color="#FF928E"/>
<stop offset="1" stop-color="#FE7062"/>
</linearGradient>
<linearGradient id="paint25_linear_38_3909" x1="51.4136" y1="25.9479" x2="50.8466" y2="35.5061" gradientUnits="userSpaceOnUse">
<stop stop-color="#FF928E"/>
<stop offset="1" stop-color="#FE7062"/>
</linearGradient>
<linearGradient id="paint26_linear_38_3909" x1="56.8151" y1="48.2635" x2="59.9077" y2="39.3391" gradientUnits="userSpaceOnUse">
<stop stop-color="#FEBBBA"/>
<stop offset="1" stop-color="#FF928E"/>
</linearGradient>
<linearGradient id="paint27_linear_38_3909" x1="55.6686" y1="40.8705" x2="61.9099" y2="32.8033" gradientUnits="userSpaceOnUse">
<stop stop-color="#FEBBBA"/>
<stop offset="1" stop-color="#FF928E"/>
</linearGradient>
<linearGradient id="paint28_linear_38_3909" x1="57.5048" y1="42.3629" x2="63.7614" y2="34.2759" gradientUnits="userSpaceOnUse">
<stop stop-color="#FEBBBA"/>
<stop offset="1" stop-color="#FF928E"/>
</linearGradient>
<linearGradient id="paint29_linear_38_3909" x1="44.8223" y1="59.2171" x2="45.7715" y2="56.5192" gradientUnits="userSpaceOnUse">
<stop stop-color="#FEBBBA"/>
<stop offset="1" stop-color="#FF928E"/>
</linearGradient>
<linearGradient id="paint30_linear_38_3909" x1="72.8999" y1="48.9661" x2="70.3447" y2="47.4451" gradientUnits="userSpaceOnUse">
<stop stop-color="#FEBBBA"/>
<stop offset="1" stop-color="#FF928E"/>
</linearGradient>
</defs>
</svg>
