<svg width="1440" height="665" viewBox="0 0 1440 665" fill="none" xmlns="http://www.w3.org/2000/svg">
<path d="M1269.26 656.873H1105.69C1110.78 647.915 1117.16 639.288 1124.57 632.565C1131.98 625.843 1142.09 621.818 1151.33 624.71C1160.56 627.603 1167.67 638.948 1164.67 648.984C1171.45 641.861 1178.59 634.499 1187.58 631.6C1196.58 628.701 1207.94 631.889 1211.78 641.292C1217.95 628.297 1232.48 620.847 1245.5 624.004C1258.51 627.162 1268.64 642.229 1269.26 656.873Z" fill="#CADDFF"/>
<path d="M968.105 133.523H806.186C806.833 100.997 816.915 68.0242 842.048 50.8789C851.035 44.7471 862.409 40.3868 872.045 45.1827C879.87 49.077 884.618 58.3031 886.059 67.6163C887.501 76.9295 886.157 86.4606 884.813 95.7923C890.133 88.2374 895.921 80.7657 903.499 76.0913C911.076 71.4155 920.849 69.9991 928.386 74.7514C935.923 79.5037 939.65 91.4545 934.656 99.2747C937.429 89.8334 947.401 84.0541 956.244 86.0052C965.087 87.9576 972.055 96.7837 973.447 106.587C974.84 116.39 974.725 126.785 968.105 133.523Z" fill="#CADDFF"/>
<path d="M1014.51 424.585C1014.15 452.225 1027.15 480.574 1049.43 493.354C1071.72 506.133 1102.52 500.134 1116.95 477.507C1136.71 446.538 1123.41 396.727 1149.51 372.088C1170.9 351.898 1205.33 362.382 1229.79 346.99C1251.45 333.361 1259.43 303.217 1260.61 275.799C1263.2 215.723 1239.63 152.574 1193.63 120.072C1147.63 87.5712 1079.54 93.4311 1044.73 139.811C1032.26 156.431 1024.57 176.654 1014.64 195.234C1004.72 213.815 991.399 231.74 972.87 238.739C949.305 247.64 918.771 238.731 902.07 259.069C891.125 272.397 892.057 294.428 901.896 308.763C911.735 323.096 928.608 330.147 944.935 330.299C968.665 330.521 992.529 317.89 1015.45 324.667C1035.85 330.7 1046.02 343.492 1035.37 363.034C1024.55 382.895 1014.83 400.48 1014.51 424.585Z" fill="#CADDFF"/>
<path d="M977.067 455.28H808.725C820.099 436.375 829.572 414.841 849.287 403.277C865.668 393.668 884.484 395.051 890.439 417.21C908.202 409.601 936.545 391.731 935.948 426.283C946.573 415.189 968.677 410.521 976.43 425.496C979.831 432.069 981.252 455.28 977.067 455.28Z" fill="#CADDFF"/>
<path d="M1347.15 133.716H1220.18C1223.66 84.5957 1312.26 33.2772 1305.43 116.242C1362.09 74.1115 1349.57 133.716 1347.15 133.716Z" fill="#CADDFF"/>
<path d="M993.418 246.424V284.44H969.328V246.424C969.328 240.13 973.346 234.834 978.704 233.511C979.567 233.287 980.476 233.161 981.384 233.161C984.7 233.161 987.696 234.661 989.876 237.058C992.056 239.454 993.418 242.752 993.418 246.424Z" fill="black"/>
<path d="M978.219 233.432C980.562 233.965 982.656 235.259 984.292 237.057C986.472 239.454 987.834 242.752 987.834 246.423V284.439" stroke="white" stroke-width="0.8532" stroke-miterlimit="10"/>
<path d="M1049.85 222.154V260.17H1025.92V222.154C1025.92 215.86 1029.89 210.565 1035.22 209.241C1036.08 209.015 1036.98 208.891 1037.88 208.891C1041.18 208.891 1044.18 210.39 1046.35 212.788C1048.52 215.186 1049.85 218.483 1049.85 222.154Z" fill="black"/>
<path d="M1035.05 209.744C1036.66 210.42 1038.1 211.467 1039.3 212.788C1041.47 215.187 1042.8 218.483 1042.8 222.154V260.17" stroke="white" stroke-width="0.8532" stroke-miterlimit="10"/>
<path d="M1191.92 246.424V284.44H1216.01V246.424C1216.01 240.13 1211.99 234.834 1206.63 233.511C1205.77 233.287 1204.86 233.161 1203.95 233.161C1200.64 233.161 1197.64 234.661 1195.46 237.058C1193.28 239.454 1191.92 242.752 1191.92 246.424Z" fill="black"/>
<path d="M1207.12 233.432C1204.77 233.965 1202.68 235.259 1201.04 237.057C1198.86 239.454 1197.5 242.752 1197.5 246.423V284.439" stroke="white" stroke-width="0.8532" stroke-miterlimit="10"/>
<path d="M1135.49 222.154V260.17H1159.42V222.154C1159.42 215.86 1155.45 210.565 1150.12 209.241C1149.26 209.016 1148.36 208.891 1147.45 208.891C1144.16 208.891 1141.15 210.39 1138.99 212.788C1136.82 215.186 1135.49 218.483 1135.49 222.154Z" fill="black"/>
<path d="M1150.29 209.744C1148.68 210.42 1147.23 211.467 1146.04 212.788C1143.87 215.187 1142.54 218.483 1142.54 222.154V260.17" stroke="white" stroke-width="0.8532" stroke-miterlimit="10"/>
<path d="M1107.62 415.289L1113.33 431.507L1152.33 461.852L1155.65 472.315L1098.11 460.806L1099.06 413.721L1107.62 415.289Z" fill="black"/>
<path d="M1080.99 415.289L1075.28 431.507L1036.28 461.852L1032.95 472.315L1090.5 460.806L1089.55 413.721L1080.99 415.289Z" fill="black"/>
<path d="M1268.91 330.056L1138.78 291.734H1111.63L1111.6 286.293L1111.17 215.927L1111.12 204.386C1113.61 210.349 1116.62 215.963 1120.14 221.158C1126.48 230.625 1134.44 238.696 1143.55 244.903C1147.35 247.571 1151.41 249.855 1155.6 251.79L1243.32 292.326L1245.89 293.512C1256.85 299.143 1264.84 310.058 1267.47 323.063L1268.91 330.056Z" fill="white"/>
<path d="M1268.91 330.056L1138.78 291.734H1111.63L1111.6 286.293L1111.17 215.927L1111.12 204.386C1113.61 210.349 1116.62 215.963 1120.14 221.158C1126.48 230.625 1134.44 238.696 1143.55 244.903C1147.35 247.571 1151.41 249.855 1155.6 251.79L1243.32 292.326L1245.89 293.512C1256.85 299.143 1264.84 310.058 1267.47 323.063L1268.91 330.056Z" stroke="black" stroke-width="0.8532" stroke-miterlimit="10"/>
<path d="M1265.27 318.395L1138.78 281.146H1111.63" stroke="#CADDFF" stroke-width="0.8532" stroke-miterlimit="10"/>
<path d="M1120.14 221.159L1112.11 291.735H1111.63L1111.6 286.295L1111.17 215.929L1111.13 204.387C1113.61 210.349 1116.63 215.963 1120.14 221.159Z" fill="black"/>
<path d="M919.439 330.056L1049.57 291.735H1076.72L1076.75 286.295L1077.18 215.929L1077.23 204.387C1074.74 210.35 1071.73 215.964 1068.21 221.159C1061.87 230.627 1053.91 238.698 1044.8 244.905C1041 247.573 1036.94 249.856 1032.76 251.792L945.035 292.328L942.467 293.513C931.5 299.145 923.511 310.059 920.881 323.065L919.439 330.056Z" fill="white"/>
<path d="M919.439 330.056L1049.57 291.735H1076.72L1076.75 286.295L1077.18 215.929L1077.23 204.387C1074.74 210.35 1071.73 215.964 1068.21 221.159C1061.87 230.627 1053.91 238.698 1044.8 244.905C1041 247.573 1036.94 249.856 1032.76 251.792L945.035 292.328L942.467 293.513C931.5 299.145 923.511 310.059 920.881 323.065L919.439 330.056Z" stroke="black" stroke-width="0.8532" stroke-miterlimit="10"/>
<path d="M923.077 318.396L1049.57 281.147H1076.72" stroke="#CADDFF" stroke-width="0.8532" stroke-miterlimit="10"/>
<path d="M1068.21 221.159L1076.24 291.735H1076.72L1076.75 286.295L1077.18 215.929L1077.23 204.387C1074.74 210.349 1071.73 215.963 1068.21 221.159Z" fill="black"/>
<path d="M1111.13 117.405V412.469C1111.13 415.328 1110.52 418.048 1109.45 420.472C1108.26 423.191 1106.48 425.527 1104.3 427.306V476.785L1099.51 491.57C1099.22 492.46 1098.78 493.21 1098.22 493.801C1096.34 495.911 1093.17 496.068 1091.09 494.237C1090.93 494.098 1090.78 493.94 1090.62 493.784C1090.11 493.208 1089.68 492.511 1089.4 491.656L1084.31 476.785V427.306C1082.14 425.527 1080.35 423.191 1079.16 420.472C1078.1 418.048 1077.5 415.328 1077.5 412.469V116.813C1077.5 106.352 1079.32 95.9604 1082.87 86.2326L1086.75 75.6152C1087.59 73.3486 1089.05 71.7975 1090.78 70.9434C1094.57 69.0438 1099.56 70.5592 1101.44 75.5109L1105.36 85.7799C1109.16 95.7861 1111.13 106.544 1111.13 117.405Z" fill="white"/>
<path d="M1111.13 117.405V412.469C1111.13 415.328 1110.52 418.048 1109.45 420.472C1108.26 423.191 1106.48 425.527 1104.3 427.306V476.785L1099.51 491.57C1099.22 492.46 1098.78 493.21 1098.22 493.801C1096.34 495.911 1093.17 496.068 1091.09 494.237C1090.93 494.098 1090.78 493.94 1090.62 493.784C1090.11 493.208 1089.68 492.511 1089.4 491.656L1084.31 476.785V427.306C1082.14 425.527 1080.35 423.191 1079.16 420.472C1078.1 418.048 1077.5 415.328 1077.5 412.469V116.813C1077.5 106.352 1079.32 95.9604 1082.87 86.2326L1086.75 75.6152C1087.59 73.3486 1089.05 71.7975 1090.78 70.9434C1094.57 69.0438 1099.56 70.5592 1101.44 75.5109L1105.36 85.7799C1109.16 95.7861 1111.13 106.544 1111.13 117.405Z" stroke="black" stroke-width="0.8532" stroke-miterlimit="10"/>
<path d="M1082.79 133.718C1081.27 133.718 1080.03 132.359 1080.03 130.684C1080.03 129.009 1081.27 127.65 1082.79 127.65C1084.31 127.65 1085.55 129.009 1085.55 130.684C1085.55 132.361 1084.31 133.718 1082.79 133.718Z" fill="black"/>
<path d="M1082.79 153.374C1081.27 153.374 1080.03 152.015 1080.03 150.34C1080.03 148.665 1081.27 147.306 1082.79 147.306C1084.31 147.306 1085.55 148.665 1085.55 150.34C1085.55 152.015 1084.31 153.374 1082.79 153.374Z" fill="black"/>
<path d="M1082.79 173.03C1081.27 173.03 1080.03 171.672 1080.03 169.996C1080.03 168.32 1081.27 166.963 1082.79 166.963C1084.31 166.963 1085.55 168.321 1085.55 169.996C1085.55 171.672 1084.31 173.03 1082.79 173.03Z" fill="black"/>
<path d="M1082.79 192.685C1081.27 192.685 1080.03 191.326 1080.03 189.651C1080.03 187.976 1081.27 186.618 1082.79 186.618C1084.31 186.618 1085.55 187.976 1085.55 189.651C1085.55 191.326 1084.31 192.685 1082.79 192.685Z" fill="black"/>
<path d="M1082.79 212.341C1081.27 212.341 1080.03 210.982 1080.03 209.307C1080.03 207.632 1081.27 206.274 1082.79 206.274C1084.31 206.274 1085.55 207.632 1085.55 209.307C1085.55 210.982 1084.31 212.341 1082.79 212.341Z" fill="black"/>
<path d="M1082.79 231.996C1081.27 231.996 1080.03 230.637 1080.03 228.962C1080.03 227.287 1081.27 225.929 1082.79 225.929C1084.31 225.929 1085.55 227.287 1085.55 228.962C1085.55 230.637 1084.31 231.996 1082.79 231.996Z" fill="black"/>
<path d="M1082.79 251.652C1081.27 251.652 1080.03 250.293 1080.03 248.618C1080.03 246.943 1081.27 245.585 1082.79 245.585C1084.31 245.585 1085.55 246.943 1085.55 248.618C1085.55 250.293 1084.31 251.652 1082.79 251.652Z" fill="black"/>
<path d="M1082.79 271.307C1081.27 271.307 1080.03 269.948 1080.03 268.273C1080.03 266.598 1081.27 265.239 1082.79 265.239C1084.31 265.239 1085.55 266.598 1085.55 268.273C1085.55 269.948 1084.31 271.307 1082.79 271.307Z" fill="black"/>
<path d="M1082.79 290.963C1081.27 290.963 1080.03 289.604 1080.03 287.929C1080.03 286.254 1081.27 284.896 1082.79 284.896C1084.31 284.896 1085.55 286.254 1085.55 287.929C1085.55 289.604 1084.31 290.963 1082.79 290.963Z" fill="black"/>
<path d="M1082.79 310.617C1081.27 310.617 1080.03 309.259 1080.03 307.584C1080.03 305.909 1081.27 304.55 1082.79 304.55C1084.31 304.55 1085.55 305.909 1085.55 307.584C1085.55 309.26 1084.31 310.617 1082.79 310.617Z" fill="black"/>
<path d="M1082.79 330.274C1081.27 330.274 1080.03 328.915 1080.03 327.24C1080.03 325.565 1081.27 324.206 1082.79 324.206C1084.31 324.206 1085.55 325.565 1085.55 327.24C1085.55 328.915 1084.31 330.274 1082.79 330.274Z" fill="black"/>
<path d="M1082.79 349.93C1081.27 349.93 1080.03 348.571 1080.03 346.896C1080.03 345.22 1081.27 343.863 1082.79 343.863C1084.31 343.863 1085.55 345.221 1085.55 346.896C1085.55 348.571 1084.31 349.93 1082.79 349.93Z" fill="black"/>
<path d="M1082.79 369.585C1081.27 369.585 1080.03 368.227 1080.03 366.551C1080.03 364.876 1081.27 363.518 1082.79 363.518C1084.31 363.518 1085.55 364.876 1085.55 366.551C1085.55 368.227 1084.31 369.585 1082.79 369.585Z" fill="black"/>
<path d="M1082.79 389.241C1081.27 389.241 1080.03 387.882 1080.03 386.207C1080.03 384.532 1081.27 383.174 1082.79 383.174C1084.31 383.174 1085.55 384.532 1085.55 386.207C1085.55 387.882 1084.31 389.241 1082.79 389.241Z" fill="black"/>
<path d="M1082.79 408.896C1081.27 408.896 1080.03 407.537 1080.03 405.862C1080.03 404.187 1081.27 402.829 1082.79 402.829C1084.31 402.829 1085.55 404.187 1085.55 405.862C1085.55 407.537 1084.31 408.896 1082.79 408.896Z" fill="black"/>
<path d="M1111.13 117.405V118.434H1110.29C1109.38 111.774 1107.72 105.252 1105.36 99.0111L1101.44 88.7421C1099.56 83.7905 1094.56 82.2737 1090.78 84.1746C1089.05 85.0287 1087.59 86.5812 1086.75 88.8477L1082.87 99.4652C1080.63 105.584 1079.09 111.948 1078.24 118.434H1077.49V116.813C1077.49 106.352 1079.32 95.9604 1082.87 86.2326L1086.75 75.6152C1087.59 73.3486 1089.05 71.7975 1090.78 70.9434C1094.56 69.0438 1099.56 70.5592 1101.44 75.5109L1105.36 85.7799C1109.16 95.7861 1111.13 106.544 1111.13 117.405Z" fill="#CADDFF"/>
<path d="M1098.22 443.136V493.801C1096.34 495.911 1093.17 496.068 1091.09 494.237C1090.93 494.098 1090.78 493.94 1090.62 493.784V443.136H1098.22Z" fill="#CADDFF"/>
<path d="M1037.88 318.395V412.043" stroke="black" stroke-width="0.8532" stroke-miterlimit="10"/>
<path d="M1025.92 307.935V401.581" stroke="black" stroke-width="0.8532" stroke-miterlimit="10"/>
<path d="M969.328 346.895V480.647" stroke="black" stroke-width="0.8532" stroke-miterlimit="10"/>
<path d="M981.372 318.395V534.502" stroke="black" stroke-width="0.8532" stroke-miterlimit="10"/>
<path d="M1140.53 318.395V412.043" stroke="black" stroke-width="0.8532" stroke-miterlimit="10"/>
<path d="M1152.49 307.935V401.581" stroke="black" stroke-width="0.8532" stroke-miterlimit="10"/>
<path d="M1209.08 346.895V480.647" stroke="black" stroke-width="0.8532" stroke-miterlimit="10"/>
<path d="M1197.04 318.395V534.502" stroke="black" stroke-width="0.8532" stroke-miterlimit="10"/>
<path d="M575.777 0.609747C614.609 45.5823 658.592 85.1977 711.354 105.455C727.261 111.561 744.126 115.833 760.889 113.973C777.651 112.114 794.377 103.396 803.696 87.9565C806.941 82.5824 809.048 74.9162 805.184 70.0651C800.669 64.3997 791.218 68.0781 788.617 75.048C786.017 82.0179 788.353 90.036 791.689 96.6157C805.567 124.005 836.411 137.981 864.702 134.151C892.994 130.319 918.244 110.888 935.43 85.8717C952.617 60.8552 962.495 30.6294 968.984 0.0951922" stroke="black" stroke-width="0.9158" stroke-miterlimit="10" stroke-linejoin="round"/>
<path d="M875.961 112.776C875.961 106.985 871.695 102.291 866.434 102.291C861.172 102.291 856.907 106.985 856.907 112.776C856.907 118.567 866.434 134.85 866.434 134.85C866.434 134.85 875.961 118.567 875.961 112.776Z" fill="white" stroke="black" stroke-width="0.6395" stroke-miterlimit="10"/>
<path d="M871.769 112.753C871.769 109.51 869.38 106.881 866.434 106.881C863.488 106.881 861.1 109.51 861.1 112.753C861.1 115.995 863.488 118.625 866.434 118.625C869.38 118.625 871.769 115.995 871.769 112.753Z" fill="white" stroke="black" stroke-width="0.6395" stroke-miterlimit="10"/>
<path d="M1439.65 662.681C1420.83 664.417 1401.96 664.601 1383.3 661.62C1351.72 656.577 1320.41 641.542 1300.19 614.387C1279.97 587.233 1273.09 546.826 1288.37 516.013C1303.66 485.199 1343.1 470.078 1370.14 488.721C1381.16 496.324 1389.39 513.779 1380.8 524.531C1372.59 534.814 1356.38 529.113 1348.49 518.533C1331.4 495.629 1337.94 460.23 1353.55 436.084C1371.22 408.763 1398.35 390.243 1427 378.79C1431.24 377.095 1435.52 375.539 1439.83 374.107" stroke="black" stroke-width="0.9158" stroke-miterlimit="10" stroke-linejoin="round"/>
<path d="M1323.24 463.455C1323.24 456.264 1317.94 450.435 1311.41 450.435C1304.88 450.435 1299.58 456.264 1299.58 463.455C1299.58 470.645 1311.41 490.864 1311.41 490.864C1311.41 490.864 1323.24 470.645 1323.24 463.455Z" fill="white" stroke="black" stroke-width="0.6395" stroke-miterlimit="10"/>
<path d="M1311.41 470.717C1315.07 470.717 1318.03 467.452 1318.03 463.426C1318.03 459.399 1315.07 456.135 1311.41 456.135C1307.75 456.135 1304.79 459.399 1304.79 463.426C1304.79 467.452 1307.75 470.717 1311.41 470.717Z" fill="white" stroke="black" stroke-width="0.6395" stroke-miterlimit="10"/>
<path d="M0.148957 228.533C20.6402 235.582 38.6066 252.096 46.7786 274.031C56.3474 299.716 53.1494 328.638 51.9986 356.368C50.8466 384.097 52.817 414.527 69.8318 435.025C76.739 443.347 86.9918 449.676 96.9794 447.17C106.967 444.664 113.901 430.067 107.421 421.34C102.42 414.607 92.2958 414.972 86.0078 420.24C79.7198 425.509 76.6394 434.216 75.0818 442.74C69.263 474.578 80.5838 508.475 72.3518 539.662C65.009 567.482 42.4922 588.495 17.327 597.025C12.8498 598.543 8.30176 599.708 3.70816 600.551" stroke="black" stroke-width="0.9158" stroke-miterlimit="10" stroke-linejoin="round"/>
<path d="M106.338 389.725C106.338 382.535 101.041 376.705 94.5083 376.705C87.9743 376.705 82.6787 382.535 82.6787 389.725C82.6787 396.916 94.5083 417.134 94.5083 417.134C94.5083 417.134 106.338 396.916 106.338 389.725Z" fill="white" stroke="black" stroke-width="0.6395" stroke-miterlimit="10"/>
<path d="M101.134 389.696C101.134 385.67 98.1673 382.405 94.5097 382.405C90.8509 382.405 87.8856 385.67 87.8856 389.696C87.8856 393.722 90.8509 396.987 94.5097 396.987C98.1673 396.987 101.134 393.724 101.134 389.696Z" fill="white" stroke="black" stroke-width="0.6395" stroke-miterlimit="10"/>
</svg>
