<svg width="88" height="103" viewBox="0 0 88 103" fill="none" xmlns="http://www.w3.org/2000/svg">
<path d="M55.6926 30.4222C55.416 29.7748 55.3385 29.0583 55.1394 28.3778C55.1067 28.19 55.035 28.0111 54.9287 27.8529C54.8224 27.6947 54.684 27.5606 54.5225 27.4593C54.281 27.3881 54.0352 27.3327 53.7866 27.2934C52.9207 27.0333 52.68 25.8272 51.8667 25.4509C51.6003 25.3521 51.3205 25.2943 51.0368 25.2794C49.9302 25.1494 48.8043 24.7704 48.1155 23.8962C47.9185 23.5971 47.6914 23.319 47.4377 23.0663C47.161 22.8394 46.7212 22.7426 46.4473 22.975C46.6797 23.437 46.9065 23.9017 47.1334 24.3582C47.3125 24.789 47.5737 25.1808 47.9024 25.5118C48.0696 25.6753 48.2797 25.7881 48.5084 25.8371C48.737 25.8861 48.9749 25.8692 49.1944 25.7884C49.3229 25.6998 49.4729 25.6473 49.6287 25.6363C49.7399 25.6618 49.8382 25.7266 49.9053 25.8189C50.5029 26.48 50.3092 27.5755 49.7255 28.2533C49.1418 28.9311 48.2842 29.2769 47.4571 29.6033C47.1705 29.7474 46.8501 29.8105 46.5303 29.7859C45.9577 29.678 45.6506 29.0528 45.4846 28.494C45.1084 27.2519 44.9313 25.9046 44.1595 24.8589C43.883 24.554 43.6486 24.2135 43.4624 23.8464C43.3047 23.4287 43.3406 22.9418 43.0917 22.5766C42.8427 22.2115 42.2811 21.9708 42.2424 21.506C42.2515 21.3408 42.3087 21.1817 42.407 21.0485C42.5053 20.9153 42.6404 20.8138 42.7957 20.7563C43.0917 20.6125 43.4264 20.571 43.7307 20.4465C43.8524 20.3967 43.9852 20.3082 43.9907 20.1699C43.9907 19.9762 43.7141 19.8932 43.6532 19.7162C43.5924 19.5391 43.786 19.3233 43.8746 19.1242C44.0654 18.6705 43.5979 18.2113 43.1332 18.0176C42.6684 17.824 42.129 17.6995 41.9159 17.2541C41.8391 17.0408 41.7899 16.8186 41.7693 16.5929C41.727 16.3088 41.6014 16.0436 41.4084 15.8309C41.2153 15.6182 40.9636 15.4674 40.6849 15.3978C40.115 15.3065 39.487 15.81 39.5783 16.3744C39.6337 16.6842 39.855 16.9276 39.9905 17.2043C40.1261 17.4809 40.0846 17.918 39.7858 18.0093C39.3017 18.1587 38.8342 17.2707 38.4247 17.575C38.5935 18.1449 38.7539 18.7147 38.9199 19.2874C38.2836 19.611 37.5174 19.0246 37.2463 18.3579C36.9751 17.6912 36.9696 16.9359 36.6376 16.2969C36.3057 15.6579 35.4398 15.1765 34.8837 15.6302C34.8561 16.4601 35.9433 16.7865 36.4246 17.4533C36.7732 17.9346 36.7234 18.7175 36.2089 19.0246C35.6943 19.3316 34.8893 18.7977 35.0829 18.2361C35.1521 18.0425 35.3153 17.8793 35.3319 17.6829C35.3513 17.4228 35.1355 17.2153 34.9363 17.0494C34.6237 16.7727 34.3139 16.5265 34.004 16.2665C33.8135 16.0847 33.5888 15.9427 33.3429 15.8487C32.7038 15.6634 32.0648 16.1835 31.7273 16.7534C31.3898 17.3232 31.1989 17.9982 30.7314 18.4741C30.0591 19.1684 28.7949 19.2099 28.1586 18.4741C27.5223 17.7382 27.846 16.3854 28.7783 16.1198C29.1296 16.023 29.575 16.0341 29.7604 15.7242C30.084 15.171 29.1573 14.4683 29.4837 13.9123C29.7299 13.4862 30.3773 13.6826 30.8503 13.5388C31.3234 13.3949 31.5834 12.9219 31.8601 12.5152C32.1367 12.1086 32.5627 11.7047 33.0441 11.8098C32.9825 11.5338 33.0008 11.2459 33.0966 10.9799C33.124 10.9145 33.1645 10.8555 33.2156 10.8066C33.2668 10.7576 33.3275 10.7197 33.394 10.6953C33.4605 10.6709 33.5313 10.6605 33.602 10.6647C33.6727 10.6689 33.7417 10.6877 33.8048 10.7198C33.5697 11.1099 33.8519 11.6493 34.2641 11.8457C34.696 12 35.1618 12.0335 35.6113 11.9426C36.065 11.8872 36.6321 11.7213 36.6708 11.2676C36.6545 11.1192 36.6592 10.9693 36.6847 10.8222C36.8839 10.2689 37.8825 11.0269 38.2671 10.5898C38.4884 10.363 38.2449 9.96183 37.9351 9.88713C37.6252 9.81244 37.3099 9.9231 36.9945 9.93416C36.6791 9.94523 36.2946 9.77924 36.2808 9.46664C36.2669 9.15404 36.6155 8.93272 36.6515 8.63672C36.7123 8.11663 35.8215 7.98385 35.5228 8.40434C35.224 8.82483 35.3236 9.40301 35.4149 9.91756C35.5062 10.4321 35.5587 11.038 35.1797 11.4004C35.0165 11.6438 34.596 11.5165 34.4577 11.2565C34.3526 10.9805 34.3064 10.6855 34.3222 10.3906C34.3 10.0946 34.17 9.75988 33.8823 9.68242C33.675 9.66444 33.4662 9.68795 33.2682 9.75158C32.4631 9.8484 31.9016 8.80824 32.1616 8.03918C32.4216 7.27011 33.1437 6.76939 33.8519 6.37933C34.3692 6.10269 35.0138 5.82605 35.5283 6.10269C35.769 6.23548 35.935 6.46786 36.1701 6.60618C36.5795 6.84685 37.083 6.75833 37.5533 6.76939C38.2947 6.78825 39.0066 7.064 39.5673 7.54952C39.7747 7.7404 39.9712 8.05577 39.8079 8.28262C39.6447 8.50946 39.1274 8.55926 39.2159 8.85526C39.3522 8.89328 39.4949 8.90201 39.6348 8.88088C39.7746 8.85975 39.9084 8.80923 40.0273 8.73265C40.1462 8.65607 40.2476 8.55518 40.3247 8.4366C40.4018 8.31803 40.4529 8.18446 40.4746 8.04471C40.6082 8.10716 40.7233 8.2032 40.8087 8.32346C40.894 8.44372 40.9467 8.58406 40.9615 8.73078C41.1142 8.58784 41.295 8.4784 41.4924 8.4095C41.6898 8.3406 41.8995 8.31375 42.1079 8.33068C42.3163 8.34762 42.5189 8.40796 42.7026 8.50783C42.8863 8.6077 43.0471 8.74489 43.1747 8.91059C43.2785 9.1082 43.4161 9.28609 43.5813 9.43621C43.7667 9.55516 44.0903 9.4943 44.1125 9.27852C44.1172 9.20838 44.1049 9.13813 44.0765 9.07381C43.9659 8.75844 43.8497 8.4486 43.739 8.13877C44.1706 7.90639 44.6796 8.26879 44.9701 8.65608C46.0545 10.1057 46.8263 9.23703 48.3534 9.486C49.388 9.64369 49.8417 10.3159 50.4254 11.1071C52.2097 13.5692 54.575 15.5887 56.1961 18.1615C56.3677 18.4381 56.5253 18.7147 56.6747 18.9914L56.5945 18.7839C55.9595 17.1138 55.1694 15.5069 54.2347 13.9842C54.0356 13.6577 53.8309 13.3396 53.6234 13.0242C53.4934 12.8306 53.3606 12.6314 53.225 12.4405C53.0535 12.1915 52.8737 11.9509 52.6939 11.7102C52.55 11.5165 52.4172 11.3257 52.2568 11.1403C52.1535 11.0112 52.0484 10.8812 51.9414 10.7503C51.8307 10.6036 51.7118 10.4736 51.5818 10.3159L51.1917 9.86777C51.154 9.81837 51.1124 9.77211 51.0672 9.72945C50.9344 9.57176 50.7906 9.41685 50.6467 9.26469C50.6351 9.24798 50.6212 9.23307 50.6052 9.22043C50.5665 9.17617 50.525 9.13467 50.4835 9.09317C50.3673 8.96315 50.2428 8.83867 50.1239 8.71418C49.9247 8.50947 49.72 8.30752 49.5125 8.11387C49.305 7.92022 49.1639 7.77913 48.9841 7.61592C48.8043 7.4527 48.6687 7.33928 48.5083 7.19266C48.3478 7.04604 48.1929 6.91601 48.0297 6.78323C47.8665 6.65044 47.6369 6.45403 47.4322 6.29357C46.8789 5.84173 46.3016 5.41754 45.7004 5.02103L45.2605 4.72502C45.1111 4.62266 44.959 4.52861 44.8096 4.44838C44.6602 4.36816 44.5108 4.2575 44.3559 4.17174C44.201 4.08598 44.0516 3.98639 43.8995 3.8951C43.7473 3.80381 43.6532 3.75125 43.5288 3.68485C43.4669 3.64665 43.4032 3.61156 43.3379 3.57973C43.0751 3.43034 42.8067 3.28649 42.5384 3.1537C42.4028 3.08454 42.2617 3.01538 42.1317 2.94899C42.0017 2.88259 41.7832 2.77747 41.6061 2.70001L41.5286 2.66128C41.371 2.58936 41.2133 2.51466 41.0528 2.4455C40.826 2.34868 40.5991 2.24909 40.3723 2.16886C40.1454 2.08864 39.8522 1.95585 39.5894 1.85902C39.3266 1.7622 39.0057 1.64048 38.7097 1.54365C38.4137 1.44683 38.1121 1.34447 37.8106 1.25318C37.5091 1.16189 37.2103 1.07613 36.9032 0.99314C36.3029 0.829922 35.6915 0.686068 35.0746 0.56158C35.0636 0.56253 35.0525 0.56253 35.0414 0.56158C34.8063 0.514551 34.5711 0.467523 34.3332 0.43156H34.289C34.1866 0.412195 34.0787 0.392829 33.9736 0.378997C33.5337 0.307071 33.0883 0.24621 32.6402 0.193649C32.5861 0.185242 32.5316 0.179701 32.477 0.17705C32.3469 0.157685 32.2169 0.149386 32.0841 0.135554C31.7881 0.10789 31.4921 0.0829926 31.1906 0.0663942C30.889 0.0497958 30.5654 0.027664 30.25 0.0193648C29.9346 0.0110655 29.5944 0 29.2652 0C28.3937 0 27.5334 0.0359638 26.6813 0.11619C26.4766 0.11619 26.2774 0.149386 26.0783 0.171517L25.4531 0.24621C25.2456 0.273874 25.0381 0.301538 24.8334 0.334735C24.6287 0.367932 24.4212 0.398362 24.2137 0.434326C24.0062 0.470289 23.8568 0.495187 23.6798 0.533916C23.2455 0.616909 22.8167 0.7082 22.3906 0.810557C22.1915 0.857586 21.9923 0.907381 21.7931 0.962709L21.1983 1.12593C20.8719 1.21722 20.551 1.31958 20.2329 1.42193L19.4555 1.68474C19.4492 1.68297 19.4425 1.68297 19.4361 1.68474C19.1595 1.77603 18.9188 1.87286 18.6588 1.97521H18.6173C18.3821 2.06927 18.1442 2.1661 17.9146 2.25185C17.6214 2.37081 17.3337 2.50083 17.0515 2.63085C16.7693 2.76087 16.5757 2.85216 16.3433 2.96835L15.5991 3.34735L15.5715 3.36118C15.3335 3.48844 15.0984 3.61846 14.866 3.75125C14.6253 3.8868 14.3902 4.02789 14.1551 4.17174C13.9337 4.30729 13.7152 4.44838 13.4967 4.58117C13.4137 4.63096 13.3362 4.68629 13.2532 4.74162C13.0208 4.89101 12.7995 5.04316 12.5727 5.20084C12.296 5.39172 12.0194 5.58814 11.7428 5.78732C11.4661 5.9865 11.2752 6.14419 11.0484 6.32677C9.73181 7.36768 8.50815 8.521 7.3912 9.77371C6.9956 10.2108 6.62767 10.6534 6.26527 11.1071C5.96096 11.4972 5.66219 11.89 5.38002 12.2967C5.12551 12.6618 4.88206 13.0132 4.64415 13.3811C4.88206 13.0132 5.12551 12.6508 5.38002 12.2967L5.6041 12.2745C6.02312 12.2832 6.44023 12.2157 6.83515 12.0754C7.15493 11.8644 7.45826 11.6295 7.74253 11.3727C8.54755 10.7973 9.86713 10.6922 10.0857 9.72945C10.1576 9.40301 10.0857 9.05168 10.1908 8.74184C10.4176 8.16366 11.1922 8.08067 11.8119 8.08897C12.0886 8.08897 12.3846 8.1277 12.5063 8.36561C12.5393 8.45205 12.5539 8.54445 12.5492 8.63688C12.5444 8.7293 12.5204 8.81971 12.4786 8.90229C12.0918 9.99124 11.3415 10.9135 10.354 11.5138C9.54899 12.0062 8.49776 12.3852 8.27368 13.3009C8.38434 13.6107 8.95145 13.5775 8.99571 13.9123C9.02891 14.1723 8.69694 14.3051 8.57522 14.5375C8.39817 14.875 8.80206 15.2872 9.18659 15.2678C9.57112 15.2484 9.88926 14.9718 10.1714 14.7145C11.0014 13.9316 11.9004 13.0879 12.2047 11.9785C12.3348 11.5193 12.3818 10.9826 12.758 10.6756C12.8727 10.5938 13.0048 10.5399 13.1439 10.5181C13.2831 10.4963 13.4254 10.5072 13.5595 10.5498C13.6937 10.5925 13.8162 10.6658 13.9171 10.764C14.0181 10.8622 14.0948 10.9825 14.1412 11.1154C14.5064 10.9135 15.0763 10.7586 15.2644 11.1403C15.3081 11.2814 15.335 11.4272 15.3446 11.5746C15.4636 12.1667 16.2741 12.435 16.3571 13.0325C16.4539 13.7241 15.5715 14.0782 14.8799 14.1861C14.2546 14.283 13.6322 14.3798 13.007 14.4821C12.731 14.5028 12.4638 14.5881 12.2269 14.7311C12.1114 14.808 12.0257 14.9221 11.9839 15.0544C11.9422 15.1868 11.9469 15.3294 11.9973 15.4587C12.0906 15.5835 12.1994 15.6959 12.3209 15.7934C12.8382 16.3107 12.4122 17.3813 11.6819 17.4035C11.4329 17.4035 11.1867 17.3205 10.9377 17.3122C10.1963 17.279 9.60709 17.9318 9.25575 18.5847C8.90442 19.2376 8.63885 19.9817 8.04683 20.4271C7.09519 21.1436 5.44918 20.9804 4.98719 22.087C4.80184 22.5324 4.89866 23.0331 4.98719 23.5089C5.07571 23.9847 5.09508 24.5104 4.81567 24.8921C4.53626 25.2739 3.83083 25.3624 3.62612 24.9281C3.55607 24.7307 3.54644 24.5169 3.59845 24.3139C3.70911 23.6279 3.817 22.9427 3.92212 22.2585C4.00235 21.7467 4.07151 21.1796 3.76997 20.7619C3.34948 20.1782 2.40336 20.2335 1.85838 20.701C1.3134 21.1685 1.08932 21.9016 0.937169 22.5988C0.834073 23.2315 0.65672 23.85 0.408785 24.4412C0.311961 25.0166 0.231736 25.6003 0.173641 26.1868C0.115547 26.7733 0.0712844 27.3874 0.0463867 27.9988C0.130571 27.9295 0.21005 27.8546 0.284298 27.7747C0.560938 27.4759 1.16402 26.2006 1.6924 26.8258C1.75611 26.9093 1.79063 27.0113 1.79063 27.1163C1.79063 27.2213 1.75611 27.3234 1.6924 27.4068C1.52918 27.6143 1.20551 27.6613 1.08102 27.8881C0.956534 28.115 1.14188 28.4884 1.39086 28.6655C1.63984 28.8425 1.94414 28.9421 2.12119 29.2188C2.46146 29.7057 2.13779 30.4415 2.46423 30.9367C2.74087 31.3627 3.34948 31.3904 3.86403 31.4457L4.03831 31.4734C4.18216 30.4554 4.66075 29.6254 6.04949 29.3128C7.96384 28.8757 10.4757 30.4637 11.5629 31.9105C12.7663 33.5261 13.3362 35.8111 15.1786 36.6134C16.4982 37.1916 18.3738 36.9841 19.0156 38.2732C19.591 39.4296 18.5896 40.7326 18.4375 42.0134C18.3406 42.8599 18.6173 43.7037 18.6837 44.5502C18.7501 45.3967 18.4928 46.3926 17.721 46.7633C17.2894 46.9597 16.7472 46.9348 16.4014 47.2585C15.7845 47.8422 16.2907 49.0456 15.6738 49.6293C15.4338 49.8033 15.1702 49.9421 14.8909 50.0415C13.5077 50.7414 13.5437 52.7775 14.1883 54.1911C14.2104 54.2409 14.2325 54.2879 14.2574 54.3377C18.7929 57.0498 23.9779 58.4837 29.2624 58.4873C34.0492 58.4936 38.7639 57.3202 42.9893 55.0708C43.8791 54.5964 44.7434 54.0756 45.5787 53.5106C46.8653 52.6461 48.0808 51.6804 49.2137 50.6225C49.9946 49.8911 50.7335 49.1162 51.4268 48.3014C51.9165 47.7482 52.3813 47.1479 52.8101 46.5475C53.0369 46.2377 53.261 45.9279 53.4685 45.607C55.0413 43.2996 56.2687 40.7749 57.1118 38.1128C57.6283 36.4968 57.9987 34.8376 58.2184 33.1554C58.3069 32.497 58.3761 31.8303 58.4203 31.158C58.269 31.319 58.0871 31.4482 57.8852 31.538C57.6833 31.6278 57.4655 31.6764 57.2446 31.6809C56.553 31.6587 55.9748 31.0723 55.6926 30.4222Z" fill="#E6E8EA"/>
<path d="M22.2582 7.61868C21.6773 7.96725 21.3702 8.62012 20.922 9.12638C20.4739 9.63263 19.6716 9.99226 19.146 9.57177C19.0268 9.46153 18.9307 9.32871 18.8632 9.18101C18.7958 9.03332 18.7584 8.87369 18.7532 8.71141C18.7128 8.24201 18.8233 7.77197 19.0685 7.36971C19.3203 6.96028 19.7048 6.63661 19.9178 6.20505C20.1308 5.77349 20.0893 5.13998 19.6412 4.93804C19.4033 4.82738 19.1073 4.87164 18.897 4.71672C18.518 4.44008 18.7891 3.78168 19.2262 3.61016C19.6633 3.43864 20.1502 3.5742 20.6094 3.61016C22.3052 3.71805 23.5529 2.60596 24.8282 1.67368C25.8186 0.957179 27.9321 0.107892 29.0802 0.843756C29.5366 1.13699 29.7164 1.88946 29.2849 2.22696C29.0912 2.37358 28.8257 2.40678 28.6458 2.57276C28.466 2.73874 28.3996 3.09008 28.2751 3.35565C27.9542 4.04172 27.0303 4.2907 26.7315 4.98783C26.5517 5.40556 26.6319 5.92841 26.358 6.29081C26.1038 6.55202 25.7681 6.71886 25.4064 6.76386L23.1933 7.28948C22.8669 7.3518 22.5517 7.46277 22.2582 7.61868Z" fill="#F0F4FE"/>
<path d="M42.0268 43.6285C41.2937 44.735 41.1582 46.1182 40.9562 47.4267C40.7543 48.7352 40.4029 50.1323 39.396 50.9954C38.389 51.8585 36.5383 51.8059 35.9822 50.6026C35.6807 49.9469 35.8356 49.1751 35.6724 48.4752C35.4594 47.5623 34.7318 46.8569 34.386 45.9854C34.0928 45.2413 34.09 44.4196 34.0679 43.6202C33.9351 39.2492 32.87 34.6847 29.8934 31.4812C29.5541 31.0604 29.1036 30.7432 28.5932 30.5655C28.2821 30.4885 27.9555 30.5031 27.6526 30.6077C27.3497 30.7123 27.0836 30.9022 26.8863 31.1547C26.6456 31.4701 26.5239 31.874 26.2306 32.1423C25.5944 32.7233 24.485 32.3056 24.059 31.5586C23.633 30.8117 23.6939 29.8988 23.763 29.0301L24.0397 25.8377C24.0867 25.2844 24.1475 24.6841 24.5127 24.2608C25.0328 23.6605 25.9651 23.6329 26.6013 23.1543C27.4313 22.5291 27.5447 21.3395 28.0703 20.4404C28.5959 19.5414 30.2419 19.1596 30.4854 20.1638C32.2254 16.4402 36.0708 21.973 38.3558 21.547C39.0197 21.4253 39.6698 21.1071 40.3365 21.1984C41.5178 21.3644 42.1264 22.6646 42.5275 23.7878L44.5277 29.3759C44.7822 30.0841 45.1114 30.8726 45.8113 31.1464C46.3507 31.3539 46.9759 31.1935 47.5181 31.3926C48.9539 31.9127 48.4864 34.1729 47.3328 35.1716C46.1792 36.1702 44.5664 36.801 44.0131 38.2146C43.5981 39.288 43.9273 40.5439 43.482 41.6062C43.15 42.3946 42.4805 42.9424 42.0268 43.6285Z" fill="#F0F4FE"/>
<path d="M47.4736 44.8433C47.0005 44.9097 46.4445 44.6773 46.0904 44.9899C45.9126 45.205 45.7961 45.464 45.7529 45.7396C45.6504 46.1155 45.413 46.4405 45.0862 46.6525C44.9219 46.7549 44.7314 46.8073 44.5379 46.8033C44.3444 46.7994 44.1562 46.7393 43.9962 46.6304C43.842 46.5142 43.7396 46.3421 43.7112 46.1512C43.6827 45.9602 43.7304 45.7657 43.8441 45.6096C43.9602 45.4768 44.1207 45.3994 44.2507 45.2776C44.8787 44.6856 44.4499 43.5901 44.9257 42.8875C45.2024 42.4725 45.6477 42.0575 45.9548 41.6315C46.1927 41.3078 46.2785 41.0506 46.7156 40.9648C48.6299 40.6024 49.4792 44.5639 47.4736 44.8433Z" fill="#18376B" fill-opacity="0.56"/>
<path d="M0.00220608 28.687C0.00220608 28.8641 0.00220608 29.0383 0.00220608 29.2126C0.00220608 29.3869 0.00220608 29.4893 0.00220608 29.6414C0.00220608 29.5003 0.00220608 29.3648 0.00220608 29.2126C0.00220608 29.0605 -0.00056033 28.8641 0.00220608 28.687Z" fill="#F0F4FE"/>
<g opacity="0.6">
<path d="M0.0190317 27.9946C0.0190317 28.05 0.0190317 28.1025 0.0190317 28.1579C0.0107325 28.1025 0.0162653 28.05 0.0190317 27.9946Z" fill="#F0F4FE"/>
</g>
<g opacity="0.6">
<path d="M0 29.6421C0 29.7859 0 29.9187 0 30.0709C0.00276641 29.9298 0.00276641 29.7859 0 29.6421Z" fill="#F0F4FE"/>
</g>
<path d="M18.4181 42.0102C18.5702 40.7294 19.5717 39.4264 18.9963 38.27C18.3545 36.9781 16.4788 37.1856 15.1593 36.6102C13.3168 35.7996 12.747 33.5146 11.5436 31.9073C10.4647 30.4605 7.94724 28.8642 6.03012 29.3096C4.64692 29.6222 4.1628 30.4522 4.01894 31.4702L3.84466 31.4425C3.33011 31.3872 2.7381 31.3595 2.44486 30.9335C2.11842 30.4383 2.44486 29.7025 2.10182 29.2156C1.92754 28.9611 1.62047 28.8504 1.37149 28.6623C1.12252 28.4742 0.909502 28.1533 1.06165 27.8766C1.21381 27.6 1.50981 27.6 1.67303 27.3953C1.73764 27.3122 1.77271 27.21 1.77271 27.1048C1.77271 26.9996 1.73764 26.8974 1.67303 26.8143C1.14741 26.1891 0.566468 27.4644 0.267696 27.7632C0.193449 27.8431 0.11397 27.918 0.0297852 27.9873C0.0297852 28.0426 0.0297852 28.0952 0.0297852 28.1505C0.0297852 28.3248 0.0297852 28.5018 0.0297852 28.6789C0.0297852 28.8559 0.0297852 29.0302 0.0297852 29.2073C0.0297852 29.3843 0.0297852 29.4839 0.0297852 29.6333C0.0297852 29.7827 0.0297852 29.91 0.0297852 30.0621C0.0297852 30.1313 0.0297852 30.1977 0.0297852 30.2668C0.134912 33.4434 0.759146 36.5814 1.87774 39.5564C2.37564 40.8778 2.97305 42.1596 3.66484 43.3906C3.94148 43.9218 4.26515 44.4446 4.59436 44.9592C5.00102 45.5927 5.42428 46.2151 5.88627 46.8127C6.34826 47.4102 6.76599 47.9469 7.24181 48.4725C7.89468 49.2102 8.58444 49.9203 9.31108 50.6027C9.95657 51.2039 10.6279 51.7747 11.325 52.3151C11.621 52.5502 11.9226 52.7743 12.2296 52.9901C12.4703 53.1644 12.711 53.3331 12.9572 53.4991C13.2034 53.6651 13.4524 53.8283 13.7041 53.986C13.8812 54.0966 14.0582 54.2045 14.238 54.3096C14.2132 54.2599 14.191 54.2128 14.1689 54.163C13.5243 52.7743 13.4967 50.7244 14.8799 50.0245C15.1591 49.9251 15.4227 49.7863 15.6627 49.6123C16.2797 49.0286 15.7734 47.8252 16.3903 47.2415C16.7361 46.9178 17.2783 46.9427 17.7099 46.7463C18.4817 46.3894 18.7307 45.3991 18.6726 44.5332C18.6145 43.6673 18.3213 42.8567 18.4181 42.0102ZM4.01064 34.3805C4.01064 34.1038 4.01064 33.7885 3.99681 33.4897C3.99681 33.7885 4.01618 34.09 4.01064 34.3805ZM4.43391 38.5467C4.51136 38.6739 4.59436 38.8012 4.68011 38.9257C4.59159 38.8012 4.5086 38.6656 4.43114 38.5467H4.43391Z" fill="#F0F4FE"/>
<path d="M1.83046 20.6843C2.38374 20.2168 3.32155 20.1615 3.74204 20.7452C4.04358 21.1629 3.97442 21.73 3.8942 22.2418C3.78907 22.9242 3.68118 23.6093 3.57053 24.2972C3.51851 24.5001 3.52815 24.714 3.59819 24.9114C3.8029 25.3457 4.51387 25.2627 4.78774 24.8754C5.06162 24.4881 5.03395 23.9542 4.95926 23.4922C4.88457 23.0302 4.78774 22.5157 4.95926 22.0703C5.42125 20.9637 7.06726 21.1352 8.01891 20.4104C8.61092 19.965 8.87649 19.2209 9.22783 18.568C9.57916 17.9151 10.1684 17.2623 10.9098 17.2955C11.1588 17.2955 11.405 17.3951 11.654 17.3868C12.3843 17.3646 12.8103 16.2802 12.293 15.7767C12.1714 15.6792 12.0627 15.5667 11.9693 15.442C11.9189 15.3127 11.9142 15.1701 11.956 15.0377C11.9977 14.9054 12.0835 14.7913 12.1989 14.7144C12.4359 14.5714 12.7031 14.4861 12.9791 14.4654C13.6043 14.3631 14.2267 14.2662 14.8519 14.1694C15.5435 14.0615 16.426 13.7074 16.3292 13.0158C16.2462 12.4183 15.4356 12.1499 15.3167 11.5579C15.3071 11.4105 15.2801 11.2647 15.2365 11.1236C15.0483 10.7418 14.4785 10.8968 14.1133 11.0987C14.0669 10.9658 13.9902 10.8455 13.8892 10.7473C13.7882 10.6491 13.6658 10.5758 13.5316 10.5331C13.3974 10.4904 13.2551 10.4796 13.116 10.5014C12.9769 10.5232 12.8448 10.5771 12.7301 10.6589C12.3594 10.9659 12.3124 11.4888 12.1768 11.9618C11.8725 13.0684 10.9873 13.9149 10.1435 14.6978C9.86687 14.9551 9.5432 15.2345 9.15867 15.2511C8.77414 15.2677 8.37024 14.8583 8.54729 14.5208C8.66901 14.2884 9.00098 14.1556 8.96778 13.8955C8.92352 13.5719 8.35641 13.594 8.24575 13.2842C8.46983 12.3685 9.52107 11.9895 10.3261 11.4971C11.3136 10.8968 12.0639 9.97453 12.4507 8.88559C12.4925 8.803 12.5165 8.71259 12.5212 8.62017C12.526 8.52775 12.5114 8.43535 12.4784 8.34891C12.3566 8.11929 12.0468 8.07227 11.784 8.07227C11.1643 8.07227 10.4008 8.14696 10.1629 8.72514C10.0439 9.03497 10.1297 9.38631 10.0577 9.71274C9.8392 10.6755 8.51963 10.7806 7.7146 11.356C7.43033 11.6128 7.127 11.8477 6.80722 12.0587C6.4123 12.199 5.99519 12.2665 5.57617 12.2578L5.35209 12.28C5.12525 12.6617 4.8818 13.0131 4.64389 13.381C4.40598 13.7489 4.17913 14.1196 3.96059 14.4876C2.915 16.2775 2.06365 18.174 1.42103 20.1449C1.19418 20.8402 0.994079 21.5437 0.820718 22.2556C0.649201 22.9694 0.499815 23.6942 0.380859 24.4273C0.628795 23.836 0.806147 23.2176 0.909243 22.5848C1.0614 21.896 1.28824 21.1629 1.83046 20.6843Z" fill="#F0F4FE"/>
<g opacity="0.6">
<path d="M56.6519 18.9956C56.7902 19.3663 56.9285 19.7398 57.0447 20.1022C56.9202 19.7287 56.7902 19.3552 56.6519 18.9956Z" fill="#F0F4FE"/>
</g>
<path d="M58.4834 28.8116C58.4834 28.3911 58.4668 27.9817 58.4447 27.5557C58.4225 27.1296 58.3893 26.7257 58.3479 26.3163C58.3174 25.9816 58.2787 25.6551 58.2317 25.3259C58.1846 24.9967 58.1376 24.6316 58.0795 24.2885C57.906 23.2628 57.6779 22.247 57.3962 21.2455C57.2855 20.8637 57.1694 20.4847 57.0476 20.1085C56.9231 19.735 56.7931 19.3616 56.6548 19.0019C56.5054 18.7253 56.3477 18.4486 56.1762 18.172C54.5523 15.5992 52.1898 13.5798 50.4055 11.1177C49.8218 10.3154 49.3681 9.65424 48.3335 9.49655C46.8064 9.26141 46.0346 10.1301 44.9501 8.66663C44.6735 8.27933 44.1507 7.91694 43.7191 8.14932C43.8298 8.45915 43.9459 8.76899 44.0566 9.08436C44.085 9.14868 44.0973 9.21893 44.0926 9.28907C44.0704 9.50485 43.7468 9.56571 43.5614 9.44676C43.3962 9.29664 43.2586 9.11875 43.1547 8.92114C43.0272 8.75544 42.8664 8.61825 42.6827 8.51838C42.499 8.41851 42.2964 8.35817 42.088 8.34123C41.8796 8.3243 41.6699 8.35115 41.4725 8.42005C41.2751 8.48895 41.0942 8.59839 40.9416 8.74133C40.9268 8.59461 40.8741 8.45427 40.7888 8.33401C40.7034 8.21375 40.5883 8.1177 40.4547 8.05526C40.4342 8.19321 40.385 8.32535 40.3104 8.4432C40.2358 8.56105 40.1374 8.66202 40.0215 8.73963C39.9056 8.81724 39.7747 8.86978 39.6374 8.89389C39.5 8.918 39.3591 8.91315 39.2237 8.87965C39.1352 8.60301 39.6414 8.54768 39.8157 8.307C39.99 8.06632 39.7825 7.75372 39.575 7.5739C39.0144 7.08838 38.3025 6.81263 37.5611 6.79378C37.0936 6.79378 36.5901 6.87123 36.1779 6.63056C35.9427 6.49224 35.7767 6.25986 35.5361 6.12707C35.0215 5.83383 34.3769 6.10217 33.8596 6.40371C33.1514 6.79654 32.4183 7.29173 32.1693 8.06356C31.9204 8.83538 32.4764 9.87279 33.2759 9.77596C33.474 9.71233 33.6828 9.68882 33.8901 9.7068C34.1667 9.78426 34.3078 10.119 34.3299 10.415C34.3142 10.7099 34.3604 11.0049 34.4655 11.2809C34.6038 11.5409 35.0187 11.6682 35.1875 11.4247C35.5665 11.0623 35.5195 10.4565 35.4226 9.94195C35.3258 9.42739 35.2235 8.84921 35.5305 8.42872C35.8376 8.00823 36.7201 8.15208 36.6592 8.6611C36.6233 8.9654 36.2747 9.18672 36.2885 9.49102C36.3024 9.79533 36.6869 9.97238 37.0023 9.95854C37.3176 9.94471 37.6358 9.83129 37.9428 9.91151C38.2499 9.99174 38.4961 10.3873 38.2748 10.6142C37.8903 11.0513 36.8916 10.3043 36.6924 10.8466C36.6669 10.9936 36.6623 11.1436 36.6786 11.292C36.6399 11.7456 36.0727 11.9116 35.6191 11.967C35.1695 12.0579 34.7037 12.0244 34.2718 11.8701C33.8596 11.6737 33.5774 11.1343 33.8126 10.7442C33.7495 10.7121 33.6804 10.6933 33.6097 10.6891C33.539 10.6849 33.4682 10.6953 33.4018 10.7197C33.3353 10.7441 33.2746 10.782 33.2234 10.831C33.1722 10.8799 33.1317 10.9389 33.1044 11.0042C33.0085 11.2703 32.9903 11.5581 33.0518 11.8342C32.5705 11.729 32.1417 12.1357 31.8678 12.5396C31.5939 12.9435 31.3145 13.4193 30.8581 13.5632C30.4016 13.707 29.7377 13.5106 29.4915 13.9366C29.1733 14.4899 30.1001 15.1954 29.7681 15.7486C29.5828 16.0585 29.1374 16.0474 28.786 16.1442C27.8538 16.4209 27.5301 17.7709 28.1664 18.4984C28.8026 19.226 30.0669 19.1817 30.7391 18.4984C31.2066 18.0226 31.3975 17.3504 31.735 16.7777C32.0725 16.2051 32.7116 15.6878 33.3506 15.8731C33.5965 15.9671 33.8213 16.1091 34.0118 16.2908C34.3216 16.5509 34.6314 16.8082 34.9441 17.0737C35.1432 17.2397 35.359 17.4472 35.3397 17.7072C35.3231 17.9147 35.1598 18.0779 35.0907 18.2605C34.897 18.8138 35.7076 19.3671 36.2166 19.049C36.7256 18.7308 36.7699 17.959 36.4324 17.4776C35.951 16.8109 34.8638 16.479 34.8915 15.6546C35.4448 15.2009 36.3217 15.6767 36.6454 16.3213C36.9691 16.9659 36.9801 17.7045 37.254 18.3823C37.5279 19.06 38.2914 19.6354 38.9277 19.3118C38.7617 18.7391 38.6012 18.1692 38.4325 17.5994C38.8419 17.2951 39.3094 18.1831 39.7936 18.0337C40.0923 17.9424 40.1283 17.5164 39.9983 17.2287C39.8683 16.941 39.6414 16.7003 39.5861 16.3987C39.4948 15.8455 40.1228 15.3309 40.6926 15.4222C40.9713 15.4918 41.2231 15.6425 41.4161 15.8553C41.6091 16.068 41.7348 16.3332 41.7771 16.6173C41.7976 16.843 41.8469 17.0652 41.9237 17.2785C42.1367 17.7238 42.6872 17.8566 43.1409 18.042C43.5946 18.2273 44.0732 18.6866 43.8823 19.1485C43.7938 19.3477 43.5863 19.5358 43.661 19.7406C43.7357 19.9453 43.9985 20.0006 43.9985 20.1942C43.9985 20.3243 43.8602 20.4128 43.7385 20.4709C43.4342 20.5954 43.0994 20.6369 42.8034 20.7807C42.6482 20.8382 42.5131 20.9397 42.4148 21.0729C42.3165 21.2061 42.2593 21.3651 42.2501 21.5304C42.2889 21.9952 42.8394 22.2165 43.0994 22.601C43.3595 22.9856 43.3124 23.4531 43.4701 23.8708C43.6563 24.2379 43.8908 24.5784 44.1672 24.8833C44.9363 25.929 45.1161 27.2763 45.4924 28.5184C45.6583 29.0716 45.9654 29.7024 46.5381 29.8103C46.8578 29.8349 47.1783 29.7718 47.4648 29.6277C48.2947 29.3013 49.1551 28.9472 49.7333 28.2777C50.3114 27.6082 50.5106 26.5044 49.9131 25.8432C49.8459 25.751 49.7477 25.6862 49.6364 25.6607C49.4807 25.6717 49.3307 25.7242 49.2021 25.8128C48.9826 25.8936 48.7448 25.9105 48.5161 25.8615C48.2874 25.8125 48.0773 25.6997 47.9102 25.5362C47.5814 25.2052 47.3202 24.8134 47.1411 24.3826C46.9143 23.9261 46.6874 23.4614 46.4551 22.9994C46.7317 22.767 47.1633 22.8638 47.4454 23.0907C47.6992 23.3434 47.9263 23.6215 48.1232 23.9206C48.812 24.7809 49.9463 25.1599 51.0445 25.3038C51.3283 25.3187 51.6081 25.3765 51.8745 25.4753C52.7044 25.8516 52.9285 27.0577 53.7943 27.3177C54.043 27.3571 54.2888 27.4125 54.5302 27.4837C54.6917 27.585 54.8301 27.7191 54.9364 27.8773C55.0427 28.0355 55.1145 28.2144 55.1471 28.4022C55.3352 29.0827 55.4016 29.7992 55.7004 30.4465C55.9992 31.0939 56.5608 31.6831 57.2634 31.6914C57.4843 31.6869 57.7021 31.6384 57.904 31.5486C58.1059 31.4588 58.2878 31.3296 58.4391 31.1686C58.4779 30.5295 58.5 29.8905 58.5 29.2321C58.4917 29.0799 58.4917 28.9444 58.4834 28.8116Z" fill="#F0F4FE"/>
<path d="M35.089 68.159H26.5132C26.2608 68.159 26.0187 68.0587 25.8403 67.8803C25.6618 67.7018 25.5615 67.4597 25.5615 67.2073C25.5612 67.0821 25.5855 66.9581 25.6332 66.8423C25.6808 66.7265 25.7509 66.6213 25.8393 66.5326C25.9277 66.444 26.0327 66.3736 26.1484 66.3256C26.264 66.2776 26.388 66.2529 26.5132 66.2529H35.089C35.2142 66.2529 35.3382 66.2776 35.4539 66.3256C35.5695 66.3736 35.6745 66.444 35.7629 66.5326C35.8513 66.6213 35.9214 66.7265 35.969 66.8423C36.0167 66.9581 36.041 67.0821 36.0407 67.2073C36.0407 67.4597 35.9404 67.7018 35.7619 67.8803C35.5835 68.0587 35.3414 68.159 35.089 68.159Z" fill="#270937"/>
<path d="M36.4695 67.6533H21.5475C20.1786 67.6533 19.0688 68.7631 19.0688 70.132V96.85C19.0688 98.2189 20.1786 99.3287 21.5475 99.3287H36.4695C37.8385 99.3287 38.9482 98.2189 38.9482 96.85V70.132C38.9482 68.7631 37.8385 67.6533 36.4695 67.6533Z" fill="#C68F34"/>
<g opacity="0.3">
<path d="M36.4695 67.6533H21.5475C20.1786 67.6533 19.0688 68.7631 19.0688 70.132V96.85C19.0688 98.2189 20.1786 99.3287 21.5475 99.3287H36.4695C37.8385 99.3287 38.9482 98.2189 38.9482 96.85V70.132C38.9482 68.7631 37.8385 67.6533 36.4695 67.6533Z" fill="#270937"/>
</g>
<path d="M41.1878 67.6533H26.2658C24.8969 67.6533 23.7871 68.7631 23.7871 70.132V96.85C23.7871 98.2189 24.8969 99.3287 26.2658 99.3287H41.1878C42.5568 99.3287 43.6665 98.2189 43.6665 96.85V70.132C43.6665 68.7631 42.5568 67.6533 41.1878 67.6533Z" fill="#C68F34"/>
<path d="M43.499 94.0324C43.499 94.0711 39.0728 94.1043 33.6064 94.1043C28.14 94.1043 23.7109 94.0711 23.7109 94.0324C23.7109 93.9936 28.1372 93.9604 33.6064 93.9604C39.0756 93.9604 43.499 93.9936 43.499 94.0324Z" fill="#270937"/>
<path d="M43.499 89.6676C43.499 89.7064 39.0728 89.7396 33.6064 89.7396C28.14 89.7396 23.7109 89.7064 23.7109 89.6676C23.7109 89.6289 28.1372 89.5957 33.6064 89.5957C39.0756 89.5957 43.499 89.6289 43.499 89.6676Z" fill="#270937"/>
<path d="M43.499 85.3107C43.499 85.3494 39.0728 85.3826 33.6064 85.3826C28.14 85.3826 23.7109 85.3494 23.7109 85.3107C23.7109 85.272 28.1372 85.2388 33.6064 85.2388C39.0756 85.2388 43.499 85.2609 43.499 85.3107Z" fill="#270937"/>
<path d="M43.499 80.9367C43.499 80.9754 39.0728 81.0086 33.6064 81.0086C28.14 81.0086 23.7109 80.9754 23.7109 80.9367C23.7109 80.8979 28.1372 80.8647 33.6064 80.8647C39.0756 80.8647 43.499 80.8841 43.499 80.9367Z" fill="#270937"/>
<path d="M43.499 76.569C43.499 76.6105 39.0728 76.6409 33.6064 76.6409C28.14 76.6409 23.7109 76.6105 23.7109 76.569C23.7109 76.5275 28.1372 76.4971 33.6064 76.4971C39.0756 76.4971 43.499 76.5303 43.499 76.569Z" fill="#270937"/>
<path d="M43.499 72.2047C43.499 72.2462 39.0728 72.2767 33.6064 72.2767C28.14 72.2767 23.7109 72.2462 23.7109 72.2047C23.7109 72.1632 28.1372 72.1328 33.6064 72.1328C39.0756 72.1328 43.499 72.166 43.499 72.2047Z" fill="#270937"/>
<path d="M40.3703 101.043C40.3703 101.383 40.2697 101.714 40.0812 101.996C39.8928 102.278 39.6249 102.498 39.3115 102.628C38.9981 102.758 38.6532 102.792 38.3205 102.726C37.9878 102.659 37.6822 102.496 37.4423 102.256C37.2024 102.016 37.0391 101.711 36.9729 101.378C36.9067 101.045 36.9407 100.7 37.0705 100.387C37.2003 100.074 37.4202 99.8056 37.7022 99.6172C37.9843 99.4287 38.3159 99.3281 38.6551 99.3281C38.8805 99.3278 39.1037 99.3719 39.3119 99.4579C39.5202 99.544 39.7094 99.6703 39.8687 99.8297C40.0281 99.989 40.1544 100.178 40.2405 100.387C40.3265 100.595 40.3707 100.818 40.3703 101.043Z" fill="#270937"/>
<path d="M41.5656 101.043C41.5656 101.383 41.465 101.714 41.2765 101.996C41.0881 102.278 40.8202 102.498 40.5068 102.628C40.1934 102.758 39.8485 102.792 39.5158 102.726C39.1831 102.659 38.8775 102.496 38.6376 102.256C38.3977 102.016 38.2344 101.711 38.1682 101.378C38.102 101.045 38.136 100.7 38.2658 100.387C38.3956 100.074 38.6155 99.8056 38.8975 99.6172C39.1796 99.4287 39.5112 99.3281 39.8504 99.3281C40.3053 99.3281 40.7416 99.5088 41.0632 99.8305C41.3849 100.152 41.5656 100.588 41.5656 101.043Z" fill="#270937"/>
<path d="M26.7292 101.043C26.7292 101.383 26.6286 101.714 26.4401 101.996C26.2516 102.278 25.9838 102.498 25.6704 102.628C25.357 102.758 25.0121 102.792 24.6794 102.726C24.3467 102.659 24.0411 102.496 23.8012 102.256C23.5613 102.016 23.398 101.711 23.3318 101.378C23.2656 101.045 23.2996 100.7 23.4294 100.387C23.5592 100.074 23.779 99.8056 24.0611 99.6172C24.3432 99.4287 24.6748 99.3281 25.014 99.3281C25.2393 99.3278 25.4625 99.3719 25.6708 99.4579C25.8791 99.544 26.0683 99.6703 26.2276 99.8297C26.387 99.989 26.5133 100.178 26.5994 100.387C26.6854 100.595 26.7295 100.818 26.7292 101.043Z" fill="#270937"/>
<path d="M27.924 101.043C27.924 101.383 27.8234 101.714 27.6349 101.996C27.4465 102.278 27.1786 102.498 26.8652 102.628C26.5518 102.758 26.2069 102.792 25.8742 102.726C25.5415 102.659 25.2359 102.496 24.996 102.256C24.7561 102.016 24.5928 101.711 24.5266 101.378C24.4604 101.045 24.4944 100.7 24.6242 100.387C24.754 100.074 24.9739 99.8056 25.2559 99.6172C25.538 99.4287 25.8696 99.3281 26.2088 99.3281C26.6637 99.3281 27.1 99.5088 27.4216 99.8305C27.7433 100.152 27.924 100.588 27.924 101.043Z" fill="#270937"/>
<path d="M21.3014 76.5688H21.2986C20.7119 76.5688 20.2363 77.0445 20.2363 77.6311V86.8211C20.2363 87.4078 20.7119 87.8834 21.2986 87.8834H21.3014C21.8881 87.8834 22.3637 87.4078 22.3637 86.8211V77.6311C22.3637 77.0445 21.8881 76.5688 21.3014 76.5688Z" fill="#270937"/>
<path d="M21.7105 99.0437C21.6854 99.0303 21.6621 99.0135 21.6414 98.9939L21.4505 98.8362C21.2188 98.6152 21.0203 98.3617 20.8612 98.0838C20.4269 97.3617 20.1696 96.1473 20.1779 94.6645C20.2277 91.7017 20.3439 87.6157 20.4546 83.1009C20.5652 78.5861 20.7035 74.5057 20.7893 71.5373C20.7835 70.8683 20.8428 70.2003 20.9664 69.5428C21.068 69.0418 21.301 68.5769 21.6414 68.1955C21.8565 67.9551 22.1272 67.7709 22.4298 67.6588C22.5349 67.6203 22.6447 67.5961 22.7562 67.5869C22.7562 67.5869 22.6428 67.609 22.4408 67.6865C22.1474 67.8074 21.8874 67.9971 21.6829 68.2398C21.3573 68.6189 21.137 69.0767 21.0438 69.5677C20.9315 70.2208 20.8806 70.883 20.8917 71.5456C20.817 74.514 20.7146 78.5972 20.5984 83.1092C20.4822 87.6212 20.355 91.7017 20.272 94.67C20.2499 96.1445 20.4905 97.3451 20.9027 98.0616C21.1133 98.4332 21.3866 98.7655 21.7105 99.0437Z" fill="#270937"/>
<path d="M55.7782 46.4795L51.9993 48.9278L51.6562 52.7454C51.6562 52.7454 52.7628 53.2627 54.3978 51.7799C56.0327 50.2971 58.1518 47.2928 58.1518 47.2928L55.7782 46.4795Z" fill="#F9F6F1"/>
<path d="M55.6095 48.0442L54.3729 41.77L51.0698 43.0758L51.9136 51.3418L55.6095 48.0442Z" fill="#F9F6F1"/>
<path d="M64.5565 40.1029C64.5322 40.0372 64.4915 39.9787 64.4383 39.9332C64.385 39.8877 64.3209 39.8566 64.2522 39.8429L61.8786 39.3892C61.7751 39.3706 61.6689 39.3741 61.5669 39.3993C61.4649 39.4246 61.3694 39.4711 61.2866 39.5358L54.1216 45.1738L54.4148 45.5002L56.9488 46.272L64.598 40.2191L64.5565 40.1029Z" fill="#270937"/>
<path d="M62.6314 40.4963C62.64 40.5311 62.6593 40.5624 62.6866 40.5857C62.7139 40.609 62.7478 40.6231 62.7835 40.6261C62.8193 40.6291 62.8551 40.6209 62.8859 40.6025C62.9167 40.5841 62.9409 40.5565 62.9552 40.5236C62.9695 40.4907 62.9732 40.4541 62.9656 40.4191C62.9581 40.384 62.9397 40.3522 62.9131 40.3281C62.8865 40.304 62.8531 40.2889 62.8174 40.2848C62.7818 40.2807 62.7457 40.2879 62.7144 40.3054C62.6789 40.3207 62.6506 40.349 62.6352 40.3844C62.6198 40.4199 62.6184 40.4599 62.6314 40.4963Z" fill="white"/>
<path d="M64.598 40.2186C64.4409 40.2088 64.2846 40.1875 64.1305 40.155L62.8663 39.9337L61.9921 39.7732C61.92 39.7552 61.8449 39.7536 61.7721 39.7685C61.6994 39.7833 61.6309 39.8142 61.5716 39.859L61.1594 40.1826L59.328 41.6267C58.0251 42.6503 56.8383 43.5632 55.9807 44.2271L54.9571 45.0045C54.8356 45.1069 54.7061 45.1994 54.5698 45.2811C54.6774 45.1666 54.795 45.062 54.9212 44.9685L55.9171 44.1552C56.7636 43.4774 57.9365 42.5451 59.2368 41.5216L61.0764 40.0858L61.4914 39.7649C61.5645 39.7104 61.6489 39.6727 61.7383 39.6545C61.8277 39.6363 61.92 39.6381 62.0087 39.6598L62.8773 39.8396L64.1361 40.1162C64.2927 40.1369 64.4473 40.1711 64.598 40.2186Z" fill="#270937"/>
<path d="M61.203 41.9468C61.203 41.9468 61.0149 41.8417 60.7161 42.3563C60.4173 42.8708 59.521 44.337 59.521 44.337L58.669 43.4158L57.2858 43.1392C57.2858 43.1392 56.904 43.3079 57.0672 43.5264C57.3575 43.7788 57.6759 43.997 58.0161 44.1766L58.3342 45.2831L56.8376 43.8142C56.8376 43.8142 56.193 43.7671 56.2428 44.1876C56.2926 44.6081 57.106 46.1435 57.106 46.1435L56.2401 45.7728L55.4101 44.7741C55.4101 44.7741 55.0809 44.68 55.1058 44.9954C55.1307 45.3108 55.8943 46.6829 55.8943 46.6829L57.0008 47.7895C57.0008 47.7895 57.745 47.9776 57.8888 47.7895C57.9929 47.6356 58.0809 47.4716 58.1517 47.2998C58.1517 47.2998 58.5721 47.3275 58.7049 47.1643C58.8011 47.0218 58.8662 46.8606 58.8958 46.6912C58.8958 46.6912 59.4657 47.0038 59.6538 46.6912C59.8511 46.2884 59.9801 45.8555 60.0356 45.4104C60.0605 45.1337 61.2002 42.8266 61.2002 42.7436C61.2002 42.6606 61.6373 41.9164 61.203 41.9468Z" fill="#F9F6F1"/>
<path d="M57.9648 47.843C57.8384 47.8739 57.7066 47.8739 57.5802 47.843C57.2738 47.7862 56.9809 47.6716 56.7171 47.5055C56.4523 47.3403 56.2221 47.1251 56.0394 46.872C55.9535 46.7747 55.8927 46.6579 55.8623 46.5317C56.136 46.8538 56.4493 47.1401 56.7946 47.3838C57.165 47.5828 57.5578 47.737 57.9648 47.843Z" fill="#E1DEDA"/>
<path d="M57.7817 47.2148C57.7513 47.2397 57.5576 47.035 57.375 46.7417C57.1924 46.4485 57.0984 46.1885 57.1316 46.1691C57.1648 46.1497 57.3197 46.3821 57.4967 46.667C57.6738 46.952 57.8149 47.1899 57.7817 47.2148Z" fill="#E1DEDA"/>
<path d="M58.8713 46.3044C58.8409 46.3293 58.6472 46.1274 58.4868 45.8286C58.3679 45.6577 58.3015 45.4558 58.2959 45.2476C58.3346 45.2338 58.4563 45.4717 58.6113 45.7594C58.7662 46.0471 58.9045 46.2795 58.8713 46.3044Z" fill="#E1DEDA"/>
<path d="M59.9233 45.6301C59.8337 45.425 59.7633 45.212 59.713 44.9939C59.6236 44.7922 59.5523 44.583 59.5 44.3687C59.6622 44.534 59.7853 44.7337 59.86 44.9531C59.9347 45.1724 59.9591 45.4056 59.9316 45.6357L59.9233 45.6301Z" fill="#E1DEDA"/>
<path d="M43.2054 16.806C43.3779 16.1204 43.7543 15.5032 44.285 15.036C44.8157 14.5689 45.4756 14.2737 46.1775 14.1894C46.8795 14.1052 47.5905 14.2359 48.2166 14.5643C48.8428 14.8927 49.3545 15.4033 49.6843 16.0287C50.3012 17.1961 50.2902 18.7508 51.3165 19.5863C52.0192 20.1589 53.04 20.2226 53.726 20.8146C55.1784 22.0705 54.3374 24.8563 55.8783 26.0016C54.9124 26.7875 53.7753 27.3353 52.5586 27.6006C52.4734 27.1807 52.2654 26.7955 51.9611 26.494C52.2211 27.1994 51.8311 28.0128 51.2307 28.4664C50.6304 28.9201 49.8669 29.0861 49.1283 29.2161C47.3467 29.537 45.5015 29.7141 43.7338 29.3268C41.966 28.9395 40.2702 27.9021 39.4376 26.2838C39.2245 25.8771 39.0613 25.4262 38.7211 25.1191C38.3808 24.812 37.8386 24.6765 37.3821 24.4745C36.7599 24.1846 36.2375 23.717 35.8806 23.1307C35.5237 22.5444 35.3483 21.8656 35.3765 21.1797C36.5467 21.105 37.3517 19.9763 37.822 18.903C38.2923 17.8296 38.6768 16.6152 39.6395 15.9457C39.9604 15.7227 40.3278 15.5757 40.7139 15.5159C41.1 15.4561 41.4947 15.485 41.868 15.6004C42.2413 15.7159 42.5834 15.9148 42.8683 16.1822C43.1533 16.4496 43.3735 16.7783 43.5125 17.1435" fill="#270937"/>
<path d="M40.4419 19.3774L40.3921 18.3926L46.2735 17.0841C48.091 16.8351 50.1215 18.6028 50.2931 20.4287C50.4839 22.4592 50.6389 24.9462 50.4452 26.4705C50.0552 29.5384 47.7286 29.9977 47.7286 29.9977L47.8088 33.7295L41.0699 33.4889L40.4419 19.3774Z" fill="#F9F6F1"/>
<path d="M49.4822 22.6928C49.4867 22.7949 49.451 22.8948 49.3827 22.9708C49.3144 23.0469 49.219 23.0931 49.117 23.0995C49.0673 23.1052 49.0169 23.1009 48.9689 23.0868C48.9208 23.0726 48.8761 23.049 48.8374 23.0173C48.7987 22.9855 48.7668 22.9463 48.7435 22.902C48.7203 22.8577 48.7062 22.8091 48.702 22.7592C48.6975 22.6571 48.7332 22.5573 48.8015 22.4812C48.8698 22.4052 48.9652 22.359 49.0672 22.3526C49.1169 22.3468 49.1673 22.3511 49.2153 22.3653C49.2634 22.3794 49.3081 22.403 49.3468 22.4348C49.3855 22.4665 49.4174 22.5057 49.4407 22.55C49.4639 22.5944 49.4781 22.6429 49.4822 22.6928Z" fill="#270937"/>
<path d="M49.687 21.7435C49.64 21.7961 49.3384 21.5858 48.9179 21.5996C48.4974 21.6135 48.1931 21.8348 48.1461 21.785C48.0991 21.7352 48.1682 21.6688 48.301 21.5664C48.4786 21.4337 48.6935 21.3601 48.9152 21.3562C49.1344 21.3479 49.3506 21.41 49.5321 21.5332C49.6648 21.6301 49.7119 21.7214 49.687 21.7435Z" fill="#270937"/>
<path d="M45.5601 22.8727C45.5647 22.9748 45.5289 23.0746 45.4607 23.1507C45.3924 23.2267 45.2969 23.2729 45.1949 23.2794C45.1452 23.2851 45.0948 23.2808 45.0468 23.2666C44.9988 23.2525 44.9541 23.2289 44.9154 23.1971C44.8767 23.1654 44.8447 23.1262 44.8215 23.0819C44.7982 23.0375 44.7841 22.989 44.78 22.9391C44.7768 22.8373 44.813 22.7383 44.881 22.6626C44.9491 22.5868 45.0436 22.5402 45.1451 22.5324C45.1948 22.5271 45.245 22.5317 45.2929 22.546C45.3408 22.5602 45.3853 22.5839 45.424 22.6156C45.4626 22.6472 45.4945 22.6863 45.5179 22.7304C45.5413 22.7746 45.5556 22.8229 45.5601 22.8727Z" fill="#270937"/>
<path d="M45.5509 21.9613C45.5039 22.0138 45.1996 21.8036 44.7791 21.8174C44.3586 21.8312 44.057 22.0526 44.0072 22.0028C43.9574 21.953 44.0321 21.8866 44.1622 21.7842C44.3408 21.6514 44.5565 21.5779 44.7791 21.574C44.9975 21.5657 45.2127 21.6278 45.3932 21.751C45.526 21.8395 45.573 21.9281 45.5509 21.9613Z" fill="#270937"/>
<path d="M47.1749 25.0274C47.3947 24.9507 47.6234 24.9023 47.8554 24.8835C47.9633 24.8669 48.0657 24.842 48.0795 24.7701C48.0866 24.6583 48.0586 24.5471 47.9993 24.452C47.8886 24.1947 47.7752 23.9264 47.6563 23.6442C47.1777 22.4906 46.8263 21.5417 46.8734 21.5251C46.9204 21.5085 47.3464 22.4242 47.825 23.575C47.9384 23.8517 48.0491 24.1283 48.1542 24.3911C48.226 24.5188 48.2505 24.6677 48.2234 24.8116C48.2083 24.8493 48.1851 24.8832 48.1555 24.9109C48.1258 24.9387 48.0905 24.9595 48.0518 24.9721C47.9927 24.9911 47.9313 25.0022 47.8693 25.0053C47.6396 25.0408 47.4064 25.0482 47.1749 25.0274Z" fill="#270937"/>
<path d="M47.7258 30.005C46.256 30.0738 44.7954 29.74 43.5015 29.0396C43.5015 29.0396 44.608 31.1448 47.7479 30.7658L47.7258 30.005Z" fill="#0A0A0C" fill-opacity="0.1"/>
<path d="M47.0283 26.0489C46.9453 25.9501 46.8385 25.8741 46.7179 25.8281C46.5974 25.7821 46.4671 25.7677 46.3394 25.7861C46.2466 25.7988 46.1573 25.8298 46.0766 25.8773C45.9958 25.9248 45.9253 25.9878 45.8691 26.0627C45.8154 26.1344 45.7849 26.2209 45.782 26.3105C45.779 26.4001 45.8036 26.4884 45.8525 26.5635C45.9218 26.6371 46.0115 26.6883 46.1101 26.7105C46.2087 26.7326 46.3117 26.7248 46.4058 26.6879C46.6022 26.6108 46.7817 26.4962 46.9342 26.3504C46.9807 26.3147 47.0201 26.2706 47.0504 26.2204C47.0661 26.1971 47.0745 26.1697 47.0745 26.1416C47.0745 26.1135 47.0661 26.086 47.0504 26.0627" fill="#0A0A0C" fill-opacity="0.1"/>
<path d="M45.9448 25.3565C46.0112 25.3565 46.0278 25.8074 46.429 26.12C46.8301 26.4326 47.3142 26.3662 47.3197 26.4299C47.3253 26.4935 47.2146 26.5239 47.0099 26.535C46.7417 26.5481 46.4777 26.4647 46.2657 26.2998C46.061 26.1448 45.9257 25.9151 45.8895 25.6608C45.8674 25.4699 45.9144 25.3537 45.9448 25.3565Z" fill="#270937"/>
<path d="M45.6095 20.7592C45.5708 20.8754 45.1476 20.8339 44.6551 20.9086C44.1627 20.9833 43.7671 21.1299 43.7007 21.0304C43.6675 20.9806 43.7339 20.8727 43.8916 20.7537C44.1012 20.6064 44.3432 20.5115 44.597 20.4771C44.8485 20.4392 45.1053 20.461 45.3467 20.5407C45.5293 20.6182 45.6234 20.7039 45.6095 20.7592Z" fill="#270937"/>
<path d="M49.6316 20.3009C49.5597 20.3977 49.2664 20.3009 48.9179 20.3148C48.5693 20.3286 48.2761 20.4005 48.2041 20.3009C48.1737 20.2539 48.2041 20.1571 48.3424 20.063C48.5116 19.9475 48.7117 19.8857 48.9165 19.8857C49.1213 19.8857 49.3214 19.9475 49.4905 20.063C49.6178 20.1571 49.662 20.2539 49.6316 20.3009Z" fill="#270937"/>
<path d="M46.1823 17.2131C46.1388 17.856 45.9051 18.4714 45.5111 18.9812C45.117 19.491 44.5803 19.8722 43.9692 20.0764C43.4823 20.2313 42.8626 20.353 42.7105 20.8316C42.5583 21.3102 43.0148 21.7998 43.2389 22.2812C43.3702 22.5803 43.4103 22.9116 43.3542 23.2334C43.2981 23.5552 43.1483 23.8533 42.9235 24.0904C42.6662 24.367 42.3204 24.5275 42.077 24.8041C41.9194 24.994 41.8069 25.2171 41.748 25.4567C41.6891 25.6962 41.6852 25.9461 41.7367 26.1873C41.8411 26.6705 42.0958 27.1083 42.4643 27.4378C41.3107 27.5042 40.0437 26.9177 39.6674 25.8249C39.4434 25.1721 39.5595 24.4611 39.6508 23.7778C39.8586 22.2194 39.9225 20.6451 39.8417 19.0749C39.7989 18.8109 39.8425 18.5402 39.9662 18.3031C40.1398 18.1037 40.374 17.9666 40.6329 17.913C42.2647 17.4063 43.9281 17.0079 45.6124 16.7207" fill="#270937"/>
<path d="M45.4985 16.7703C45.7894 17.3709 46.1721 17.9225 46.6328 18.4053C46.8656 18.6454 47.1508 18.8286 47.4661 18.9404C47.7813 19.0522 48.1182 19.0896 48.4503 19.0498C48.3313 18.8507 48.2124 18.6515 48.0962 18.4523C49.0265 19.4111 50.1468 20.1649 51.3854 20.6654C50.7768 19.5201 50.1461 18.3472 49.1723 17.4896C48.1985 16.632 46.7877 16.1451 45.576 16.6016" fill="#270937"/>
<path d="M48.1851 32.5215L40.666 31.9434L41.9275 35.927L48.3622 38.071L49.217 36.6269L48.1851 32.5215Z" fill="#F9F6F1"/>
<path d="M33.9104 38.9903C33.009 38.6998 32.0543 38.6135 31.1155 38.7378C30.1766 38.8622 29.2772 39.194 28.4826 39.7092C27.6879 40.2244 27.018 40.91 26.5213 41.7164C26.0246 42.5227 25.7137 43.4295 25.6112 44.371C25.412 46.1968 26.004 48.0559 25.6914 49.8651C25.4618 51.1985 24.7564 52.4019 24.4437 53.7187C23.7687 56.5543 25.1188 59.6831 27.4868 61.3706C29.8548 63.0581 33.0943 63.3375 35.8386 62.3582L38.6603 57.9319L36.7902 40.9241L33.9049 38.9876" fill="#270937"/>
<path d="M38.4159 51.0343C38.4159 51.0343 37.7714 54.4896 38.1587 55.0124C38.4124 55.3329 38.7801 55.5431 39.185 55.5989L51.656 54.6334L52.0709 47.77C52.0709 47.77 53.3269 43.0671 52.7487 41.0725C52.1705 39.0779 49.689 32.9725 49.689 32.9725L47.7775 32.3998C47.7775 32.3998 47.7775 34.3944 47.0748 34.5217C46.3721 34.6489 42.9722 34.671 41.3068 32.5215L40.665 31.9434L37.1074 34.5355L38.7507 48.5916L38.4159 51.0343Z" fill="#C68F34"/>
<path d="M32.7925 38.7436C32.7925 38.7436 35.1163 35.2552 36.0458 34.2704C37.5092 32.7212 39.5757 32.0904 40.0709 32.3781C40.7514 32.771 44.1458 36.3037 44.4169 38.6883C44.688 41.073 44.4169 46.9875 44.4169 46.9875L41.5482 47.8534L41.5177 44.9957L41.0419 37.9663C41.0419 37.9663 39.8662 34.6466 37.1108 34.5359C37.1108 34.5359 34.231 36.9565 34.1287 39.2859L32.7925 38.7436Z" fill="#270937"/>
<path d="M39.4794 51.9092L33.728 57.1654L35.2468 59.1931C35.2468 59.1931 42.243 54.7337 42.9734 50.2881L39.4794 51.9092Z" fill="#270937"/>
<path d="M32.2036 62.9183C31.9085 62.7557 31.6304 62.5639 31.3737 62.3457C30.6641 61.7545 30.0824 61.025 29.664 60.2017C29.3728 59.6352 29.1526 59.035 29.0084 58.4146C28.8575 57.6996 28.7796 56.971 28.776 56.2402C28.7483 54.6993 29.0001 53.0201 29.2961 51.2773C29.6176 49.6498 29.8119 47.9997 29.877 46.342C29.8876 45.6197 29.8367 44.8979 29.7249 44.1842C29.6142 43.5147 29.4731 42.8923 29.404 42.3141C29.3264 41.7932 29.3264 41.2637 29.404 40.7428C29.4627 40.3493 29.5901 39.9691 29.7802 39.6197C29.9004 39.3981 30.0565 39.198 30.2422 39.0276C30.305 38.9675 30.3736 38.9138 30.4469 38.8672C30.1971 39.0879 29.9882 39.3511 29.83 39.6445C29.6529 39.9914 29.5351 40.3654 29.4814 40.7511C29.4171 41.2643 29.4255 41.7839 29.5063 42.2948C29.5838 42.8674 29.7277 43.4843 29.8438 44.1593C29.9642 44.8787 30.0206 45.6072 30.0126 46.3365C29.9565 48.0025 29.7659 49.6613 29.4427 51.2966C29.1199 52.9237 28.9421 54.5762 28.9116 56.2347C28.9123 56.9556 28.9846 57.6747 29.1273 58.3814C29.2644 58.9951 29.4762 59.5898 29.7581 60.1519C30.1658 60.9691 30.7297 61.6984 31.4179 62.2986C31.5369 62.4065 31.6531 62.4951 31.7499 62.5753C31.8467 62.6555 31.9325 62.7164 32.0016 62.7634L32.1593 62.8768C32.1751 62.8896 32.1899 62.9034 32.2036 62.9183Z" fill="#270937"/>
<path d="M29.5281 49.6792C28.8677 49.752 28.2029 49.776 27.539 49.7511C26.8761 49.7761 26.2122 49.7521 25.5527 49.6792C26.2123 49.608 26.8761 49.5839 27.539 49.6073C28.2029 49.584 28.8676 49.608 29.5281 49.6792Z" fill="#270937"/>
<path d="M49.689 32.9727C49.689 32.9727 51.9298 33.9769 52.6988 35.2439C53.4679 36.5109 55.5537 43.7727 55.5537 43.7727L52.6214 44.3509L49.689 32.9727Z" fill="#C68F34"/>
<path d="M51.3144 43.4496C51.3144 43.4496 50.6393 36.8102 50.3572 36.3842C50.075 35.9582 49.6185 32.7215 48.1855 32.5112C48.1855 32.5112 49.696 32.8598 50.5674 33.4186C51.4388 33.9774 52.3849 36.9928 52.3849 36.9928L52.9382 42.249L51.3144 43.4496Z" fill="#270937"/>
<path d="M33.441 37.6376C33.3283 37.476 33.1889 37.3347 33.0288 37.2199C32.8493 37.1094 32.6446 37.0466 32.4341 37.0373C32.1752 37.0305 31.9195 37.0956 31.6954 37.2254C31.2877 37.4752 30.9699 37.8482 30.788 38.2905C30.6359 38.6307 30.5778 38.8576 30.5557 38.8438C30.5622 38.6366 30.6092 38.4326 30.694 38.2434C30.8593 37.7612 31.1894 37.3527 31.6263 37.0899C31.8729 36.948 32.1555 36.8808 32.4396 36.8962C32.6713 36.9126 32.8942 36.992 33.0842 37.1258C33.176 37.1816 33.2552 37.2559 33.3166 37.344C33.3781 37.4322 33.4204 37.5322 33.441 37.6376Z" fill="#270937"/>
<path d="M41.04 37.967C40.9734 37.8463 40.9143 37.7215 40.863 37.5935L40.7717 37.3888C40.733 37.3141 40.6915 37.2367 40.6444 37.1537C40.5974 37.0707 40.5476 36.9794 40.4978 36.877L40.3042 36.6004C39.977 36.1252 39.5688 35.7113 39.098 35.3777C38.5093 34.958 37.8242 34.6935 37.1062 34.6086C36.5698 34.5917 36.0428 34.7521 35.6068 35.0651H35.6234C35.6041 35.0844 35.5875 35.1065 35.5681 35.1287C34.4652 36.4265 33.4732 37.8146 32.6025 39.2783C32.2705 39.8316 32.0133 40.3046 31.839 40.6255L31.6398 40.9962C31.619 41.0421 31.592 41.0849 31.5596 41.1235C31.572 41.0756 31.5896 41.0292 31.6121 40.9852C31.6509 40.8966 31.709 40.7638 31.7892 40.6006C31.9496 40.2687 32.1903 39.7956 32.5167 39.2174C33.3641 37.7293 34.3496 36.3243 35.4602 35.0208L35.5128 34.9572C35.7558 34.8026 36.0156 34.6764 36.2874 34.5809C36.5527 34.4844 36.8367 34.4503 37.1173 34.4813C37.861 34.5691 38.5693 34.8484 39.1727 35.2919C39.6515 35.6367 40.0623 36.0673 40.3844 36.5617L40.5725 36.8577C40.6223 36.9545 40.6666 37.0486 40.7108 37.1343L40.8326 37.375L40.9128 37.5852C40.9652 37.7089 41.0078 37.8366 41.04 37.967Z" fill="#270937"/>
<path d="M38.6154 54.46C38.4153 54.6517 38.1945 54.8206 37.957 54.9634C36.8358 55.6976 35.5927 56.226 34.286 56.5237C34.0153 56.598 33.7367 56.6398 33.4561 56.6482C33.7161 56.5581 33.9812 56.4832 34.25 56.4241C35.5314 56.0771 36.7599 55.5578 37.9017 54.8805C38.1305 54.7255 38.3689 54.585 38.6154 54.46Z" fill="#270937"/>
<path d="M71.7605 83.4656L70.0093 100.457L64.6619 100.385L64.2773 82.4282L71.7605 83.4656Z" fill="#F9F6F1"/>
<path d="M70.1634 98.839V99.1959C70.1634 99.1959 76.1859 101.633 76.2495 102.776L64.2793 102.684L64.4729 98.7007C65.356 99.1305 66.3213 99.3654 67.3031 99.3892C68.285 99.4131 69.2605 99.2254 70.1634 98.839Z" fill="#270937"/>
<g opacity="0.6">
<path d="M65.6745 99.9737C65.5594 100.008 65.461 100.083 65.3977 100.185C65.3345 100.287 65.3109 100.409 65.3315 100.527C65.3616 100.645 65.436 100.746 65.5392 100.81C65.6423 100.874 65.7661 100.895 65.8847 100.87C66.0067 100.833 66.1109 100.753 66.1772 100.644C66.2436 100.535 66.2675 100.406 66.2444 100.281C66.2005 100.163 66.1128 100.066 65.9994 100.011C65.8861 99.9556 65.7558 99.9463 65.6358 99.9848" fill="white"/>
</g>
<g opacity="0.6">
<path d="M64.2773 102.684L64.3244 101.724L75.7801 102.164C75.7801 102.164 76.3112 102.402 76.2476 102.775L64.2773 102.684Z" fill="white"/>
</g>
<path d="M70.206 99.2284C70.206 99.2865 69.9128 99.3114 69.6223 99.505C69.3318 99.6987 69.1797 99.9338 69.1243 99.9117C69.069 99.8896 69.1603 99.5493 69.5144 99.3308C69.8685 99.1122 70.2198 99.1731 70.206 99.2284Z" fill="#270937"/>
<path d="M71.4585 99.7563C71.4585 99.8144 71.2179 99.9112 71.0159 100.157C70.814 100.404 70.7559 100.664 70.6978 100.661C70.6397 100.658 70.6065 100.326 70.861 100.025C71.1155 99.7231 71.4585 99.6954 71.4585 99.7563Z" fill="#270937"/>
<path d="M72.1583 101.265C72.1058 101.279 72.0283 100.988 72.1805 100.667C72.3326 100.347 72.6065 100.222 72.6314 100.272C72.6563 100.322 72.4848 100.49 72.3548 100.753C72.2247 101.016 72.2247 101.259 72.1583 101.265Z" fill="#270937"/>
<path d="M73.3403 87.7378L81.4735 96.9997L77.6531 100.743L68.0039 92.3134L73.3403 87.7378Z" fill="#F9F6F1"/>
<path d="M80.4328 95.7481L80.6873 95.9998C80.6873 95.9998 86.66 93.4437 87.5148 94.2044L79.0137 102.634L76.3247 99.6957C78.1699 99.0235 79.5559 97.7786 80.4328 95.7481Z" fill="#270937"/>
<g opacity="0.6">
<path d="M78.0816 99.7427C78.0248 99.8486 78.0089 99.9716 78.037 100.088C78.065 100.205 78.1351 100.308 78.2337 100.376C78.3376 100.437 78.461 100.456 78.5783 100.429C78.6957 100.401 78.7981 100.33 78.8644 100.23C78.9246 100.117 78.9409 99.9866 78.9102 99.8629C78.8796 99.7393 78.8041 99.6314 78.6985 99.5601C78.5841 99.5074 78.4537 99.5013 78.3349 99.5431C78.2161 99.5849 78.1183 99.6714 78.0622 99.7842" fill="white"/>
</g>
<g opacity="0.6">
<path d="M79.0135 102.635L78.3662 101.927L86.7512 94.1093C86.7512 94.1093 87.3045 93.899 87.5147 94.2061L79.0135 102.635Z" fill="white"/>
</g>
<path d="M80.7401 95.9952C80.7788 96.0367 80.5907 96.2718 80.5188 96.5983C80.4469 96.9247 80.5188 97.2152 80.4579 97.2373C80.3971 97.2594 80.2255 96.9607 80.3196 96.5512C80.4137 96.1418 80.7124 95.9482 80.7401 95.9952Z" fill="#270937"/>
<path d="M81.9966 95.4777C82.0464 95.5082 81.9385 95.7544 81.9717 96.0725C82.0049 96.3907 82.146 96.6258 82.1045 96.6535C82.063 96.6811 81.8002 96.4847 81.767 96.1002C81.7338 95.7156 81.9579 95.439 81.9966 95.4777Z" fill="#270937"/>
<path d="M83.5673 96.043C83.5369 96.0872 83.2741 95.9379 83.1551 95.6059C83.0361 95.2739 83.1413 94.989 83.1938 95.0056C83.2464 95.0222 83.2464 95.2629 83.3487 95.5367C83.4511 95.8106 83.5977 95.9959 83.5673 96.043Z" fill="#270937"/>
<path d="M38.7048 34.7271C38.4126 34.4928 38.0443 34.3743 37.6703 34.3942C37.2963 34.4141 36.9427 34.571 36.677 34.835C35.659 35.8531 34.1873 37.5627 34.1375 38.9487C34.0683 41.0705 33.728 46.6946 33.728 46.6946L41.5293 46.418C41.5293 46.418 41.5293 38.9487 40.846 37.2473C40.4587 36.2708 39.4822 35.3468 38.7048 34.7271Z" fill="#C68F34"/>
<path d="M34.6269 46.6832C34.6269 46.6832 34.1815 50.9739 34.6767 52.9436C35.1884 54.9824 36.1982 54.952 37.0475 55.0128C37.8967 55.0737 51.3055 48.0443 51.3055 48.0443L49.8172 45.4023L39.7226 48.4454L39.8139 46.4729L34.6269 46.6832Z" fill="#F9F6F1"/>
<path d="M49.7344 45.4744L52.155 42.4452L54.3404 41.939L57.0017 42.2322C57.0257 42.3551 57.0073 42.4824 56.9495 42.5935C56.8917 42.7045 56.798 42.7927 56.6836 42.8436L57.6159 42.8961C57.6408 42.9643 57.6516 43.0369 57.6476 43.1094C57.6436 43.1819 57.6248 43.2528 57.5924 43.3178C57.5601 43.3828 57.5148 43.4405 57.4594 43.4874C57.4039 43.5343 57.3395 43.5694 57.2701 43.5905L57.934 43.7067C57.8477 43.9015 57.6986 44.0618 57.5106 44.162C57.3226 44.2623 57.1065 44.2968 56.8966 44.26C56.2429 44.171 55.5839 44.1267 54.9242 44.1272L53.6212 44.8465L55.5577 44.7662L56.9713 45.0429C56.9713 45.0429 57.1566 45.4025 56.8385 45.4883C56.324 45.5322 55.8066 45.5322 55.2921 45.4883L53.4275 45.9752C53.4275 45.9752 53.0292 47.173 52.7885 47.4386C52.5478 47.7042 51.2172 48.05 51.2172 48.05L49.7344 45.4744Z" fill="#F9F6F1"/>
<path d="M57.6656 42.9046C57.4238 42.9217 57.1809 42.9133 56.9408 42.8796C56.4954 42.8437 55.8813 42.7856 55.2035 42.7137L54.5534 42.639H54.581C54.0748 42.7801 53.6377 42.899 53.3251 42.9765C53.161 43.0302 52.991 43.0636 52.8188 43.0761C52.972 42.9967 53.1334 42.9345 53.3002 42.8907C53.6073 42.7911 54.0388 42.6556 54.5423 42.5034H54.57L55.2229 42.5726C55.8979 42.6445 56.512 42.7192 56.9546 42.7801C57.1951 42.7983 57.4332 42.84 57.6656 42.9046Z" fill="#E1DEDA"/>
<path d="M57.7033 45.0577C57.4838 45.0661 57.264 45.0513 57.0476 45.0134C56.6438 44.9664 56.0877 44.8945 55.4763 44.8032L54.8677 44.7119H54.9037C54.4067 44.9328 53.8946 45.1177 53.3711 45.2652C53.8469 45.0051 54.3417 44.7814 54.8511 44.5957H54.8677H54.8871L55.4985 44.6815C56.1098 44.77 56.6631 44.8585 57.0615 44.9304C57.2794 44.9494 57.4946 44.992 57.7033 45.0577Z" fill="#E1DEDA"/>
<path d="M51.2229 48.0443C51.2926 48.0167 51.3637 47.9927 51.4359 47.9723C51.577 47.9281 51.7872 47.8644 52.0528 47.7676C52.1828 47.7178 52.3294 47.6625 52.4871 47.5878C52.5673 47.5531 52.6434 47.5095 52.714 47.4578C52.7852 47.3974 52.8419 47.3217 52.8799 47.2365C53.0802 46.8213 53.2503 46.3924 53.389 45.9528V45.9307H53.4139L55.2756 45.4355H55.295C55.6104 45.4549 55.9479 45.4687 56.2965 45.4687C56.4696 45.4722 56.6427 45.4602 56.8138 45.4328C56.8477 45.428 56.8794 45.413 56.9046 45.3897C56.9298 45.3665 56.9473 45.3362 56.9549 45.3027C56.9643 45.2235 56.9488 45.1432 56.9106 45.0731L56.9549 45.1063L55.544 44.8435H55.5578L53.6213 44.9265H53.3226L53.5854 44.7827L54.8884 44.0634H54.905H54.9215C55.4167 44.0634 55.9341 44.0855 56.4624 44.1381C56.6091 44.1547 56.7529 44.1713 56.8968 44.1962C57.0272 44.2239 57.162 44.2239 57.2924 44.1962C57.4175 44.1583 57.5333 44.0947 57.6324 44.0094C57.7315 43.9241 57.8117 43.8191 57.8678 43.701L57.9203 43.7978L57.2536 43.6816L57.0102 43.6374L57.2398 43.5461C57.358 43.5019 57.4563 43.4164 57.5164 43.3054C57.5434 43.2498 57.559 43.1893 57.5624 43.1275C57.5657 43.0658 57.5567 43.004 57.5358 42.9458L57.5967 42.99L56.6644 42.9347L56.4099 42.9209L56.6395 42.8047C56.7406 42.7561 56.8245 42.678 56.8802 42.5806C56.9301 42.4855 56.9457 42.3761 56.9244 42.2708L56.9825 42.3206L54.3185 42.019H54.3406L52.1524 42.5142L52.18 42.4976L50.3902 44.7107L49.9005 45.3027L49.7705 45.4549C49.7401 45.4881 49.7235 45.5047 49.7207 45.5019L49.7594 45.4438L49.8784 45.2834L50.3708 44.6443C50.7941 44.1104 51.3888 43.3497 52.1275 42.4091H52.1441L54.3268 41.8779H54.3461L57.0102 42.1546H57.0572V42.2016C57.0887 42.3391 57.0701 42.4833 57.0047 42.6083C56.9352 42.7295 56.8298 42.8261 56.7031 42.8849L56.6754 42.7549L57.6077 42.8074H57.6548V42.8489C57.6828 42.9258 57.6953 43.0074 57.6915 43.0891C57.6877 43.1708 57.6677 43.2509 57.6326 43.3248C57.5537 43.4689 57.4248 43.5791 57.2702 43.6346L57.2868 43.5378L57.9535 43.6567L58.0448 43.6706L58.0061 43.7536C57.9424 43.8923 57.8497 44.0157 57.7342 44.1154C57.6187 44.2152 57.4831 44.2889 57.3366 44.3317C57.1861 44.3635 57.0307 44.3635 56.8802 44.3317C56.7418 44.3096 56.6035 44.2902 56.4569 44.2764C55.9368 44.2238 55.4195 44.2072 54.9298 44.2017H54.9658L53.6545 44.921L53.6186 44.791L55.5551 44.7135H55.5717L56.9825 44.9901H57.0157V45.0178C57.0643 45.1144 57.0835 45.223 57.071 45.3304C57.058 45.3866 57.0287 45.4378 56.987 45.4776C56.9452 45.5174 56.8927 45.5441 56.8359 45.5545C56.6533 45.5864 56.4679 45.5994 56.2826 45.5932C55.9285 45.5932 55.5938 45.5711 55.2729 45.5489H55.2895L53.4471 46.0275L53.4775 45.9971C53.3342 46.4404 53.1557 46.8715 52.9436 47.2863C52.8995 47.3794 52.8352 47.4617 52.7555 47.5269C52.6785 47.5786 52.5971 47.623 52.512 47.6597C52.3674 47.7234 52.2197 47.7798 52.0694 47.8285C51.7927 47.917 51.588 47.9751 51.4442 48.0111L51.281 48.0498C51.2422 48.0442 51.2256 48.047 51.2229 48.0443Z" fill="#F9F6F1"/>
<path d="M33.5923 46.683C33.6344 46.6705 33.6784 46.6649 33.7223 46.6664L34.1013 46.6415L35.5122 46.5751L40.3506 46.3898L40.2842 46.4562C40.3008 45.7784 40.2842 45.0564 40.251 44.3122C40.1902 43.0839 40.0823 41.9165 40.0159 40.8514C39.9772 40.3175 39.9633 39.8113 39.9191 39.341C39.8847 38.9051 39.8182 38.4723 39.7199 38.0463C39.5817 37.4271 39.3242 36.8408 38.9619 36.3201C38.6991 35.9577 38.5054 35.7944 38.5165 35.7861C38.5687 35.817 38.6162 35.8552 38.6576 35.8996C38.7851 36.0188 38.9026 36.1483 39.0089 36.2869C39.3926 36.8045 39.6674 37.3946 39.8167 38.0214C39.9242 38.4512 39.9981 38.8887 40.038 39.3299C40.0878 39.803 40.1072 40.3092 40.1459 40.8404C40.2234 41.9054 40.334 43.0728 40.3949 44.3039C40.4336 45.0508 40.4447 45.7784 40.4225 46.4617V46.5281H40.3589L35.5177 46.6636L34.1041 46.6885H33.7251L33.5923 46.683Z" fill="#270937"/>
<path d="M39.1846 55.5995C39.1846 55.5995 35.6519 60.413 35.6519 62.3495C35.6519 64.286 35.7265 67.1658 38.0254 69.2406C40.3243 71.3154 68.4227 95.5906 68.4227 95.5906L75.2668 89.5433L49.7993 63.8157C49.7993 63.8157 50.986 61.6662 50.466 60.7726C50.1601 60.2444 49.6927 59.8284 49.1326 59.5859L49.0579 54.8193L39.1846 55.5995Z" fill="#270937"/>
<path d="M51.6561 54.6338L52.2537 59.7157C52.2537 59.7157 70.3432 69.0883 71.8011 71.8574C72.4623 73.1134 73.1041 84.475 73.1041 84.475L64.1852 84.677L63.0316 75.6723L58.2457 73.0857L49.6892 64.3909L46.7734 55.0128L51.6561 54.6338Z" fill="#270937"/>
<path d="M43.4987 55.4092C43.5393 55.5057 43.5672 55.607 43.5817 55.7107C43.6354 55.9892 43.6696 56.2712 43.684 56.5545C43.7064 56.978 43.6758 57.4028 43.5927 57.8187C43.489 58.3327 43.2819 58.8202 42.9841 59.2517C42.6849 59.6863 42.2765 60.0346 41.8001 60.2615C41.407 60.4377 40.9769 60.5156 40.5469 60.4883C40.2581 60.4677 39.9761 60.3906 39.717 60.2615C39.6482 60.2266 39.5824 60.1859 39.5206 60.1397C39.4763 60.1093 39.457 60.0899 39.4597 60.0844C39.7973 60.2616 40.169 60.3644 40.5497 60.3859C40.9601 60.3994 41.3679 60.315 41.7393 60.1397C42.1907 59.9178 42.5775 59.5834 42.8624 59.1687C43.3694 58.396 43.6201 57.4833 43.5789 56.56C43.5678 55.849 43.4738 55.4119 43.4987 55.4092Z" fill="#270937"/>
<path d="M50.434 58.8535C50.3005 59.0007 50.1423 59.1233 49.9665 59.2159C49.5587 59.468 49.1185 59.6635 48.658 59.7969C48.1978 59.9318 47.7211 60.0025 47.2416 60.0071C47.0435 60.0213 46.8444 60.0026 46.6523 59.9518C47.315 59.9176 47.9728 59.8194 48.6165 59.6585C49.2474 59.4507 49.8562 59.1811 50.434 58.8535Z" fill="#270937"/>
<path d="M49.8861 55.4469C49.8861 55.433 50.0576 55.386 50.2706 55.5465C50.333 55.5947 50.3832 55.6568 50.4173 55.7279C50.4514 55.799 50.4684 55.8771 50.467 55.9559C50.4664 56.0548 50.4377 56.1514 50.3843 56.2347C50.331 56.3179 50.2551 56.3843 50.1655 56.4262C50.0717 56.465 49.9682 56.4739 49.8691 56.4516C49.7701 56.4293 49.6804 56.3769 49.6122 56.3017C49.568 56.2519 49.5365 56.1921 49.5205 56.1274C49.5044 56.0628 49.5042 55.9952 49.52 55.9305C49.5358 55.8657 49.567 55.8058 49.611 55.7558C49.655 55.7058 49.7105 55.6672 49.7727 55.6433C49.8418 55.6211 49.8833 55.6433 49.8833 55.6433C49.8833 55.6433 49.7201 55.6848 49.6427 55.8923C49.621 55.9468 49.6158 56.0065 49.6276 56.064C49.6394 56.1215 49.6677 56.1743 49.709 56.2159C49.76 56.2654 49.8239 56.2995 49.8935 56.3142C49.963 56.3289 50.0352 56.3236 50.1019 56.2989C50.1673 56.2671 50.223 56.2181 50.2629 56.1573C50.3028 56.0964 50.3256 56.0258 50.3287 55.9531C50.3319 55.8925 50.3219 55.832 50.2994 55.7757C50.277 55.7193 50.2426 55.6685 50.1987 55.6267C50.0438 55.469 49.8833 55.4718 49.8861 55.4469Z" fill="#270937"/>
<path d="M50.47 64.8098C50.2583 64.6616 50.0585 64.497 49.8725 64.3174C49.4004 63.9158 48.9063 63.5408 48.3925 63.1943C47.8783 62.8495 47.3392 62.5434 46.7797 62.2786C46.5407 62.1811 46.3079 62.0694 46.0825 61.9438C46.3381 61.9916 46.5865 62.0725 46.8211 62.1845C47.4025 62.4248 47.9585 62.7223 48.481 63.0725C49.0013 63.4213 49.4918 63.8127 49.9472 64.2427C50.1417 64.4121 50.317 64.6023 50.47 64.8098Z" fill="#270937"/>
<path d="M51.6128 61.4015C51.595 61.0837 51.6588 60.7665 51.7983 60.4803C51.9378 60.1942 52.1482 59.9484 52.4095 59.7666C52.4399 59.7998 52.1329 60.093 51.9282 60.544C51.7234 60.9949 51.6571 61.4071 51.6128 61.4015Z" fill="#270937"/>
<path d="M71.9482 96.9297C71.7738 96.7875 71.616 96.6261 71.478 96.4483C71.2013 96.1385 70.8251 95.7042 70.4184 95.22C70.3314 95.1023 70.2259 94.9995 70.1058 94.9157C69.9941 94.85 69.8636 94.8237 69.7351 94.841C69.5048 94.8785 69.2861 94.9684 69.0961 95.1038C68.9219 95.252 68.7138 95.3546 68.4902 95.4026C68.4902 95.3888 68.7115 95.2781 69.0435 95.0208C69.2368 94.867 69.4647 94.7626 69.7075 94.7165C69.8658 94.6935 70.0273 94.7236 70.1667 94.8023C70.301 94.8933 70.4188 95.0065 70.5152 95.137C70.9219 95.6212 71.2843 96.0638 71.5416 96.3902C71.6961 96.5549 71.8324 96.7358 71.9482 96.9297Z" fill="#270937"/>
<path d="M68.4238 95.5855C68.4238 95.5855 68.4625 95.544 68.54 95.472L68.8913 95.1539L70.2441 93.9394L75.2374 89.5132V89.5934L62.3155 76.7103L53.0343 67.4262L52.03 66.3999L51.5404 65.9075C51.3799 65.7442 51.2195 65.5838 51.048 65.4399C50.6858 65.1749 50.3926 64.8267 50.1932 64.4247C50.1101 64.2173 50.0918 63.9897 50.1406 63.7718C50.1904 63.556 50.2817 63.3762 50.3398 63.1825C50.4662 62.8118 50.5588 62.4303 50.6164 62.0428C50.6792 61.6846 50.6506 61.3164 50.5334 60.9722C50.371 60.6743 50.1608 60.4051 49.911 60.1755C49.6853 59.957 49.4255 59.7766 49.1419 59.6415H49.117V59.6166C49.1004 58.1671 49.0894 57.0218 49.0811 56.2306C49.0811 55.8433 49.0811 55.5417 49.0811 55.3315C49.0811 55.2347 49.0811 55.16 49.0811 55.1019C49.0811 55.0438 49.0811 55.0244 49.0811 55.0244C49.0847 55.0501 49.0847 55.0762 49.0811 55.1019C49.0811 55.16 49.0811 55.2347 49.0811 55.3315C49.0811 55.5417 49.0811 55.8433 49.106 56.2306C49.1225 57.019 49.1475 58.167 49.1779 59.6139L49.153 59.5779C49.4489 59.7172 49.7199 59.9041 49.9552 60.1312C50.2164 60.3692 50.4353 60.6499 50.6026 60.9611C50.7308 61.32 50.7641 61.7059 50.6994 62.0815C50.6435 62.4757 50.5509 62.8637 50.4228 63.2406C50.3647 63.4343 50.2734 63.6279 50.2291 63.8188C50.186 64.0167 50.2033 64.223 50.2789 64.4108C50.4759 64.7934 50.7602 65.1241 51.1088 65.3763C51.2819 65.5235 51.4472 65.6795 51.604 65.8438L52.0964 66.3362L53.1145 67.346C55.8809 70.0986 59.0401 73.2606 62.4096 76.619L75.3093 89.5298L75.3481 89.5713L75.3066 89.6073L70.2883 93.9837L68.9051 95.176L68.5455 95.4831L68.4238 95.5855Z" fill="#270937"/>
<path d="M72.4354 95.9186C72.0988 95.5408 71.8192 95.1158 71.6055 94.6571C71.3535 94.2212 71.1671 93.7504 71.0522 93.2601C71.091 93.2435 71.3566 93.8604 71.7355 94.5907C72.1145 95.3211 72.4714 95.8965 72.4354 95.9186Z" fill="#270937"/>
<path d="M74.1974 94.6704C73.3408 94.0232 72.6661 93.1655 72.2388 92.1806C72.2747 92.1613 72.6288 92.7782 73.1711 93.4615C73.7133 94.1448 74.2251 94.64 74.1974 94.6704Z" fill="#270937"/>
<path d="M75.3091 93.4421C74.9746 93.0864 74.6658 92.7074 74.3851 92.3079C74.0664 91.9367 73.7751 91.5429 73.5137 91.1294C73.8854 91.4509 74.2162 91.817 74.4985 92.2194C74.8188 92.5914 75.0911 93.0022 75.3091 93.4421Z" fill="#270937"/>
<path d="M76.4722 91.3967C76.1393 91.2524 75.8261 91.0665 75.5399 90.8435C75.2294 90.6564 74.9448 90.4295 74.6934 90.1685C75.0265 90.3106 75.3391 90.4967 75.6229 90.7217C75.9339 90.9091 76.2194 91.136 76.4722 91.3967Z" fill="#270937"/>
<path d="M60.18 75.2545C60.2076 75.2822 58.9766 76.4137 57.4357 77.7775C55.8948 79.1413 54.6195 80.2258 54.5946 80.1953C54.5697 80.1649 55.798 79.0362 57.3389 77.6696C58.8798 76.303 60.1551 75.2241 60.18 75.2545Z" fill="#270937"/>
<path d="M59.945 75.733C59.8621 75.9309 59.7533 76.117 59.6214 76.2863C59.332 76.7034 59.014 77.1 58.6697 77.4731C58.325 77.8471 57.9553 78.1974 57.5632 78.5215C57.4085 78.6654 57.2355 78.7882 57.0486 78.8867C57.0209 78.8535 57.7651 78.2449 58.5618 77.3762C59.3585 76.5076 59.9063 75.7081 59.945 75.733Z" fill="#270937"/>
<path d="M44.0264 55.8698C44.0264 55.8698 44.0264 55.9528 43.9877 56.0994C43.9354 56.3058 43.866 56.5076 43.7802 56.7025C43.6536 56.993 43.4999 57.2709 43.321 57.5324C43.0979 57.8515 42.843 58.1472 42.5602 58.4149C42.274 58.6767 41.9616 58.9085 41.6279 59.1065C41.3534 59.2654 41.0644 59.3979 40.7648 59.5021C40.5644 59.5741 40.358 59.6278 40.1479 59.6625C40.072 59.6818 39.9938 59.6901 39.9155 59.6874C39.9155 59.6598 40.2364 59.6017 40.7288 59.4108C41.0169 59.2966 41.2946 59.1578 41.5588 58.9958C41.8816 58.7977 42.1845 58.5689 42.4634 58.3125C42.7389 58.0532 42.9899 57.7688 43.2131 57.4632C43.3914 57.2105 43.5496 56.9441 43.6861 56.6665C43.9185 56.1824 44.007 55.8615 44.0264 55.8698Z" fill="#270937"/>
<path d="M65.4001 72.2593C64.8785 72.7454 64.3999 73.2757 63.9699 73.8444C63.5812 74.4416 63.2443 75.071 62.9629 75.7256C62.9864 75.5141 63.0434 75.3078 63.1316 75.1142C63.316 74.6354 63.5584 74.1811 63.8537 73.7614C64.1479 73.3409 64.4936 72.959 64.8828 72.6244C65.0346 72.4759 65.2093 72.3526 65.4001 72.2593Z" fill="#270937"/>
<path d="M67.2207 73.2656C67.2207 73.3099 66.2387 73.4897 65.1072 73.9683C63.9758 74.4469 63.1514 75.0278 63.1265 74.9891C63.2804 74.8312 63.4554 74.6953 63.6466 74.5852C64.0912 74.293 64.5616 74.0421 65.0519 73.8355C65.5418 73.6301 66.0492 73.469 66.5679 73.3542C66.7807 73.2961 67.0002 73.2664 67.2207 73.2656Z" fill="#270937"/>
</svg>
