<svg width="96" height="103" viewBox="0 0 96 103" fill="none" xmlns="http://www.w3.org/2000/svg">
<path d="M48.689 14.6558C48.689 14.6558 43.2699 15.6933 38.0373 12.104C32.8046 8.51473 5.67815 10.4924 8.41568 34.8681C11.1532 59.2437 19.3658 49.4973 25.3386 60.3526C31.3114 71.208 26.3005 91.2677 57.9232 87.5788C89.5459 83.89 78.0983 59.8864 84.5688 52.3865C91.0394 44.8865 100.02 20.5394 81.8313 11.865C65.0448 3.85917 57.4999 6.93472 48.689 14.6558Z" fill="#F0F4FE"/>
<path d="M16.5739 60.3548C16.948 58.1504 15.3926 56.0718 13.0999 55.7122C10.8073 55.3526 8.64548 56.8481 8.27146 59.0525C7.89744 61.2569 9.45281 63.3355 11.7455 63.6951C14.0381 64.0547 16.1999 62.5592 16.5739 60.3548Z" fill="#EDF0FD"/>
<path d="M19.4992 70.2716C20.2655 70.2716 20.8867 69.6743 20.8867 68.9375C20.8867 68.2008 20.2655 67.6035 19.4992 67.6035C18.733 67.6035 18.1118 68.2008 18.1118 68.9375C18.1118 69.6743 18.733 70.2716 19.4992 70.2716Z" fill="#EDF0FD"/>
<path d="M45.8083 9.69255C47.3889 9.69255 48.6702 8.46053 48.6702 6.94076C48.6702 5.42099 47.3889 4.18896 45.8083 4.18896C44.2276 4.18896 42.9463 5.42099 42.9463 6.94076C42.9463 8.46053 44.2276 9.69255 45.8083 9.69255Z" fill="#E9F3FF"/>
<path d="M92.2553 61.3989C94.0807 60.6719 94.9476 58.6597 94.1914 56.9046C93.4353 55.1494 91.3425 54.316 89.5171 55.043C87.6917 55.77 86.8249 57.7822 87.581 59.5374C88.3371 61.2925 90.4299 62.126 92.2553 61.3989Z" fill="#EDF0FD"/>
<path d="M93.6354 49.4706C93.6354 50.1458 93.0661 50.6933 92.3635 50.6933C91.6612 50.6933 91.0918 50.1458 91.0918 49.4706C91.0918 48.795 91.6612 48.2476 92.3635 48.2476C93.0661 48.2476 93.6354 48.795 93.6354 49.4706Z" fill="#E9F3FF"/>
<path d="M30.521 21.2209L36.1227 16.5148L50.0642 15.4995L48.7067 22.9346L35.6123 23.8882L30.521 21.2209Z" fill="#F4F7FF"/>
<path d="M22.5532 33.2039L28.155 28.4978L47.9565 27.0425L46.5987 34.4776L27.6445 35.8712L22.5532 33.2039Z" fill="#F4F7FF"/>
<path d="M45.5255 40.3513L44.203 47.5943L32.1161 44.2986L29.2563 40.2274L33.9622 37.1982L45.5255 40.3513Z" fill="#F4F7FF"/>
<path d="M50.9207 10.8101L34.876 96.8499C34.7471 97.556 35.2379 98.2291 35.9725 98.3531L44.438 98.4533C45.1724 98.5773 45.8724 98.1054 46.0014 97.399L61.5105 12.4686C61.7342 11.2432 61.0866 10.014 59.9135 9.4885C58.4439 8.83046 56.2529 8.14706 53.7314 8.33059C52.3176 8.43396 51.1658 9.46744 50.9207 10.8101Z" fill="url(#paint0_linear_18_14415)"/>
<path d="M59.9137 9.4885C58.4441 8.83046 56.2531 8.14706 53.7316 8.33059C53.706 8.3325 53.6808 8.33681 53.6554 8.33944C55.4182 8.48134 56.9385 8.99174 58.0474 9.4885C59.2204 10.014 59.8681 11.2429 59.6444 12.4686L44.1353 97.399C44.0392 97.9254 43.6256 98.3212 43.1172 98.4375L44.4382 98.4531C45.1726 98.577 45.8726 98.1051 46.0016 97.3988L61.5107 12.4683C61.7344 11.2432 61.0868 10.014 59.9137 9.4885Z" fill="#C68F34"/>
<path d="M59.0619 14.8439L57.7041 22.279L84.9343 20.2961L91.0928 16.3129L84.8858 12.9634L59.0619 14.8439Z" fill="#F4F7FF"/>
<path d="M56.9574 26.363L55.5996 33.7981L82.8298 31.8151L88.9883 27.8317L82.7813 24.4824L56.9574 26.363Z" fill="#F4F7FF"/>
<path d="M54.469 42.791L53.1333 50.1053L70.1568 54.6723L76.5681 52.9107L72.309 47.6555L54.469 42.791Z" fill="#F4F7FF"/>
<path d="M52.6693 16.7227L50.064 29.8037" stroke="#C68F34" stroke-miterlimit="10"/>
<path d="M55.2419 13.6914L53.9976 19.6937" stroke="#C68F34" stroke-miterlimit="10"/>
<path d="M47.4604 58.6899L44.855 71.7708" stroke="#C68F34" stroke-miterlimit="10"/>
<path d="M50.0319 55.6602L48.7876 61.6624" stroke="#C68F34" stroke-miterlimit="10"/>
<path d="M39.4587 86.4951L38.2144 92.4974" stroke="#C68F34" stroke-miterlimit="10"/>
<path d="M55.2417 19.6934L52.6699 33.7976" stroke="#C68F34" stroke-miterlimit="10"/>
<path d="M47.4438 35.8716L43.6279 56.3638" stroke="#C68F34" stroke-miterlimit="10"/>
<path d="M46.7622 74.0967L42.9463 94.5889" stroke="#C68F34" stroke-miterlimit="10"/>
<path d="M50.6784 36.4233L49.4341 43.1234" stroke="#C68F34" stroke-miterlimit="10"/>
<path d="M50.0568 46.7935L48.688 54.6727" stroke="#C68F34" stroke-miterlimit="10"/>
<path d="M42.4982 69.9634L41.1294 77.8426" stroke="#C68F34" stroke-miterlimit="10"/>
<path d="M87.5165 27.0381L82.0151 30.5963L55.8363 32.5024L55.5996 33.7984L82.8298 31.8157L88.9883 27.8323L87.5165 27.0381Z" fill="#E6E8EA"/>
<path d="M75.6699 51.8022L69.3591 53.5363L53.2938 49.2261L53.1333 50.1052L70.1568 54.6722L76.5681 52.9106L75.6699 51.8022Z" fill="#E6E8EA"/>
<path d="M90.0107 15.729L84.3395 19.397L57.8786 21.324L57.7041 22.279L84.9343 20.296L91.0928 16.3129L90.0107 15.729Z" fill="#E6E8EA"/>
<path d="M48.6672 15.6014L47.4423 22.3094L34.4102 23.2586L35.6122 23.8882L48.7065 22.9346L50.0641 15.4995L48.6672 15.6014Z" fill="#E6E8EA"/>
<path d="M46.4125 27.1559L45.1883 33.8607L26.4385 35.2392L27.6442 35.8712L46.5984 34.4776L47.9562 27.0425L46.4125 27.1559Z" fill="#E6E8EA"/>
<path d="M44.7479 40.1396L43.5332 46.7925L31.5786 43.533L32.1172 44.2994L44.2041 47.5951L45.5266 40.3521L44.7479 40.1396Z" fill="#E6E8EA"/>
<path d="M36.2734 19.8877C36.2502 19.2972 36.678 18.8078 37.2098 18.798C37.4438 18.7937 37.6608 18.8746 37.8342 19.0107C37.9007 19.0665 37.9156 19.1689 37.8701 19.2393C37.8228 19.312 37.7215 19.3278 37.658 19.2778C37.5369 19.178 37.3883 19.1266 37.223 19.1306C37.0391 19.1352 36.8659 19.2216 36.7514 19.3544C36.6365 19.4879 36.5693 19.6745 36.577 19.8765C36.5849 20.0787 36.6668 20.2624 36.7917 20.383C36.9189 20.5063 37.0956 20.5776 37.2793 20.5656C37.4443 20.5549 37.5856 20.49 37.7014 20.3787C37.7608 20.3259 37.8641 20.3316 37.9156 20.3964C37.9669 20.4608 37.9599 20.5685 37.898 20.6276C37.7359 20.7803 37.5264 20.8808 37.2925 20.8982C36.7601 20.9375 36.2965 20.4814 36.2734 19.8877Z" fill="#474545"/>
<path d="M39.3416 20.2769C39.083 20.2958 38.9538 20.3051 38.6953 20.3233C38.6487 20.4726 38.6256 20.5475 38.579 20.698C38.5576 20.7619 38.5031 20.8031 38.4446 20.8079C38.426 20.8093 38.4101 20.8079 38.3939 20.8036C38.3155 20.7787 38.2747 20.6908 38.2981 20.6066C38.5071 19.9213 38.6116 19.5839 38.8214 18.9204C38.8431 18.8584 38.9028 18.8203 38.9588 18.8189C39.017 18.8172 39.0775 18.8514 39.1039 18.9115C39.365 19.555 39.4954 19.8711 39.7554 20.4913C39.785 20.5679 39.7512 20.6578 39.6753 20.6944C39.6621 20.7011 39.6437 20.7054 39.625 20.7071C39.5665 20.7121 39.5096 20.6815 39.4857 20.6231C39.4282 20.4853 39.3993 20.4159 39.3416 20.2769ZM39.2206 19.9816C39.1251 19.75 39.0773 19.6334 38.9815 19.3987C38.9046 19.6411 38.8662 19.7631 38.7893 20.0086C38.962 19.9981 39.0482 19.9926 39.2206 19.9816Z" fill="#474545"/>
<path d="M40.414 20.4895C40.4173 20.5695 40.3531 20.642 40.2762 20.6489C40.1938 20.6563 40.1273 20.5948 40.1244 20.5142C40.1 19.8901 40.0878 19.5781 40.0631 18.954C40.0631 18.954 40.0631 18.954 40.0631 18.9514C40.0587 18.9059 40.0781 18.8567 40.1169 18.826C40.1818 18.7782 40.2727 18.7887 40.3207 18.8511C40.6836 19.3154 40.8647 19.541 41.2263 19.9796C41.2097 19.552 41.2012 19.3383 41.1845 18.911C41.1815 18.8358 41.2428 18.7686 41.3226 18.7657C41.4025 18.7628 41.4717 18.8248 41.4745 18.8995C41.4979 19.4967 41.5095 19.7956 41.5329 20.3929C41.5359 20.4702 41.472 20.5405 41.3923 20.5477C41.35 20.5515 41.3092 20.5345 41.2813 20.5058C41.2759 20.501 41.2704 20.4965 41.2677 20.4915C40.9093 20.0615 40.7301 19.8401 40.3707 19.385C40.3882 19.8267 40.3969 20.0478 40.414 20.4895Z" fill="#474545"/>
<path d="M43.1105 19.987C42.852 20.0067 42.7228 20.0167 42.4642 20.0368C42.4172 20.1706 42.3938 20.2376 42.3468 20.3725C42.3249 20.4297 42.2706 20.4675 42.2121 20.4728C42.1935 20.4745 42.1773 20.4735 42.1611 20.4699C42.083 20.4493 42.0427 20.3716 42.0663 20.296C42.2778 19.6805 42.3839 19.3785 42.5964 18.7858C42.6183 18.7303 42.678 18.6961 42.7343 18.6944C42.793 18.6925 42.8525 18.7224 42.8789 18.7758C43.1369 19.346 43.2658 19.6255 43.5232 20.1735C43.5525 20.2412 43.5182 20.3211 43.4423 20.3546C43.4291 20.3606 43.4109 20.3646 43.3923 20.3663C43.3335 20.3716 43.2765 20.345 43.2531 20.2933C43.1959 20.1713 43.1675 20.11 43.1105 19.987ZM42.9908 19.726C42.8965 19.5212 42.8492 19.418 42.7547 19.2101C42.6768 19.4266 42.6377 19.5358 42.5598 19.7552C42.7323 19.7435 42.8184 19.7377 42.9908 19.726Z" fill="#474545"/>
<path d="M43.8906 20.1902C43.8684 19.6289 43.8575 19.3482 43.8356 18.7871C43.8326 18.7134 43.8943 18.6545 43.9769 18.6521C44.1026 18.6485 44.1655 18.6466 44.2912 18.643C44.8056 18.6287 45.2354 18.9751 45.2523 19.4099C45.2695 19.8495 44.8686 20.2379 44.3554 20.2814C44.23 20.2922 44.1673 20.2974 44.0419 20.3082C43.9592 20.3156 43.8933 20.2615 43.8906 20.1902ZM44.1802 20.0342C44.2462 20.0292 44.2793 20.0266 44.3452 20.0218C44.6964 19.9928 44.9689 19.7298 44.9569 19.4252C44.9453 19.1254 44.6531 18.8897 44.3014 18.9026C44.2355 18.905 44.2024 18.9062 44.1362 18.9089C44.1539 19.359 44.1626 19.5841 44.1802 20.0342Z" fill="#474545"/>
<path d="M46.5712 19.7521C46.3124 19.7667 46.183 19.7741 45.9241 19.7902C45.8766 19.9084 45.8527 19.9677 45.8052 20.0871C45.783 20.1378 45.7285 20.1711 45.6701 20.1754C45.6514 20.1768 45.6352 20.1759 45.619 20.1725C45.5409 20.1539 45.5011 20.0847 45.525 20.0177C45.7395 19.4719 45.8468 19.2049 46.0623 18.6827C46.0844 18.6339 46.1441 18.6045 46.2006 18.6035C46.2596 18.6026 46.3188 18.6301 46.3447 18.6775C46.6006 19.1857 46.7282 19.4343 46.9831 19.9213C47.0122 19.9814 46.9776 20.0515 46.9012 20.0802C46.888 20.0854 46.8696 20.0888 46.8509 20.09C46.7922 20.0941 46.7355 20.0699 46.7121 20.0239C46.6561 19.9158 46.6277 19.8615 46.5712 19.7521ZM46.4527 19.5198C46.3592 19.3374 46.3124 19.2455 46.2188 19.0606C46.1397 19.2513 46.1003 19.3475 46.0215 19.5413C46.1937 19.5324 46.28 19.5281 46.4527 19.5198Z" fill="#474545"/>
<path d="M62.5164 29.1003C62.4776 28.6509 62.9403 28.2621 63.545 28.2185C63.7983 28.2003 64.0455 28.2503 64.2393 28.3547C64.3207 28.3946 64.3399 28.4841 64.2881 28.5459C64.2373 28.6066 64.1269 28.6248 64.0485 28.5817C63.9138 28.5109 63.7461 28.4722 63.5671 28.4834C63.3529 28.4966 63.17 28.5743 63.0453 28.6822C62.9181 28.7926 62.8425 28.9337 62.8556 29.0878C62.8686 29.2374 62.9674 29.3726 63.1125 29.4733C63.2548 29.5722 63.4482 29.6356 63.6625 29.6317C63.8115 29.6291 63.9489 29.5911 64.0636 29.5336C64.0529 29.4032 64.0477 29.3381 64.037 29.2082C63.8665 29.2142 63.7814 29.2171 63.6109 29.2228C63.5186 29.2259 63.4365 29.1682 63.4303 29.0962C63.4241 29.022 63.4967 28.9632 63.589 28.9591C63.8237 28.9488 63.9412 28.9436 64.1759 28.9328C64.1789 28.9328 64.1789 28.9328 64.1789 28.9328C64.1821 28.9325 64.1821 28.9325 64.1821 28.9325C64.2774 28.9282 64.3595 28.9821 64.3658 29.0589C64.3829 29.2711 64.3916 29.3776 64.4088 29.5906C64.4101 29.6076 64.4066 29.62 64.4031 29.6317C64.4018 29.636 64.4009 29.6392 64.3981 29.6439C64.3981 29.6449 64.3984 29.6454 64.3984 29.6463C64.3911 29.6684 64.3747 29.6877 64.3461 29.7052C64.1679 29.8263 63.9385 29.8971 63.6854 29.899C63.0806 29.904 62.5553 29.5475 62.5164 29.1003Z" fill="#474545"/>
<path d="M65.0946 29.7491C65.0488 29.1657 65.0257 28.8752 64.9799 28.2966C64.9737 28.2205 65.0404 28.1564 65.1327 28.1492C65.1339 28.1492 65.1344 28.1489 65.1357 28.1489C65.1357 28.1489 65.1357 28.1489 65.1417 28.1485C65.5276 28.119 65.7208 28.1037 66.1068 28.0729C66.1931 28.0659 66.2752 28.1212 66.281 28.2009C66.2869 28.2806 66.2145 28.3502 66.1284 28.3564C65.8054 28.3791 65.6439 28.3901 65.3211 28.4119C65.3353 28.5935 65.3425 28.6847 65.3567 28.8668C65.6344 28.8527 65.7733 28.8455 66.0508 28.8307C66.1399 28.8259 66.2195 28.8886 66.225 28.963C66.2309 29.0427 66.1615 29.1102 66.0724 29.114C65.7947 29.126 65.6558 29.1319 65.3783 29.1432C65.3925 29.3267 65.3997 29.4186 65.4142 29.6026C65.7372 29.5947 65.8987 29.5904 66.2215 29.5816C66.3078 29.5792 66.39 29.6416 66.3959 29.7218C66.4017 29.7993 66.3292 29.8656 66.2431 29.867C65.8571 29.874 65.664 29.8768 65.278 29.8823C65.2718 29.8823 65.2718 29.8799 65.2718 29.8799C65.2708 29.8809 65.2701 29.8814 65.2691 29.8826C65.1767 29.884 65.1003 29.8232 65.0946 29.7491Z" fill="#474545"/>
<path d="M68.294 29.5945C68.3294 29.6737 68.2881 29.7606 68.2035 29.7905C68.192 29.7934 68.1684 29.7996 68.1385 29.8003C68.1385 29.8003 68.1385 29.8003 68.1355 29.8006C68.1057 29.8013 68.0606 29.7962 68.0173 29.7735C67.9775 29.7525 67.9417 29.718 67.9153 29.6807C67.868 29.6029 67.8436 29.5017 67.8292 29.3567C67.8242 29.3064 67.8065 29.2703 67.7851 29.2416C67.765 29.2143 67.7276 29.187 67.69 29.1672C67.6248 29.1325 67.546 29.1143 67.5188 29.1105C67.3782 29.1169 67.308 29.1203 67.1674 29.1267C67.1844 29.3572 67.1928 29.4725 67.2097 29.7034C67.2155 29.7831 67.1458 29.8513 67.0537 29.8532C66.9611 29.8551 66.8847 29.7907 66.879 29.7118C66.833 29.0908 66.8101 28.7814 66.764 28.1653C66.7583 28.0844 66.8247 28.0157 66.9173 28.0081C66.9173 28.0081 66.9173 28.0081 66.9203 28.0078C67.1323 27.9901 67.2384 27.9813 67.4504 27.9631C67.8048 27.9327 68.1062 28.1696 68.1293 28.4952C68.1422 28.6759 68.0643 28.8405 67.929 28.9568C67.9698 28.982 68.0076 29.0128 68.0402 29.0523C68.1059 29.1286 68.1542 29.2301 68.1599 29.3435C68.1641 29.4244 68.1753 29.4778 68.1831 29.505C68.2318 29.5165 68.2731 29.5483 68.294 29.5945ZM67.7988 28.5173C67.7876 28.3603 67.6415 28.2466 67.472 28.2596C67.3255 28.2706 67.2523 28.2761 67.106 28.2871C67.1219 28.5048 67.1301 28.6137 67.146 28.8319C67.2926 28.8238 67.3658 28.8197 67.5121 28.8113C67.6816 28.8015 67.8097 28.669 67.7988 28.5173Z" fill="#474545"/>
<path d="M70.4606 27.8497C70.5067 28.5438 70.5296 28.892 70.5756 29.591C70.5813 29.6797 70.5084 29.7565 70.4193 29.7597C70.327 29.7628 70.2506 29.6917 70.2446 29.6039C70.2118 29.11 70.1956 28.8638 70.1627 28.3725C70.007 28.619 69.9288 28.7408 69.773 28.9813C69.7432 29.0262 69.6969 29.0521 69.6434 29.055C69.6421 29.055 69.6416 29.055 69.6404 29.055C69.6391 29.055 69.6386 29.055 69.6374 29.0552C69.5839 29.0581 69.5316 29.0377 69.4963 28.9966C69.3104 28.7772 69.2173 28.669 69.0312 28.4558C69.064 28.9301 69.0802 29.1679 69.113 29.6446C69.1188 29.7295 69.0493 29.8025 68.9572 29.8051C68.8679 29.8078 68.7883 29.7396 68.7825 29.6556C68.7367 28.9944 68.7139 28.6649 68.6678 28.0088C68.6621 27.9253 68.7315 27.849 68.8209 27.8411C68.8238 27.8408 68.8239 27.8408 68.8298 27.8401C68.8771 27.8358 68.9326 27.8535 68.9655 27.8927C69.224 28.1816 69.3532 28.3287 69.6115 28.6297C69.827 28.2971 69.9348 28.128 70.1506 27.7841C70.1804 27.7374 70.2265 27.7092 70.28 27.7042C70.28 27.7042 70.28 27.7042 70.283 27.7039C70.3725 27.6984 70.4549 27.7614 70.4606 27.8497Z" fill="#474545"/>
<path d="M72.1458 29.1815C71.8561 29.1975 71.7115 29.2054 71.4219 29.2207C71.3736 29.3817 71.3494 29.4619 71.3014 29.6215C71.2785 29.6892 71.2188 29.7309 71.1533 29.7332C71.1324 29.734 71.1143 29.7316 71.0961 29.7263C71.0075 29.6966 70.9595 29.6021 70.9839 29.5141C71.2011 28.7964 71.3099 28.4318 71.5271 27.6905C71.55 27.6211 71.616 27.5746 71.6782 27.5682C71.7437 27.5617 71.8121 27.5945 71.8427 27.6594C72.1518 28.3552 72.3066 28.711 72.6159 29.4384C72.6513 29.5279 72.6157 29.6308 72.5313 29.6691C72.5171 29.6761 72.4965 29.6801 72.4756 29.6808C72.4101 29.6835 72.3449 29.6454 72.3165 29.5782C72.2484 29.4188 72.2143 29.3394 72.1458 29.1815ZM72.0022 28.8486C71.889 28.5895 71.8322 28.4612 71.719 28.2064C71.6394 28.4772 71.5996 28.612 71.5197 28.8795C71.7128 28.8673 71.8094 28.8613 72.0022 28.8486Z" fill="#474545"/>
<path d="M73.3564 29.4648C73.3621 29.561 73.2927 29.6448 73.2063 29.6486C73.1138 29.6529 73.0376 29.5764 73.0319 29.4809C72.9866 28.7415 72.9642 28.373 72.9189 27.6384C72.9189 27.6384 72.9189 27.6384 72.9187 27.6353C72.9122 27.5819 72.9326 27.5226 72.9752 27.4831C73.0463 27.4213 73.1486 27.4261 73.2039 27.4974C73.6235 28.0265 73.8332 28.299 74.2528 28.8599C74.2207 28.3182 74.2048 28.0478 74.1729 27.5084C74.1672 27.4137 74.2337 27.324 74.323 27.3139C74.4124 27.3039 74.4917 27.378 74.4975 27.4737C74.5428 28.2411 74.5654 28.6259 74.6105 29.3981C74.6162 29.4976 74.5467 29.5845 74.4574 29.589C74.4099 29.5914 74.3631 29.5673 74.3315 29.5292C74.325 29.523 74.3183 29.5165 74.3153 29.5101C73.8994 28.9444 73.6916 28.6695 73.2758 28.1354C73.3081 28.6661 73.3241 28.932 73.3564 29.4648Z" fill="#474545"/>
<path d="M76.5361 27.3529C76.3139 27.7721 76.2027 27.9786 75.9804 28.3861C76.0013 28.7577 76.012 28.9436 76.0329 29.3162C76.0386 29.4229 75.972 29.5098 75.8796 29.5151C75.7933 29.5198 75.7109 29.4418 75.7052 29.3361C75.6843 28.9666 75.6736 28.7824 75.6527 28.4139C75.3891 28.0509 75.2572 27.8726 74.9934 27.5223C74.9319 27.4479 74.9402 27.333 75.0113 27.2641C75.082 27.1954 75.184 27.2004 75.24 27.2789C75.462 27.5711 75.5728 27.7192 75.7948 28.0202C75.9802 27.6807 76.073 27.5089 76.2584 27.1612C76.3104 27.0681 76.4107 27.0382 76.4856 27.0923C76.5605 27.1461 76.5822 27.2636 76.5361 27.3529Z" fill="#474545"/>
<path d="M57.6827 48.0559C57.8395 47.539 57.9179 47.2748 58.0744 46.7345C58.0951 46.6637 58.1837 46.6144 58.2713 46.6218C58.2743 46.6218 58.2743 46.6218 58.28 46.6226C58.28 46.6226 58.28 46.6225 58.283 46.6228C58.4435 46.6367 58.5239 46.6438 58.6844 46.6589C58.99 46.6874 59.1806 46.9214 59.111 47.1736C59.0826 47.277 59.0159 47.3648 58.9246 47.4309C59.0741 47.5452 59.149 47.7249 59.0985 47.9054C59.0196 48.188 58.6762 48.3579 58.333 48.2956C58.1269 48.2583 58.0239 48.2404 57.8179 48.2052C57.8149 48.2047 57.8156 48.2026 57.8156 48.2026C57.8099 48.2014 57.8091 48.2038 57.8061 48.2033C57.7193 48.1884 57.6628 48.1217 57.6827 48.0559ZM58.0431 47.9839C58.1887 48.0071 58.2616 48.019 58.4072 48.0434C58.5737 48.0688 58.7374 47.9882 58.776 47.8525C58.8138 47.7194 58.7098 47.5933 58.5445 47.5673C58.399 47.5464 58.3263 47.5364 58.1807 47.5168C58.1254 47.7051 58.0981 47.7986 58.0431 47.9839ZM58.2541 47.2636C58.3544 47.2758 58.4044 47.282 58.5047 47.2947C58.6326 47.311 58.7588 47.2373 58.7882 47.1332C58.8173 47.0293 58.7389 46.9346 58.611 46.9207C58.5107 46.9099 58.4607 46.9047 58.3604 46.8944C58.3178 47.043 58.2967 47.1167 58.2541 47.2636Z" fill="#474545"/>
<path d="M60.7779 48.5735C60.7879 48.6544 60.7207 48.7233 60.6299 48.7297C60.6174 48.7297 60.5925 48.7295 60.5634 48.7228C60.5634 48.7228 60.5634 48.7228 60.5607 48.7223C60.5316 48.7156 60.4893 48.7003 60.4544 48.6692C60.4226 48.6407 60.3967 48.6001 60.3847 48.5606C60.3611 48.4826 60.3668 48.3845 60.4031 48.2454C60.4129 48.1966 60.4084 48.1607 60.3969 48.1296C60.386 48.0999 60.3586 48.0664 60.329 48.0394C60.2772 47.9927 60.2068 47.9588 60.1819 47.9492C60.0445 47.9243 59.9761 47.9119 59.8387 47.8879C59.781 48.1023 59.7521 48.2088 59.6946 48.4199C59.6747 48.4931 59.5851 48.5386 59.495 48.5199C59.4047 48.5015 59.3514 48.4278 59.3713 48.356C59.5281 47.791 59.6065 47.5027 59.7631 46.914C59.7835 46.8367 59.8696 46.7846 59.9597 46.7954C59.9597 46.7954 59.9597 46.7954 59.9627 46.7958C60.1697 46.8207 60.2735 46.8336 60.4805 46.8604C60.8272 46.9054 61.0395 47.2012 60.9606 47.5135C60.9166 47.6867 60.7909 47.8224 60.6246 47.8997C60.6557 47.9322 60.6826 47.9698 60.702 48.0138C60.7409 48.0997 60.7558 48.2052 60.7264 48.3108C60.7053 48.3861 60.6998 48.4376 60.699 48.4646C60.7423 48.4869 60.7722 48.5259 60.7779 48.5735ZM60.6378 47.4601C60.6764 47.3103 60.5729 47.1701 60.4071 47.1464C60.264 47.1258 60.1924 47.1158 60.0493 47.0964C59.9945 47.3043 59.9671 47.4074 59.9124 47.6125C60.0555 47.6355 60.1272 47.6475 60.2703 47.6714C60.436 47.6996 60.6005 47.6049 60.6378 47.4601Z" fill="#474545"/>
<path d="M62.3445 48.7008C62.0615 48.6331 61.9202 48.6003 61.6372 48.5367C61.5459 48.663 61.5001 48.7257 61.4085 48.8494C61.3677 48.9013 61.298 48.9205 61.234 48.9052C61.2136 48.9004 61.1967 48.8934 61.1808 48.8841C61.1034 48.8353 61.084 48.7429 61.1322 48.674C61.5459 48.1177 61.7527 47.8253 62.1663 47.212C62.2071 47.155 62.283 47.1296 62.3437 47.1399C62.4077 47.1507 62.4632 47.1983 62.4746 47.2646C62.5754 47.975 62.6259 48.3342 62.7265 49.0612C62.7364 49.1497 62.6745 49.2287 62.5826 49.2366C62.567 49.2385 62.5461 49.2358 62.5256 49.2303C62.4617 49.2134 62.4092 49.1614 62.4005 49.0947C62.3781 48.937 62.3669 48.8583 62.3445 48.7008ZM62.2979 48.3692C62.2606 48.11 62.2422 47.981 62.2049 47.724C62.0535 47.9447 61.9779 48.0531 61.8268 48.266C62.0155 48.3062 62.1095 48.3268 62.2979 48.3692Z" fill="#474545"/>
<path d="M65.0376 47.9495C64.4762 48.4769 64.1952 48.7257 63.6338 49.1933C64.0085 49.2955 64.1959 49.3481 64.5707 49.4572C64.6606 49.4833 64.7171 49.5809 64.6964 49.675C64.6758 49.7695 64.5869 49.8197 64.4971 49.7925C63.9954 49.6396 63.7445 49.5663 63.243 49.4264C63.2343 49.424 63.2256 49.4216 63.2147 49.4151C63.2114 49.4142 63.2087 49.4118 63.2067 49.4101C63.2037 49.4077 63.1957 49.4036 63.187 49.4015C63.1848 49.3979 63.1816 49.3972 63.1803 49.3905C63.1773 49.3897 63.1724 49.3852 63.1671 49.3809C63.1619 49.3764 63.1592 49.3754 63.1564 49.372C63.1564 49.372 63.1564 49.372 63.1572 49.3692C63.1544 49.3685 63.1522 49.3644 63.1502 49.361C63.148 49.3574 63.1442 49.3476 63.1417 49.3436C63.1392 49.3395 63.1345 49.3354 63.132 49.3318C63.1298 49.328 63.1273 49.3211 63.1263 49.3182C63.1238 49.311 63.1228 49.305 63.1236 49.3022C63.1221 49.296 63.1169 49.2912 63.1183 49.2857C63.1166 49.2794 63.1181 49.2737 63.1166 49.267C63.1171 49.2641 63.1149 49.2605 63.1161 49.2548C63.1181 49.2462 63.1166 49.24 63.1179 49.2342C63.1186 49.2313 63.1193 49.2285 63.1198 49.2256C63.1198 49.2256 63.1198 49.2256 63.1206 49.2227C63.1226 49.2141 63.1241 49.2084 63.1281 49.2036C63.1288 49.2007 63.1295 49.1978 63.1315 49.1892C63.1353 49.1873 63.1368 49.1816 63.1407 49.1763C63.1412 49.1734 63.145 49.1648 63.1467 49.1631C63.149 49.161 63.1574 49.1569 63.1582 49.1541C63.1616 49.1521 63.1661 49.1471 63.1704 49.1421C63.1704 49.1421 63.1704 49.1421 63.1733 49.143C63.7338 48.6831 64.0138 48.4381 64.5742 47.9184C64.1982 47.833 64.0103 47.7923 63.6345 47.7138C63.5444 47.6951 63.4916 47.6044 63.5116 47.5161C63.5322 47.4247 63.6183 47.3668 63.7082 47.3845C64.2099 47.4822 64.4607 47.5341 64.9624 47.6444C64.9637 47.6446 64.9642 47.6446 64.9654 47.6449C64.9741 47.647 64.9801 47.6482 64.9858 47.6494C64.9888 47.6501 64.9938 47.6547 64.9968 47.6554C65.0055 47.6573 65.0107 47.6602 65.0135 47.6623C65.0157 47.664 65.0217 47.6698 65.0239 47.6712C65.0284 47.6743 65.0341 47.68 65.0364 47.6836C65.0416 47.6882 65.0436 47.6918 65.049 47.6963C65.049 47.6963 65.049 47.6963 65.052 47.697C65.057 47.7013 65.0568 47.7045 65.0585 47.7083C65.0637 47.7126 65.0652 47.7195 65.0677 47.7234C65.0697 47.7269 65.0712 47.7339 65.0737 47.738C65.0787 47.7423 65.0809 47.7461 65.0824 47.753C65.0841 47.76 65.0856 47.7671 65.0879 47.771C65.0871 47.7741 65.0886 47.7808 65.0909 47.7849C65.0889 47.7944 65.0906 47.8011 65.0901 47.8045C65.0943 47.8119 65.0938 47.815 65.0924 47.8215C65.0934 47.8313 65.0926 47.8346 65.0914 47.8408C65.0906 47.844 65.0899 47.8471 65.0886 47.8535C65.0866 47.8629 65.0851 47.8693 65.0841 47.8755C65.0797 47.881 65.0789 47.8842 65.0784 47.8873C65.0762 47.8966 65.0702 47.8985 65.0687 47.905C65.0642 47.9105 65.0637 47.9134 65.0588 47.9222C65.0553 47.9248 65.0545 47.9277 65.051 47.9303C65.0468 47.9358 65.0406 47.9416 65.0391 47.9437C65.0366 47.9466 65.0376 47.9495 65.0376 47.9495Z" fill="#474545"/>
<path d="M65.569 47.9651C65.5894 47.866 65.6755 47.8052 65.7656 47.8265C65.8529 47.8471 65.9124 47.943 65.892 48.0435C65.7352 48.8071 65.6568 49.183 65.5003 49.9231C65.4796 50.0201 65.3883 50.071 65.3009 50.043C65.2106 50.0141 65.1566 49.9176 65.1772 49.8217C65.334 49.0907 65.4122 48.7195 65.569 47.9651Z" fill="#474545"/>
<path d="M66.0452 50.0999C66.2019 49.3443 66.2803 48.9607 66.4369 48.1816C66.4568 48.0823 66.5436 48.0169 66.6337 48.0397C66.7236 48.0624 66.7798 48.1648 66.7599 48.2653C66.6181 48.9789 66.5471 49.3309 66.4053 50.0253C66.7208 50.1287 66.8786 50.1818 67.1939 50.2902C67.2783 50.3191 67.3373 50.4294 67.3166 50.5333C67.2967 50.634 67.2046 50.6905 67.1203 50.6603C66.7432 50.5256 66.5546 50.4601 66.1773 50.3325C66.1716 50.3306 66.1716 50.3306 66.1716 50.3306C66.1686 50.3294 66.1686 50.3294 66.1686 50.3294C66.0788 50.2993 66.0253 50.1959 66.0452 50.0999Z" fill="#474545"/>
<path d="M64.1257 18.2315C63.8362 18.2396 63.6914 18.2434 63.4017 18.2506C63.3539 18.3703 63.33 18.4299 63.2825 18.5483C63.2601 18.5985 63.2001 18.6287 63.1347 18.6294C63.1138 18.6297 63.0958 18.6275 63.0777 18.6234C62.9888 18.5997 62.9405 18.5287 62.9647 18.4634C63.18 17.9309 63.2875 17.6598 63.5027 17.1083C63.5249 17.0566 63.5903 17.0226 63.6533 17.0185C63.7197 17.0142 63.7872 17.0396 63.8185 17.0884C64.1296 17.6122 64.2854 17.8807 64.5965 18.431C64.6323 18.4988 64.5973 18.5753 64.5129 18.6026C64.4985 18.6076 64.4778 18.6103 64.4569 18.6108C64.3914 18.6119 64.3265 18.5825 64.2976 18.5313C64.2289 18.4107 64.1946 18.3506 64.1257 18.2315ZM63.9811 17.9802C63.8671 17.7847 63.8101 17.6878 63.6959 17.4959C63.617 17.6976 63.5776 17.7977 63.4988 17.997C63.6919 17.9903 63.7882 17.9869 63.9811 17.9802Z" fill="#474545"/>
<path d="M66.3823 18.3632C66.4182 18.4347 66.3768 18.5132 66.2927 18.5402C66.2805 18.5429 66.2574 18.5486 66.2275 18.5491C66.2275 18.5491 66.2275 18.5491 66.2245 18.5491C66.1947 18.5498 66.1494 18.5453 66.1061 18.5247C66.0663 18.5058 66.0302 18.4744 66.0038 18.4405C65.9558 18.3701 65.9311 18.2782 65.9164 18.1471C65.9115 18.1016 65.8936 18.0689 65.8722 18.043C65.8517 18.0181 65.8142 17.9935 65.7766 17.9753C65.7114 17.9437 65.6322 17.9274 65.6051 17.9236C65.4645 17.9294 65.3943 17.932 65.254 17.9377C65.2716 18.1466 65.2806 18.2512 65.2983 18.4606C65.3042 18.5328 65.2348 18.5948 65.1425 18.5965C65.0501 18.5984 64.9737 18.5398 64.9675 18.4682C64.9195 17.9045 64.8956 17.6238 64.8476 17.0643C64.8413 16.9909 64.9078 16.9289 65.0001 16.9224C65.0001 16.9224 65.0001 16.9224 65.0031 16.9222C65.2151 16.9071 65.3212 16.8997 65.5332 16.8844C65.8878 16.8588 66.19 17.0746 66.2143 17.3689C66.2278 17.5321 66.1504 17.6807 66.0152 17.7855C66.0563 17.8085 66.0944 17.8365 66.127 17.8722C66.1929 17.9413 66.241 18.0332 66.2472 18.1356C66.2517 18.2086 66.2631 18.2572 66.2713 18.2818C66.3201 18.2926 66.3612 18.3213 66.3823 18.3632ZM65.8836 17.3881C65.8717 17.2459 65.7256 17.1426 65.5556 17.1533C65.4093 17.1627 65.3361 17.1675 65.1895 17.1766C65.2062 17.374 65.2146 17.473 65.2313 17.6709C65.3777 17.664 65.4508 17.6604 65.5974 17.6532C65.7674 17.6448 65.895 17.5252 65.8836 17.3881Z" fill="#474545"/>
<path d="M66.7183 17.6572C66.6775 17.1521 67.1394 16.7139 67.7439 16.6649C67.997 16.6443 68.2441 16.6996 68.4385 16.8144C68.5201 16.8585 68.5398 16.9568 68.488 17.0255C68.4375 17.0927 68.3272 17.1138 68.2486 17.0666C68.114 16.9891 67.9455 16.9465 67.7668 16.9597C67.5525 16.9752 67.3704 17.0623 67.2459 17.1844C67.1193 17.3083 67.0438 17.4674 67.0578 17.64C67.0715 17.8075 67.171 17.958 67.3164 18.0681C67.459 18.1762 67.6528 18.2434 67.8671 18.2358C68.0159 18.2303 68.1528 18.1858 68.2673 18.1205C68.2561 17.9764 68.2506 17.9044 68.2394 17.7606C68.0692 17.7692 67.9838 17.7735 67.8136 17.7821C67.7213 17.7866 67.6386 17.7232 67.6322 17.6433C67.6259 17.5608 67.6981 17.4945 67.7904 17.4892C68.0251 17.4756 68.1423 17.4686 68.377 17.4548C68.38 17.4545 68.38 17.4545 68.38 17.4545C68.3832 17.4543 68.3832 17.4543 68.3832 17.4543C68.4786 17.4485 68.5609 17.5074 68.5674 17.5921C68.5856 17.8264 68.5945 17.9436 68.6127 18.1784C68.6142 18.197 68.6107 18.2107 68.6072 18.2238C68.606 18.2288 68.6047 18.232 68.6022 18.2372C68.6022 18.2384 68.6025 18.2389 68.6025 18.2399C68.5955 18.264 68.5789 18.2858 68.5505 18.3057C68.3728 18.4425 68.1433 18.5253 67.8902 18.5325C67.286 18.5493 66.7591 18.1597 66.7183 17.6572Z" fill="#474545"/>
<path d="M69.2971 18.3406C69.2491 17.7017 69.2252 17.3832 69.1772 16.7486C69.1709 16.6653 69.2376 16.5947 69.33 16.5868C69.3312 16.5868 69.3317 16.5866 69.333 16.5866C69.333 16.5866 69.3329 16.5866 69.3389 16.5861C69.7247 16.5531 69.9175 16.5363 70.3033 16.5021C70.3896 16.4945 70.472 16.5545 70.4782 16.6407C70.4845 16.7271 70.412 16.8031 70.3259 16.8098C70.0031 16.8357 69.8416 16.8486 69.5188 16.8735C69.5338 17.0723 69.5413 17.1716 69.5559 17.371C69.8334 17.3533 69.9723 17.3442 70.2498 17.3257C70.3391 17.3198 70.419 17.3872 70.4247 17.4681C70.4309 17.5545 70.3618 17.6284 70.2724 17.6337C69.9949 17.65 69.8561 17.6579 69.5786 17.6734C69.5935 17.874 69.601 17.9742 69.6159 18.1752C69.9387 18.1616 70.1002 18.1544 70.423 18.1398C70.5093 18.136 70.5917 18.2025 70.5982 18.2894C70.6042 18.3733 70.5317 18.4466 70.4456 18.4497C70.0599 18.464 69.867 18.4707 69.4813 18.4839C69.4753 18.4841 69.4753 18.4813 69.4753 18.4813C69.4741 18.4825 69.4736 18.4829 69.4723 18.4841C69.38 18.4872 69.3033 18.4217 69.2971 18.3406Z" fill="#474545"/>
<path d="M71.3912 18.2542C71.3974 18.3401 71.328 18.4148 71.2419 18.4181C71.1495 18.4217 71.0729 18.3535 71.0669 18.2683C71.0196 17.6088 70.996 17.2803 70.9487 16.6249C70.9487 16.6249 70.9487 16.6249 70.9485 16.6223C70.942 16.5744 70.9621 16.5218 71.0049 16.4866C71.0759 16.4318 71.1779 16.4366 71.2334 16.5002C71.6545 16.9735 71.865 17.2169 72.2864 17.7168C72.2528 17.2348 72.2358 16.9944 72.2022 16.5143C72.1965 16.4299 72.263 16.3507 72.3521 16.3421C72.4414 16.3334 72.5208 16.3997 72.5268 16.4847C72.574 17.1671 72.5977 17.5093 72.645 18.1956C72.6509 18.2844 72.5818 18.3614 72.4924 18.3655C72.4449 18.3676 72.3986 18.3461 72.3665 18.3121C72.36 18.3064 72.3533 18.3006 72.3503 18.2951C71.933 17.7917 71.7242 17.5464 71.3068 17.069C71.3404 17.5423 71.3573 17.7792 71.3912 18.2542Z" fill="#474545"/>
<path d="M74.4961 16.4443C74.3067 16.4623 74.2119 16.4711 74.0228 16.4888C74.0663 17.1397 74.088 17.4658 74.1315 18.1201C74.1378 18.2148 74.0711 18.2921 73.9787 18.2967C73.8896 18.3012 73.8102 18.2316 73.804 18.1375C73.7605 17.4883 73.7388 17.1648 73.6953 16.519C73.5071 16.5362 73.4131 16.5448 73.2249 16.5618C73.1326 16.5702 73.0557 16.4991 73.0497 16.4099C73.0435 16.3178 73.1099 16.2393 73.2023 16.2302C73.7107 16.1802 73.9648 16.1546 74.4735 16.1024C74.5626 16.0933 74.6422 16.1598 74.6484 16.2555C74.6547 16.3481 74.5855 16.436 74.4961 16.4443Z" fill="#474545"/>
<path d="M75.162 16.2038C75.1558 16.1069 75.2222 16.0241 75.3146 16.0145C75.4037 16.0052 75.4863 16.0727 75.4925 16.1703C75.5406 16.9147 75.5644 17.288 75.6125 18.0365C75.6187 18.1349 75.546 18.2153 75.4569 18.22C75.3646 18.2251 75.2882 18.153 75.282 18.0556C75.2342 17.3129 75.2101 16.9425 75.162 16.2038Z" fill="#474545"/>
<path d="M76.4971 17.9835C76.5034 18.0807 76.4339 18.1658 76.3476 18.1709C76.255 18.1761 76.1786 18.0998 76.1726 18.0034C76.1253 17.2566 76.1017 16.8842 76.0542 16.1415C76.0542 16.1415 76.0542 16.1415 76.0539 16.1384C76.0474 16.0843 76.0678 16.0245 76.1104 15.9845C76.1813 15.9221 76.2834 15.9271 76.3389 15.9986C76.7602 16.5327 76.9707 16.8062 77.3921 17.3666C77.3585 16.8227 77.3415 16.5511 77.3079 16.0094C77.3022 15.9142 77.3684 15.8239 77.458 15.8139C77.5474 15.8038 77.627 15.8783 77.6327 15.9742C77.68 16.744 77.7036 17.1297 77.7512 17.9036C77.7572 18.0034 77.688 18.0914 77.5986 18.0969C77.5511 18.0998 77.5046 18.0761 77.4727 18.0383C77.4662 18.0321 77.4595 18.0256 77.4565 18.0194C77.0389 17.4559 76.8304 17.1805 76.4128 16.643C76.4464 17.1781 76.4633 17.4461 76.4971 17.9835Z" fill="#474545"/>
<path d="M79.5089 17.401C79.2194 17.4243 79.0746 17.4357 78.7849 17.4582C78.7371 17.6396 78.7132 17.7303 78.6654 17.9107C78.6433 17.9873 78.5831 18.0354 78.5176 18.0397C78.4967 18.0411 78.4788 18.0387 78.4604 18.0332C78.3718 18.0017 78.3235 17.8966 78.3474 17.7966C78.5627 16.9837 78.6702 16.5724 78.8854 15.7402C78.9078 15.6621 78.9743 15.6097 79.036 15.6026C79.1015 15.5949 79.1699 15.6313 79.2013 15.7038C79.5126 16.4805 79.6681 16.8756 79.9795 17.6789C80.015 17.7779 79.98 17.893 79.8958 17.9373C79.8814 17.9452 79.8605 17.9502 79.8396 17.9516C79.7744 17.9559 79.7092 17.9153 79.6806 17.8406C79.6121 17.6638 79.5778 17.576 79.5089 17.401ZM79.3643 17.0316C79.2503 16.7437 79.1933 16.6006 79.0791 16.3166C79.0002 16.6207 78.9608 16.772 78.882 17.0735C79.0748 17.0569 79.1714 17.0486 79.3643 17.0316Z" fill="#474545"/>
<path d="M35.8874 43.1824C35.4133 43.1348 35.1009 42.6026 35.1796 42.0424C35.25 41.5409 35.2851 41.293 35.3553 40.8032C35.3707 40.6967 35.4531 40.6369 35.5442 40.6644C35.6325 40.6912 35.6972 40.7941 35.682 40.8984C35.6116 41.3782 35.5765 41.6211 35.5063 42.1125C35.4581 42.4509 35.6537 42.7699 35.9424 42.806C36.2338 42.8426 36.506 42.6016 36.5543 42.286C36.6245 41.8276 36.6598 41.6014 36.73 41.1552C36.7455 41.058 36.8306 41.0001 36.9221 41.02C37.0132 41.0398 37.0722 41.1279 37.0568 41.2226C36.9864 41.6581 36.9513 41.879 36.8811 42.3269C36.8024 42.8271 36.3582 43.23 35.8874 43.1824Z" fill="#474545"/>
<path d="M37.4524 42.7375C37.5146 42.6743 37.6146 42.6719 37.6706 42.7291C37.7824 42.8433 37.9869 42.972 38.1947 42.9749C38.3408 42.9768 38.4817 42.9373 38.5807 42.8787C38.68 42.8198 38.7308 42.7533 38.743 42.6853C38.7495 42.6502 38.745 42.6255 38.732 42.5975C38.7194 42.5698 38.698 42.5415 38.6586 42.5116C38.5825 42.4554 38.4466 42.3996 38.2786 42.3558C38.2764 42.3556 38.2751 42.3556 38.2726 42.3554C38.1387 42.3197 38.0151 42.275 37.9123 42.2123C37.8095 42.1498 37.7244 42.0663 37.6771 41.9555C37.6448 41.8797 37.635 41.7938 37.65 41.7057C37.6796 41.5296 37.8055 41.393 37.9576 41.3205C38.1114 41.247 38.3015 41.2271 38.4929 41.2599C38.7756 41.308 38.9613 41.4645 39.0949 41.5707C39.1551 41.6212 39.1566 41.7052 39.1011 41.7588C39.0451 41.8127 38.9476 41.823 38.8846 41.7722C38.7515 41.6645 38.622 41.5636 38.4424 41.5375C38.31 41.5181 38.1855 41.5392 38.0959 41.5844C38.0071 41.6291 37.9638 41.6878 37.9533 41.7476C37.9476 41.782 37.9491 41.8057 37.9601 41.8306C37.9708 41.855 37.9927 41.8844 38.0265 41.9144C38.0942 41.9747 38.2186 42.0342 38.3727 42.0776C38.3749 42.0778 38.3762 42.0778 38.3784 42.078C38.5238 42.1204 38.6564 42.1678 38.7639 42.2285C38.8741 42.2908 38.9675 42.3676 39.017 42.4688C39.0494 42.5344 39.0611 42.614 39.0456 42.6956C39.014 42.8641 38.8796 43.0089 38.7159 43.1082C38.5544 43.2058 38.351 43.2702 38.1432 43.2702C37.8274 43.2704 37.5848 43.1039 37.4392 42.96C37.3839 42.9026 37.3914 42.7992 37.4524 42.7375Z" fill="#474545"/>
<path d="M40.484 42.8531C40.1978 42.8454 40.0547 42.8428 39.7682 42.8373C39.6849 42.9641 39.6433 43.029 39.5599 43.1613C39.5223 43.2173 39.4541 43.2517 39.3892 43.2534C39.3685 43.2539 39.3514 43.2517 39.3352 43.2469C39.2548 43.2204 39.2294 43.1371 39.2732 43.0617C39.6498 42.4494 39.8382 42.1704 40.2149 41.6722C40.2523 41.6258 40.3257 41.6074 40.3881 41.6174C40.4536 41.6279 40.5113 41.6669 40.527 41.7193C40.6709 42.2774 40.7428 42.5458 40.8866 43.062C40.9018 43.1256 40.8448 43.195 40.7542 43.2201C40.7383 43.2247 40.7172 43.2271 40.6965 43.2276C40.6318 43.2283 40.5765 43.1996 40.5638 43.1498C40.532 43.0321 40.5158 42.9727 40.484 42.8531ZM40.4173 42.598C40.3645 42.3972 40.3379 42.2953 40.2851 42.0888C40.1472 42.275 40.0783 42.3721 39.9404 42.5738C40.1311 42.5832 40.2266 42.5877 40.4173 42.598Z" fill="#474545"/>
<path d="M29.7281 32.4981C29.4534 32.5326 29.316 32.5501 29.041 32.5852C28.9975 32.7666 28.9756 32.8575 28.932 33.0399C28.9116 33.1174 28.8551 33.1698 28.7929 33.1789C28.773 33.1818 28.7561 33.1808 28.7384 33.1765C28.6538 33.1512 28.607 33.0485 28.6289 32.9466C28.8255 32.1138 28.9238 31.703 29.1207 30.8913C29.1411 30.8152 29.2035 30.7664 29.2625 30.7616C29.3242 30.7568 29.3899 30.7949 29.4203 30.8664C29.7237 31.6302 29.8752 32.0045 30.1786 32.7374C30.2134 32.8279 30.1808 32.9367 30.1012 32.9839C30.0878 32.9923 30.0678 32.9985 30.0484 33.0011C29.9862 33.0097 29.9238 32.9753 29.8964 32.9064C29.8292 32.7439 29.7956 32.6623 29.7281 32.4981ZM29.5873 32.149C29.4763 31.8753 29.4208 31.7374 29.3098 31.4599C29.2376 31.7556 29.2015 31.9042 29.1294 32.2029C29.3125 32.1811 29.4041 32.1703 29.5873 32.149Z" fill="#474545"/>
<path d="M31.3318 32.8293C30.8766 32.8894 30.4849 32.5206 30.4491 32.0069C30.417 31.5467 30.4008 31.3163 30.3687 30.854C30.3617 30.7532 30.4244 30.6702 30.5118 30.6638C30.5966 30.6575 30.6755 30.7293 30.6825 30.8291C30.7146 31.2873 30.7308 31.5158 30.7629 31.9722C30.7853 32.2861 31.0292 32.5132 31.3064 32.4795C31.5864 32.4452 31.792 32.1701 31.7696 31.865C31.7375 31.4213 31.7213 31.199 31.6892 30.7535C31.6822 30.6563 31.7472 30.5767 31.8353 30.5707C31.9229 30.5647 31.996 30.6348 32.0032 30.731C32.0353 31.1727 32.0515 31.3931 32.0836 31.8327C32.1197 32.3234 31.7845 32.7695 31.3318 32.8293Z" fill="#474545"/>
<path d="M32.7119 32.1194C32.7562 32.0476 32.8505 32.0282 32.9165 32.076C33.0491 32.171 33.2748 32.2703 33.4739 32.2467C33.614 32.2299 33.7392 32.1725 33.8191 32.0988C33.899 32.0253 33.9301 31.9487 33.9246 31.8755C33.9216 31.8372 33.9109 31.8121 33.8918 31.7844C33.8726 31.7568 33.845 31.73 33.8002 31.7047C33.7141 31.6566 33.5712 31.6192 33.402 31.6025C33.3998 31.6027 33.3985 31.6027 33.3965 31.603C33.2616 31.5884 33.1345 31.564 33.023 31.5197C32.9117 31.4752 32.8124 31.4087 32.7423 31.3077C32.6945 31.2385 32.6654 31.1553 32.6586 31.0641C32.6452 30.8815 32.7296 30.715 32.8518 30.6049C32.9759 30.4932 33.1454 30.4262 33.3291 30.4154C33.6003 30.3996 33.8116 30.5274 33.9634 30.6152C34.0321 30.658 34.0565 30.7506 34.0194 30.8203C33.9816 30.8909 33.8935 30.9203 33.8221 30.8779C33.67 30.7882 33.5247 30.7083 33.352 30.7198C33.2251 30.7281 33.1151 30.7779 33.0434 30.8435C32.9717 30.9088 32.9451 30.9777 32.9501 31.0411C32.9528 31.0775 32.96 31.101 32.9759 31.1239C32.9919 31.1469 33.0195 31.172 33.0583 31.1959C33.1357 31.244 33.2669 31.2814 33.4217 31.2984C33.4239 31.2981 33.4249 31.2981 33.4271 31.2979C33.5737 31.3154 33.7103 31.3424 33.8266 31.3888C33.9468 31.4367 34.055 31.5046 34.1282 31.6063C34.1757 31.6721 34.2081 31.7568 34.215 31.8468C34.2297 32.0323 34.1391 32.2019 34.007 32.323C33.8766 32.4426 33.6967 32.5283 33.4966 32.5515C33.1925 32.5869 32.9214 32.4556 32.75 32.3381C32.6848 32.2907 32.6683 32.1902 32.7119 32.1194Z" fill="#474545"/>
<path d="M35.7337 30.6553C35.554 30.6656 35.4639 30.6709 35.2842 30.6816C35.3325 31.2822 35.3566 31.5816 35.4049 32.1777C35.4119 32.2643 35.3494 32.3387 35.2618 32.3485C35.177 32.3578 35.1011 32.2985 35.0938 32.2109C35.0456 31.6089 35.0214 31.3069 34.9731 30.7003C34.7945 30.7113 34.7051 30.7168 34.5267 30.7283C34.4391 30.7338 34.3654 30.6632 34.3584 30.5763C34.3515 30.4866 34.4139 30.4134 34.5013 30.4086C34.9841 30.3825 35.2255 30.3703 35.7083 30.3474C35.7934 30.3433 35.8693 30.4062 35.8765 30.4919C35.8832 30.5749 35.8185 30.6503 35.7337 30.6553Z" fill="#474545"/>
<path d="M37.7781 31.8656C37.8132 31.9379 37.7746 32.0224 37.6949 32.0559C37.6837 32.0597 37.6616 32.0671 37.6332 32.0697C37.6332 32.0697 37.6332 32.0697 37.6305 32.07C37.6021 32.0729 37.5591 32.0714 37.5178 32.0525C37.4797 32.035 37.4451 32.0042 37.4195 31.9697C37.3732 31.8979 37.3488 31.801 37.3328 31.661C37.3274 31.6127 37.3097 31.5782 37.289 31.5512C37.2694 31.5251 37.2335 31.5002 37.1977 31.4816C37.1352 31.4498 37.0601 31.4344 37.0342 31.4308C36.9008 31.4414 36.8341 31.4466 36.7007 31.4574C36.7204 31.6902 36.7301 31.8063 36.7498 32.0384C36.7562 32.1186 36.6915 32.1927 36.6039 32.2021C36.5161 32.2112 36.4427 32.1511 36.4357 32.07C36.3824 31.4328 36.3555 31.1128 36.3023 30.4701C36.2953 30.3856 36.3578 30.3172 36.4454 30.3134C36.4454 30.3134 36.4454 30.3134 36.4484 30.3131C36.6495 30.3043 36.7502 30.3 36.9513 30.2916C37.2876 30.2775 37.578 30.5184 37.6049 30.8283C37.6198 30.9999 37.5484 31.1564 37.4214 31.271C37.4605 31.2945 37.4973 31.3234 37.529 31.3603C37.5922 31.4318 37.639 31.5268 37.6464 31.634C37.6519 31.7108 37.6631 31.7608 37.6713 31.7859C37.7176 31.7955 37.7572 31.8235 37.7781 31.8656ZM37.2913 30.847C37.2781 30.6941 37.1377 30.5792 36.9767 30.5876C36.8376 30.5948 36.7679 30.5984 36.6288 30.6055C36.6475 30.8276 36.6567 30.9384 36.6756 31.1597C36.8147 31.1499 36.8841 31.1449 37.0233 31.1353C37.184 31.1243 37.3042 30.9946 37.2913 30.847Z" fill="#474545"/>
<path d="M39.2268 31.5341C38.9521 31.5554 38.8147 31.5664 38.5399 31.5887C38.4961 31.7241 38.4742 31.7921 38.4307 31.9285C38.4103 31.9864 38.3538 32.0251 38.2918 32.0311C38.2722 32.033 38.255 32.0321 38.2376 32.0287C38.153 32.0089 38.1062 31.9309 38.1278 31.8543C38.3244 31.2302 38.4227 30.9235 38.6193 30.3205C38.6397 30.2638 38.7015 30.2291 38.7614 30.2271C38.8237 30.2252 38.8889 30.2556 38.9192 30.3099C39.2226 30.8888 39.3741 31.1706 39.6773 31.7189C39.7124 31.7866 39.68 31.867 39.6004 31.9009C39.5867 31.9069 39.5673 31.9112 39.5474 31.9132C39.4851 31.9189 39.4229 31.8923 39.3953 31.8406C39.3276 31.7189 39.294 31.6576 39.2268 31.5341ZM39.086 31.2716C38.975 31.0654 38.9195 30.9613 38.8085 30.7509C38.7363 30.9706 38.7002 31.0812 38.628 31.3037C38.8112 31.2905 38.9028 31.2841 39.086 31.2716Z" fill="#474545"/>
<path d="M40.0685 31.7341C40.0152 31.1722 39.9883 30.8899 39.9351 30.3225C39.9283 30.2502 39.9908 30.1885 40.0782 30.1861C40.1658 30.1837 40.2422 30.2414 40.2491 30.3129C40.2974 30.8205 40.3216 31.0731 40.3698 31.5764C40.6762 31.5529 40.8295 31.5414 41.1358 31.5189C41.218 31.513 41.2971 31.5646 41.3043 31.635C41.311 31.7032 41.2434 31.7659 41.1612 31.7728C40.7947 31.8032 40.6115 31.8188 40.2449 31.8508C40.2394 31.8513 40.2394 31.8513 40.2394 31.8513C40.2367 31.8515 40.2367 31.8515 40.2367 31.8515C40.1488 31.8592 40.0752 31.8056 40.0685 31.7341Z" fill="#474545"/>
<path d="M41.5615 30.2777C41.5548 30.2076 41.617 30.1521 41.7046 30.1504C41.7895 30.149 41.8681 30.2014 41.8754 30.2705C41.9286 30.7977 41.9555 31.0599 42.0087 31.5816C42.0157 31.6503 41.9478 31.7089 41.8629 31.7156C41.7753 31.7225 41.7021 31.6742 41.6952 31.6048C41.6417 31.0769 41.615 30.8113 41.5615 30.2777Z" fill="#474545"/>
<path d="M43.521 31.2462C43.2463 31.2618 43.1089 31.2697 42.8342 31.286C42.7904 31.4006 42.7685 31.458 42.7249 31.5738C42.7045 31.6229 42.648 31.6554 42.5858 31.6602C42.5659 31.6616 42.549 31.6607 42.5313 31.6578C42.4467 31.6401 42.4001 31.5736 42.4218 31.5085C42.6184 30.9787 42.7167 30.7191 42.9135 30.2106C42.934 30.1628 42.9954 30.1343 43.0554 30.1338C43.1179 30.1331 43.1828 30.1601 43.2134 30.2065C43.5166 30.7019 43.6684 30.9419 43.9715 31.4066C44.0063 31.464 43.974 31.5315 43.8943 31.5595C43.8806 31.5645 43.861 31.5678 43.8413 31.5693C43.7791 31.5736 43.7169 31.5509 43.6893 31.5071C43.6221 31.4035 43.5885 31.3513 43.521 31.2462ZM43.3804 31.0228C43.2694 30.8469 43.2139 30.7581 43.1029 30.5782C43.0308 30.7634 42.9947 30.8567 42.9223 31.0448C43.1054 31.0357 43.1973 31.0314 43.3804 31.0228Z" fill="#474545"/>
<path d="M66.8021 54.782L64.3135 63.1862C64.3135 63.1862 64.6101 63.2075 65.6036 63.268L67.922 54.7817H66.8021V54.782Z" fill="#270937"/>
<path d="M74.6177 54.7817L71.7104 64.57C71.7104 64.57 71.922 64.6559 72.9 65.0904L75.7376 54.7817H74.6177Z" fill="#270937"/>
<path d="M66.7477 54.7817H67.9189C68.0734 54.7817 68.2046 54.6749 68.2317 54.5287C68.289 54.2201 68.332 53.7647 68.6369 53.5056C68.9836 53.211 73.1381 53.1268 73.9781 53.5056C74.5519 53.7645 74.545 54.265 74.483 54.5565C74.4581 54.673 74.5492 54.7817 74.6729 54.7817H75.8672C76.0337 54.7817 76.1748 54.6661 76.1997 54.5079C76.2328 54.2959 76.2417 53.9612 76.1245 53.5056C75.9068 52.658 75.187 51.8272 70.8983 52.0299C67.2649 52.2017 67.012 52.7848 66.5526 54.5402C66.5205 54.6625 66.6163 54.7817 66.7477 54.7817Z" fill="#422E0B"/>
<path d="M75.2643 54.7817L72.4404 64.8784L72.9003 65.0904L75.7377 54.7817H75.2643Z" fill="#422E0B"/>
<path d="M67.9199 54.7817L65.605 63.2678H64.937L67.4463 54.7817H67.9199Z" fill="#422E0B"/>
<path d="M51.6201 63.6481C54.3024 63.1854 59.8884 62.5742 68.0067 63.4505C70.3202 63.7003 71.8604 65.8737 71.2711 68.0391L62.6404 99.7603C62.2935 101.035 61.1295 101.945 59.761 102.019C56.0648 102.218 48.6747 102.264 43.0857 100.043C41.6156 99.4593 40.826 97.9147 41.2182 96.4326L49.3639 65.6689C49.6396 64.6283 50.5206 63.8379 51.6201 63.6481Z" fill="#422E0B"/>
<path d="M74.5171 65.9488C72.6255 64.8414 70.8254 64.1565 69.1311 63.748C70.7876 64.458 71.7574 66.25 71.2704 68.0397L62.6397 99.7609C62.3157 100.952 61.2777 101.825 60.0264 101.994C62.7358 102.169 65.1991 102.111 66.8894 102.02C68.2579 101.946 69.4218 101.036 69.7685 99.7609L77.0884 72.4892C77.6777 70.3239 76.5767 67.1545 74.5171 65.9488Z" fill="#270937"/>
<path d="M68.6136 92.2602C68.3239 93.1769 67.8605 93.8533 67.5785 93.7708C67.2966 93.6885 67.3028 92.8785 67.5927 91.9618C67.8824 91.0451 68.3458 90.3686 68.6278 90.4512C68.9097 90.5335 68.9035 91.3435 68.6136 92.2602Z" fill="#C68F34"/>
<path d="M72.6399 76.4799C72.3503 77.3966 71.8869 78.0731 71.6049 77.9905C71.3229 77.908 71.3292 77.0982 71.6191 76.1815C71.9088 75.2648 72.3722 74.5883 72.6541 74.6709C72.9358 74.7532 72.9296 75.5632 72.6399 76.4799Z" fill="#C68F34"/>
<path d="M51.6774 69.3133C51.2287 70.5698 50.5112 72.8037 49.9679 75.567C49.7867 76.4885 50.434 77.3698 51.3992 77.5057C54.0416 77.8778 59.2584 78.432 63.7484 77.819C64.4017 77.7297 64.9467 77.2952 65.1729 76.6991C65.703 75.3019 66.6462 72.5563 67.0571 69.7466C67.179 68.912 66.5835 68.1398 65.7152 68.0233C63.3627 67.7077 58.5374 67.2688 53.3007 68.0099C52.5489 68.1166 51.9243 68.6222 51.6774 69.3133Z" fill="#270937"/>
<path d="M51.0949 68.8162C50.6462 70.0727 49.9287 72.3067 49.3854 75.07C49.2042 75.9914 49.8515 76.8727 50.8166 77.0087C53.4591 77.3807 58.6758 77.9349 63.1659 77.3219C63.8192 77.2326 64.3642 76.7981 64.5904 76.202C65.1205 74.8048 66.0637 72.0592 66.4746 69.2495C66.5968 68.4149 66.001 67.6427 65.1327 67.5262C62.7801 67.2106 57.9549 66.7717 52.7182 67.5128C51.9664 67.6195 51.3417 68.1251 51.0949 68.8162Z" fill="white"/>
<path d="M48.1777 82.667C47.729 83.9235 45.1087 92.948 44.8922 96.8577C44.8404 97.7943 45.3583 98.6605 46.3234 98.7964C48.9659 99.1685 54.1826 99.7227 58.6727 99.1096C59.326 99.0203 59.7874 98.5502 60.0972 97.9897C61.6603 95.1614 63.1466 85.9103 63.5574 83.1006C63.6794 82.266 63.0839 81.4938 62.2156 81.3773C59.863 81.0617 55.0377 80.6228 49.8011 81.3639C49.0493 81.4704 48.4246 81.976 48.1777 82.667Z" fill="#270937"/>
<path d="M47.5547 82.188C47.106 83.4445 44.4857 92.469 44.2692 96.3787C44.2174 97.3152 44.7353 98.1815 45.7004 98.3174C48.3429 98.6895 53.5596 99.2437 58.0496 98.6306C58.7029 98.5413 59.1643 98.0711 59.4742 97.5107C61.0373 94.6824 62.5235 85.4313 62.9344 82.6216C63.0563 81.787 62.4608 81.0148 61.5925 80.8983C59.24 80.5827 54.4147 80.1438 49.1781 80.8849C48.4262 80.9914 47.8016 81.497 47.5547 82.188Z" fill="white"/>
<path d="M50.7085 69.9536C50.7085 69.9536 60.8028 69.7294 66.3017 70.2719" stroke="#C68F34" stroke-miterlimit="10"/>
<path d="M46.8945 84.3442C46.8945 84.3442 57.5445 84.5577 62.6194 84.6546L46.8945 84.3442Z" fill="#C68F34"/>
<path d="M46.8945 84.3442C46.8945 84.3442 57.5445 84.5577 62.6194 84.6546" stroke="#C68F34" stroke-miterlimit="10"/>
<path d="M63.568 70.0757C63.568 70.0757 62.8008 71.113 62.8008 72.1697C62.8008 73.2266 63.6718 72.9074 63.7962 72.1697C63.9204 71.432 63.568 70.0757 63.568 70.0757Z" fill="#C68F34"/>
<path d="M60.0337 86.3501C60.0311 86.3997 60.0264 86.446 60.02 86.4888C60.0227 86.4427 60.0277 86.3965 60.0337 86.3501Z" fill="#C68F34" stroke="#C68F34"/>
<path d="M55.9097 63.1469C55.9097 63.1469 57.1712 61.761 60.0272 61.5418C62.8832 61.3223 64.6952 62.5377 65.0438 63.1861C65.0438 63.1861 62.7595 63.0588 62.428 63.0481C62.428 63.0481 61.3959 62.3195 59.793 62.5188C59.0198 62.5587 57.9474 63.0208 57.9474 63.0208C57.9474 63.0208 56.6147 63.0926 55.9097 63.1469Z" fill="#C68F34"/>
<path d="M69.3466 63.8517C69.3352 63.8328 69.3242 63.8136 69.3123 63.7952C69.2523 63.7801 69.1913 63.7626 69.1313 63.748C69.205 63.7796 69.2757 63.816 69.3466 63.8517Z" fill="#66AAE2"/>
<path d="M74.5174 65.9481C74.4908 65.9325 74.4649 65.9191 74.4383 65.9038C75.5241 67.4001 75.9969 69.5115 75.5672 71.0918L68.2472 98.3635C67.9003 99.6384 66.8123 100.577 65.5652 101.123C64.3801 101.643 62.973 101.93 61.5273 102.069C63.6362 102.146 65.5177 102.093 66.8897 102.019C68.2582 101.946 69.4221 101.036 69.7688 99.7607L77.0887 72.489C77.678 70.3232 76.577 67.1538 74.5174 65.9481Z" fill="#270937"/>
<path d="M11.4525 16.4146C11.1101 16.7436 10.7694 17.0927 10.4316 17.461" stroke="#E6E8EA" stroke-linecap="round" stroke-linejoin="round"/>
<path d="M8.55965 19.7373C-2.76154 34.9818 -8.27145 70.8992 34.8006 80.9035" stroke="#E6E8EA" stroke-linecap="round" stroke-linejoin="round" stroke-dasharray="12.13 12.13"/>
<path d="M36.272 81.23C36.753 81.3326 37.2401 81.4319 37.7328 81.5281" stroke="#E6E8EA" stroke-linecap="round" stroke-linejoin="round"/>
<path d="M27.0369 19.5107C26.7126 18.3791 25.9578 15.8482 25.9578 15.8482L25.8963 15.6405C26.0598 15.5206 26.2246 15.3689 26.3774 15.1904C26.89 14.5914 27.0754 13.9241 26.7915 13.6994C26.5312 13.4934 25.9667 13.7324 25.4794 14.2354L24.5298 11.0325C24.7172 10.906 24.9088 10.7363 25.085 10.5305C25.5977 9.93158 25.7831 9.26421 25.4991 9.03952C25.2266 8.82392 24.6209 9.09575 24.1191 9.64803L23.05 6.04246C23.05 6.04246 26.9923 1.38092 26.1223 0.0478503C24.5942 -0.516627 20.5949 4.09945 20.5949 4.09945L16.7094 3.78407C17.1765 3.20452 17.3375 2.5807 17.065 2.36486C16.7813 2.14041 16.1355 2.44359 15.6231 3.04252C15.4469 3.24831 15.3105 3.46175 15.2174 3.66299L11.7659 3.38279C12.1855 2.82621 12.3209 2.24785 12.0606 2.04183C11.7769 1.81714 11.1313 2.12055 10.6186 2.71948C10.4656 2.89823 10.3426 3.08272 10.2518 3.26003L10.0278 3.24185C10.0278 3.24185 7.2995 3.01668 6.08229 2.92814C4.86509 2.83961 4.21729 3.70846 4.21729 3.70846L16.52 8.74807C13.62 12.0241 12.4503 14.2296 12.4503 14.2296L8.13046 13.8499L7.19049 14.948L11.0255 16.5096C10.3611 17.7333 10.6851 18.0819 10.6851 18.0819C10.6851 18.0819 11.1032 18.3207 12.2246 17.4583L14.5559 20.7765L15.4959 19.6787L14.2775 15.6757C14.2775 15.6757 16.3035 14.148 19.0893 10.7815L26.5988 21.4207C26.5993 21.4207 27.3611 20.6423 27.0369 19.5107Z" fill="#18376B"/>
<defs>
<linearGradient id="paint0_linear_18_14415" x1="48.2049" y1="8.30029" x2="48.2049" y2="98.4731" gradientUnits="userSpaceOnUse">
<stop stop-color="#FCE4CC"/>
<stop offset="1" stop-color="#C68F34"/>
</linearGradient>
</defs>
</svg>
